<svg xmlns="http://www.w3.org/2000/svg" viewBox="0 0 320 50"><g id="Layer_2" data-name="Layer 2"><g id="rect"><rect width="320" height="50" fill="none"/></g><g id="cta"><rect x="237.24" y="14.82" width="76.95" height="20" rx="10" fill="#027261"/><path d="M253.36,23.72a16.22,16.22,0,0,0-2.12-.19c-.78,0-1.06.12-1.06.45s.21.42.64.42h.33a3.6,3.6,0,0,1,1.69.25,1.79,1.79,0,0,1,.72,1.67c0,1.66-.84,2.34-2.9,2.34a19.29,19.29,0,0,1-2.92-.26V26.62a13.34,13.34,0,0,0,2.07.17c.84,0,1-.09,1-.43s-.16-.41-.6-.41a5.14,5.14,0,0,1-1.66-.13c-.72-.2-1.11-.95-1.11-2.13,0-1.74.85-2.38,3.18-2.38a12.36,12.36,0,0,1,2.71.31Z" fill="#fff"/><path d="M256.94,23.15c0,.11,0,.18,0,.53H257c.19-.86.79-1.23,2-1.23,1.39,0,2.05.6,2.05,1.88v4.19h-2.64V25.39a1.17,1.17,0,0,0-.07-.56.61.61,0,0,0-.58-.3.74.74,0,0,0-.75.81v3.18h-2.61V21.18h2.61Z" fill="#fff"/><path d="M267.61,23a2.7,2.7,0,0,1,.87,2.36c0,2.37-1,3.38-3.29,3.38s-3.46-1-3.46-3.36a3.71,3.71,0,0,1,.52-2c.51-.7,1.39-1,2.88-1A3.77,3.77,0,0,1,267.61,23Zm-3.37,2.5a2.89,2.89,0,0,0,.14,1,.81.81,0,0,0,.74.4c.57,0,.85-.39.85-1.21s-.22-1.2-.84-1.2S264.24,24.76,264.24,25.5Z" fill="#fff"/><path d="M271.89,23.63H272c.15-.89.67-1.25,1.78-1.25,1.72,0,2.38.82,2.38,3a4.19,4.19,0,0,1-.57,2.53,2.22,2.22,0,0,1-1.87.78c-1,0-1.5-.32-1.72-1.12h-.08v2.39h-2.64V22.59h2.64Zm-.05,2c0,.8.24,1.14.79,1.14s.82-.37.82-1.26c0-.63-.26-.94-.81-.94S271.84,24.93,271.84,25.67Z" fill="#fff"/><path d="M286.6,28.52h-2.75l-1.6-3.29a1.48,1.48,0,0,1-.15-.38H282a4.1,4.1,0,0,1,.07.64v3h-2.52V21.45h3.08l1,2.18a9,9,0,0,1,.38,1h.05a5.76,5.76,0,0,1-.05-.73V21.45h2.51Z" fill="#fff"/><path d="M293.28,23a2.73,2.73,0,0,1,.87,2.36c0,2.37-1,3.38-3.3,3.38s-3.46-1-3.46-3.36a3.71,3.71,0,0,1,.52-2c.51-.7,1.39-1,2.89-1A3.81,3.81,0,0,1,293.28,23Zm-3.38,2.5a2.89,2.89,0,0,0,.14,1,.83.83,0,0,0,.74.4c.58,0,.85-.39.85-1.21s-.22-1.2-.83-1.2S289.9,24.76,289.9,25.5Z" fill="#fff"/><path d="M302.9,28.52h-2.8l-.49-1.92a13,13,0,0,1-.23-1.43h-.05a9.09,9.09,0,0,1-.19,1.43l-.47,1.92H295.8l-1.42-5.93h2.67l.5,2.58a6.33,6.33,0,0,1,.13,1.08h.05l.07-.57c0-.23.05-.45.06-.51l.5-2.58h2l.51,2.58a6,6,0,0,1,.12,1.08H301c0-.28.07-.55.08-.63a3.14,3.14,0,0,1,.05-.45l.51-2.58h2.62Z" fill="#fff"/></g></g></svg>