<svg xmlns="http://www.w3.org/2000/svg" viewBox="0 0 320 50"><g id="Layer_2" data-name="Layer 2"><g id="rect"><rect width="320" height="50" fill="none"/></g><g id="The_power_to_make_a_rich_flavorful_latte_at_home" data-name="The power to  make a rich, flavorful  latte at home"><path d="M17.4,11.53H15.13v5.7H11.75v-5.7H9.54v-3H17.4Z" fill="#fff"/><path d="M21.37,10.64c0,.13,0,.22-.05.65h.09c.23-1,1-1.51,2.41-1.51,1.7,0,2.5.74,2.5,2.3v5.15H23.09V13.38a1.38,1.38,0,0,0-.09-.67.74.74,0,0,0-.71-.38.91.91,0,0,0-.92,1v3.9h-3.2v-9h3.2Z" fill="#fff"/><path d="M34.51,17a13.83,13.83,0,0,1-3.38.44c-2.73,0-3.87-1.19-3.87-4a3.61,3.61,0,0,1,1-3,4.43,4.43,0,0,1,2.87-.69,4.68,4.68,0,0,1,3,.69c.7.56,1,1.39,1,3a7.59,7.59,0,0,1-.06,1.07H30.43a.94.94,0,0,0,.16.57,2.07,2.07,0,0,0,1.57.44A11.43,11.43,0,0,0,34.92,15Zm-1.95-4.15c0-.82-.28-1.08-1.14-1.08s-1.08.32-1.11,1.08Z" fill="#fff"/><path d="M42.56,11.23h.09c.18-1.1.82-1.54,2.18-1.54,2.11,0,2.92,1,2.92,3.66a5.19,5.19,0,0,1-.69,3.09,2.74,2.74,0,0,1-2.3,1c-1.24,0-1.84-.39-2.11-1.38h-.09V19H39.32V10h3.24Zm-.07,2.51c0,1,.29,1.39,1,1.39s1-.46,1-1.55c0-.77-.32-1.14-1-1.14S42.49,12.83,42.49,13.74Z" fill="#fff"/><path d="M55.68,10.46a3.34,3.34,0,0,1,1.06,2.9c0,2.9-1.2,4.13-4,4.13-3,0-4.24-1.21-4.24-4.12a4.5,4.5,0,0,1,.64-2.44c.62-.86,1.7-1.24,3.54-1.24A4.57,4.57,0,0,1,55.68,10.46Zm-4.14,3.07a3.54,3.54,0,0,0,.17,1.21,1,1,0,0,0,.91.49c.71,0,1-.48,1-1.48s-.27-1.47-1-1.47S51.54,12.62,51.54,13.53Z" fill="#fff"/><path d="M67.49,17.23H64.06l-.6-2.36c-.09-.34-.14-.72-.29-1.75h-.05a12.25,12.25,0,0,1-.23,1.75l-.59,2.36H58.79L57.05,10h3.28l.61,3.17a10.15,10.15,0,0,1,.15,1.32h.07l.08-.69c0-.29.06-.56.07-.63L61.93,10h2.44L65,13.12a8.35,8.35,0,0,1,.15,1.32h.07c0-.34.08-.67.1-.77a3.7,3.7,0,0,1,.06-.55L66,10h3.22Z" fill="#fff"/><path d="M76.79,17a13.94,13.94,0,0,1-3.38.44c-2.73,0-3.88-1.19-3.88-4a3.61,3.61,0,0,1,1-3,4.45,4.45,0,0,1,2.87-.69,4.66,4.66,0,0,1,3,.69c.7.56,1,1.39,1,3a7.59,7.59,0,0,1-.07,1.07H72.7a1.1,1.1,0,0,0,.16.57,2.07,2.07,0,0,0,1.57.44A11.29,11.29,0,0,0,77.19,15Zm-2-4.15c0-.82-.29-1.08-1.15-1.08s-1.08.32-1.1,1.08Z" fill="#fff"/><path d="M81.31,11.6h.08c.15-1.26.66-1.75,1.79-1.75a3.43,3.43,0,0,1,.7.06v3.37a4.2,4.2,0,0,0-.71-.06,1.66,1.66,0,0,0-1.34.5c-.12.17-.14.24-.2.67a6.08,6.08,0,0,0-.06.67v2.17H78.38V10h2.93Z" fill="#fff"/><path d="M93.74,12.44H91.47v2.24c0,.69.19.86.94.86a2.55,2.55,0,0,0,.7-.08l.41-.06-.08,1.83a12.9,12.9,0,0,1-2.52.26A3.19,3.19,0,0,1,88.76,17c-.39-.36-.5-.69-.5-1.52v-3h-1V10.9a14.19,14.19,0,0,0,2.44-2.39h1.76V10h2.27Z" fill="#fff"/><path d="M101.58,10.46a3.34,3.34,0,0,1,1.06,2.9c0,2.9-1.21,4.13-4,4.13-3,0-4.24-1.21-4.24-4.12A4.5,4.5,0,0,1,95,10.93c.62-.86,1.7-1.24,3.53-1.24A4.6,4.6,0,0,1,101.58,10.46Zm-4.14,3.07a3.54,3.54,0,0,0,.17,1.21,1,1,0,0,0,.91.49c.7,0,1-.48,1-1.48s-.27-1.47-1-1.47S97.44,12.62,97.44,13.53Z" fill="#fff"/><path d="M12.86,24.16h.06c.26-1.05,1-1.48,2.39-1.48s2.1.44,2.23,1.67h.08a1.73,1.73,0,0,1,.59-1.19A2.85,2.85,0,0,1,20,22.68a2.29,2.29,0,0,1,2.1.82A4,4,0,0,1,22.4,25v5.21H19.16V26.27c0-.69-.2-1-.69-1s-.71.28-.71.84v4.09H14.52v-4c0-.65-.19-.91-.67-.91s-.76.28-.76.82v4.09H9.85V22.94h3Z" fill="#fff"/><path d="M31.87,30.22H28.63V29h-.07c-.39,1.07-.89,1.38-2.17,1.38a2.58,2.58,0,0,1-2.21-.86,5.5,5.5,0,0,1-.76-3.27,4,4,0,0,1,.85-2.94,2.72,2.72,0,0,1,2-.64c1.43,0,1.93.34,2.26,1.51h.07V22.94h3.24Zm-5.18-3.57c0,1,.33,1.44,1,1.44s1-.42,1-1.43-.27-1.24-1-1.24S26.69,25.81,26.69,26.65Z" fill="#fff"/><path d="M36.24,25.28s0,.2,0,.4,0,.24,0,.43h.11c.11-.31.17-.44.24-.61l1.2-2.56h3.52l-2.12,3.65L41,30.22H37.75l-1.18-2.33c-.11-.28-.19-.45-.26-.68H36.2c0,.37,0,.62,0,.74v2.27H33.08v-9h3.16Z" fill="#fff"/><path d="M48.62,30a13.88,13.88,0,0,1-3.38.44c-2.73,0-3.88-1.2-3.88-4a3.59,3.59,0,0,1,1-3,4.46,4.46,0,0,1,2.88-.69,4.64,4.64,0,0,1,3,.69c.71.56,1,1.39,1,3a6.34,6.34,0,0,1-.07,1.07H44.54a1,1,0,0,0,.15.57,2.09,2.09,0,0,0,1.57.44A10.9,10.9,0,0,0,49,28ZM46.67,25.8c0-.82-.29-1.08-1.15-1.08s-1.08.31-1.1,1.08Z" fill="#fff"/><path d="M61.66,30.22H58.42V29h-.07c-.39,1.07-.89,1.38-2.17,1.38A2.58,2.58,0,0,1,54,29.53a5.5,5.5,0,0,1-.76-3.27,4,4,0,0,1,.85-2.94,2.72,2.72,0,0,1,2-.64c1.43,0,1.93.34,2.26,1.51h.07V22.94h3.24Zm-5.18-3.57c0,1,.33,1.44,1,1.44s1-.42,1-1.43-.27-1.24-1-1.24S56.48,25.81,56.48,26.65Z" fill="#fff"/><path d="M69.05,24.59h.08c.16-1.26.66-1.75,1.8-1.75a3.55,3.55,0,0,1,.7.06v3.37a4.5,4.5,0,0,0-.72-.07,1.66,1.66,0,0,0-1.34.51,1.2,1.2,0,0,0-.19.67c0,.31-.07.54-.07.67v2.17H66.13V22.94h2.92Z" fill="#fff"/><path d="M75.51,22c0,.48-.09.59-.57.57H72.86c-.48,0-.59-.09-.57-.57v-.32c0-.5.09-.59.57-.57h2.08c.48,0,.58.09.57.57Zm0,8.23H72.31V22.75c.23.15.34.18,1.22.19h.72c.88,0,1,0,1.22-.19Z" fill="#fff"/><path d="M83.12,29.88a7,7,0,0,1-3,.52,3.61,3.61,0,0,1-2.75-.85,4.51,4.51,0,0,1-1-3.18c0-2.53,1.21-3.69,3.83-3.69a8.07,8.07,0,0,1,2.9.55v2.65a7.06,7.06,0,0,0-2.05-.3c-1,0-1.4.35-1.4,1.17S80.08,28,81.21,28a6.06,6.06,0,0,0,1.91-.33Z" fill="#fff"/><path d="M87.44,23.63c0,.13,0,.22,0,.65h.09c.24-1.05,1-1.51,2.41-1.51,1.7,0,2.51.74,2.51,2.3v5.15H89.16V26.37a1.26,1.26,0,0,0-.09-.67.74.74,0,0,0-.7-.38.91.91,0,0,0-.93,1v3.9h-3.2v-9h3.2Z" fill="#fff"/><path d="M95.07,32.08H93.16L94,28.34h2.7Z" fill="#fff"/><path d="M106.52,26.8h-2.08v3.42h-3.23V26.8h-.73V24.59l.73.05v-1.4a1.83,1.83,0,0,1,.59-1.49,3.57,3.57,0,0,1,2.38-.54c.65,0,1.29,0,2.34.12v2a5.93,5.93,0,0,0-1-.09c-.79,0-1.11.23-1.11.79v.61l2.08-.05Z" fill="#fff"/><path d="M110.6,30.22h-3.24v-9h3.24Z" fill="#fff"/><path d="M120.06,30.22h-3.24V29h-.07c-.39,1.07-.89,1.38-2.17,1.38a2.58,2.58,0,0,1-2.21-.86,5.5,5.5,0,0,1-.76-3.27,4,4,0,0,1,.85-2.94,2.72,2.72,0,0,1,2-.64c1.43,0,1.93.34,2.26,1.51h.07V22.94h3.24Zm-5.18-3.57c0,1,.33,1.44,1,1.44s1-.42,1-1.43-.28-1.24-1-1.24S114.88,25.81,114.88,26.65Z" fill="#fff"/><path d="M127.06,30.22h-4.14l-2.15-7.28H124l.65,2.32a12,12,0,0,1,.3,2.13h.08a10.31,10.31,0,0,1,.27-2.13l.63-2.32h3.21Z" fill="#fff"/><path d="M136.62,23.45a3.33,3.33,0,0,1,1.07,2.9c0,2.9-1.21,4.13-4.05,4.13-3,0-4.24-1.21-4.24-4.12a4.5,4.5,0,0,1,.64-2.44c.63-.86,1.7-1.24,3.54-1.24A4.57,4.57,0,0,1,136.62,23.45Zm-4.13,3.07a3.59,3.59,0,0,0,.16,1.21,1,1,0,0,0,.91.49c.71,0,1-.48,1-1.48s-.27-1.47-1-1.47S132.49,25.61,132.49,26.52Z" fill="#fff"/><path d="M141.57,24.59h.08c.16-1.26.66-1.75,1.79-1.75a3.58,3.58,0,0,1,.71.06v3.37a4.5,4.5,0,0,0-.72-.07,1.66,1.66,0,0,0-1.34.51,1.2,1.2,0,0,0-.19.67c0,.31-.07.54-.07.67v2.17h-3.18V22.94h2.92Z" fill="#fff"/><path d="M150.62,26.8h-2.08v3.42H145.3V26.8h-.73V24.59l.73.05v-1.4a1.81,1.81,0,0,1,.6-1.49,3.55,3.55,0,0,1,2.38-.54c.65,0,1.28,0,2.34.12v2a6.14,6.14,0,0,0-1-.09c-.79,0-1.1.23-1.1.79v.61l2.08-.05Z" fill="#fff"/><path d="M159.18,27.3a3,3,0,0,1-.7,2.34,4.8,4.8,0,0,1-3.19.91,4.38,4.38,0,0,1-3.38-1.11,3.28,3.28,0,0,1-.52-2.14V22.94h3.24v4.71c0,.7.17,1,.66,1s.65-.25.65-1V22.94h3.24Z" fill="#fff"/><path d="M163.62,30.22h-3.24v-9h3.24Z" fill="#fff"/><path d="M13.09,43.21H9.85v-9h3.24Z" fill="#fff"/><path d="M22.55,43.21H19.31V42h-.06c-.39,1.07-.9,1.38-2.17,1.38a2.55,2.55,0,0,1-2.21-.86,5.49,5.49,0,0,1-.77-3.27A4,4,0,0,1,15,36.31a2.71,2.71,0,0,1,2-.64c1.43,0,1.92.34,2.26,1.51h.06V35.93h3.24Zm-5.17-3.57c0,1,.32,1.44,1,1.44s1-.42,1-1.43-.27-1.24-1-1.24S17.38,38.8,17.38,39.64Z" fill="#fff"/><path d="M29.74,38.41H27.48v2.25c0,.69.18.86.93.86a2.62,2.62,0,0,0,.71-.08l.4-.06-.08,1.83a13.63,13.63,0,0,1-2.52.26,3.19,3.19,0,0,1-2.16-.53c-.39-.37-.49-.69-.49-1.52v-3h-1V36.88a14.12,14.12,0,0,0,2.43-2.39h1.77v1.44h2.26Z" fill="#fff"/><path d="M36.73,38.41H34.47v2.25c0,.69.18.86.93.86a2.62,2.62,0,0,0,.71-.08l.4-.06-.08,1.83a13.63,13.63,0,0,1-2.52.26,3.19,3.19,0,0,1-2.16-.53c-.39-.37-.49-.69-.49-1.52v-3h-1V36.88a14.12,14.12,0,0,0,2.43-2.39h1.77v1.44h2.26Z" fill="#fff"/><path d="M44.62,42.94a14,14,0,0,1-3.39.44c-2.73,0-3.87-1.2-3.87-4a3.59,3.59,0,0,1,1-3,4.45,4.45,0,0,1,2.87-.69,4.66,4.66,0,0,1,3,.69c.7.56,1,1.39,1,3a7.59,7.59,0,0,1-.07,1.07H40.53a1,1,0,0,0,.16.57,2.07,2.07,0,0,0,1.57.44A10.9,10.9,0,0,0,45,41Zm-1.95-4.15c0-.82-.29-1.08-1.15-1.08s-1.08.31-1.1,1.08Z" fill="#fff"/><path d="M57.65,43.21H54.42V42h-.07c-.39,1.07-.9,1.38-2.17,1.38A2.58,2.58,0,0,1,50,42.52a5.49,5.49,0,0,1-.77-3.27,4,4,0,0,1,.86-2.94,2.71,2.71,0,0,1,2-.64c1.43,0,1.92.34,2.26,1.51h.07V35.93h3.23Zm-5.17-3.57c0,1,.32,1.44,1,1.44s1-.42,1-1.43-.28-1.24-1-1.24S52.48,38.8,52.48,39.64Z" fill="#fff"/><path d="M64.84,38.41H62.58v2.25c0,.69.18.86.94.86a2.55,2.55,0,0,0,.7-.08l.4-.06-.08,1.83a13.55,13.55,0,0,1-2.52.26,3.19,3.19,0,0,1-2.16-.53c-.39-.37-.49-.69-.49-1.52v-3h-1V36.88a14.12,14.12,0,0,0,2.43-2.39h1.77v1.44h2.26Z" fill="#fff"/><path d="M72.18,36.62c0,.13,0,.22-.06.65h.09c.24-1.05,1-1.51,2.41-1.51,1.7,0,2.51.74,2.51,2.3v5.15H73.89V39.36a1.26,1.26,0,0,0-.09-.67.73.73,0,0,0-.7-.38.9.9,0,0,0-.92,1v3.9H69v-9h3.2Z" fill="#fff"/><path d="M85.28,36.44a3.33,3.33,0,0,1,1.06,2.9c0,2.9-1.2,4.13-4,4.13-3,0-4.24-1.21-4.24-4.12a4.5,4.5,0,0,1,.64-2.44c.62-.86,1.7-1.24,3.54-1.24A4.57,4.57,0,0,1,85.28,36.44Zm-4.14,3.07a3.43,3.43,0,0,0,.17,1.2,1,1,0,0,0,.91.5c.71,0,1-.48,1-1.48s-.27-1.47-1-1.47S81.14,38.6,81.14,39.51Z" fill="#fff"/><path d="M90.31,37.15h.06c.26-1,1-1.48,2.4-1.48s2.09.44,2.22,1.66h.08a1.67,1.67,0,0,1,.6-1.18,2.84,2.84,0,0,1,1.76-.48,2.29,2.29,0,0,1,2.1.82A4,4,0,0,1,99.85,38v5.21H96.61v-4c0-.69-.2-1-.68-1s-.72.28-.72.84v4.09H92v-4c0-.65-.19-.91-.67-.91s-.76.28-.76.82v4.09H87.31V35.93h3Z" fill="#fff"/><path d="M108.07,42.94a13.88,13.88,0,0,1-3.38.44c-2.73,0-3.88-1.2-3.88-4a3.59,3.59,0,0,1,1-3,4.46,4.46,0,0,1,2.88-.69,4.64,4.64,0,0,1,3,.69c.71.56,1,1.39,1,3a6.34,6.34,0,0,1-.07,1.07H104a1.1,1.1,0,0,0,.16.57,2.09,2.09,0,0,0,1.57.44,10.9,10.9,0,0,0,2.76-.42Zm-1.95-4.15c0-.82-.29-1.08-1.15-1.08s-1.08.31-1.1,1.08Z" fill="#fff"/></g></g></svg>