<svg xmlns="http://www.w3.org/2000/svg" viewBox="0 0 320 50"><g id="Layer_2" data-name="Layer 2"><g id="rect"><rect width="320" height="50" fill="none"/></g><g id="Enjoy_a_café-style_latte_in_just_one_step" data-name="Enjoy a café-style  latte in just one step"><path d="M16.58,16.48h-4v1h4v2h-4v.95h4v2.2H9.41V13.91h7.17Z" fill="#fff"/><path d="M20.77,16.58h.08c.24-1,1-1.45,2.45-1.45a2.83,2.83,0,0,1,2.19.73A2.5,2.5,0,0,1,26,17.48v5.1H22.71V18.77c0-.64,0-.68-.14-.83a.75.75,0,0,0-.66-.28.86.86,0,0,0-.94.95v4H17.8V15.3h3Z" fill="#fff"/><path d="M30.5,21.63c0,1.39-.17,1.92-.7,2.27a3.76,3.76,0,0,1-2.12.41,9.94,9.94,0,0,1-1.18-.06V22.51l.27,0a.6.6,0,0,0,.51-.21c0-.09.06-.13.07-.51V15.1c.24.16.33.18,1.21.2h.73c.92,0,1,0,1.21-.2Zm0-7.28c0,.48-.09.58-.59.57h-2c-.49,0-.6-.08-.58-.57V14c0-.48.09-.58.58-.57h2c.5,0,.6.09.59.57Z" fill="#fff"/><path d="M38.66,15.8a3.34,3.34,0,0,1,1.06,2.9c0,2.9-1.21,4.14-4,4.14-3,0-4.24-1.21-4.24-4.12a4.54,4.54,0,0,1,.64-2.45c.62-.86,1.7-1.23,3.53-1.23A4.66,4.66,0,0,1,38.66,15.8Zm-4.14,3.07a3.54,3.54,0,0,0,.17,1.21,1,1,0,0,0,.91.49c.7,0,1-.48,1-1.48s-.27-1.47-1-1.47S34.52,18,34.52,18.87Z" fill="#fff"/><path d="M42.8,22.34v-.08a1.62,1.62,0,0,1-1-1.24L40,15.3h3.15l.57,2.15a12.39,12.39,0,0,1,.24,2.29H44a12.61,12.61,0,0,1,.28-2.23l.54-2.21h3.24l-2.21,6.76c-.61,1.82-1.06,2.21-2.64,2.25H41l-.14-2Z" fill="#fff"/><path d="M60.3,22.58H57.06V21.37H57c-.39,1.06-.9,1.38-2.17,1.38a2.55,2.55,0,0,1-2.21-.86,5.53,5.53,0,0,1-.77-3.28,4,4,0,0,1,.86-2.94,2.7,2.7,0,0,1,2-.63c1.43,0,1.92.33,2.26,1.5h.06V15.3H60.3ZM55.13,19c0,1,.32,1.44,1,1.44s1-.41,1-1.43-.27-1.23-1-1.23S55.13,18.17,55.13,19Z" fill="#fff"/><path d="M71.25,22.24a7,7,0,0,1-3,.52,3.6,3.6,0,0,1-2.76-.86,4.5,4.5,0,0,1-1-3.17c0-2.54,1.21-3.69,3.84-3.69a8.1,8.1,0,0,1,2.9.54v2.65a7.48,7.48,0,0,0-2.06-.29c-1,0-1.4.35-1.4,1.17s.41,1.23,1.55,1.23A6.36,6.36,0,0,0,71.25,20Z" fill="#fff"/><path d="M80.55,22.58H77.31V21.37h-.06c-.39,1.06-.9,1.38-2.17,1.38a2.58,2.58,0,0,1-2.21-.86,5.53,5.53,0,0,1-.77-3.28A4,4,0,0,1,73,15.67,2.7,2.7,0,0,1,75,15c1.43,0,1.92.33,2.26,1.5h.06V15.3h3.24ZM75.38,19c0,1,.32,1.44,1,1.44s1-.41,1-1.43-.27-1.23-.94-1.23S75.38,18.17,75.38,19Z" fill="#fff"/><path d="M87.45,19.16H85.37v3.42H82.13V19.16H81.4V17l.73.05V15.6a1.84,1.84,0,0,1,.6-1.5,3.56,3.56,0,0,1,2.38-.53c.65,0,1.28,0,2.34.11v2a5.16,5.16,0,0,0-1-.09c-.79,0-1.1.23-1.1.79V17L87.45,17Z" fill="#fff"/><path d="M95.32,22.3a14,14,0,0,1-3.38.45c-2.73,0-3.88-1.2-3.88-4.05a3.57,3.57,0,0,1,1-3A4.42,4.42,0,0,1,92,15a4.58,4.58,0,0,1,3,.69c.71.55,1,1.39,1,3a6.23,6.23,0,0,1-.07,1.06H91.24a1,1,0,0,0,.15.57A2.06,2.06,0,0,0,93,20.8a10.89,10.89,0,0,0,2.75-.42Zm-.81-9.56-1.66,1.69h-2l1.24-1.69Zm-1.14,5.42c0-.82-.29-1.08-1.15-1.08s-1.07.31-1.1,1.08Z" fill="#fff"/><path d="M100.11,17.61v2.31H96.67V17.61Z" fill="#fff"/><path d="M107.59,17.61a17.92,17.92,0,0,0-2.16-.14c-1.27,0-1.4,0-1.4.41s.17.45.72.45a10.29,10.29,0,0,1,1.85.09c.93.15,1.33.72,1.33,1.89a2.19,2.19,0,0,1-.94,2.08,5.16,5.16,0,0,1-2.52.45,17.93,17.93,0,0,1-3.4-.35V20.64a25,25,0,0,0,2.86.16c.55,0,.72-.1.72-.42s-.11-.44-1.23-.44a4.25,4.25,0,0,1-1.57-.17c-.76-.25-1.1-.91-1.1-2.12,0-1.9.86-2.52,3.46-2.52a22.88,22.88,0,0,1,3.38.28Z" fill="#fff"/><path d="M114.78,17.78h-2.27V20c0,.69.19.86.94.86a3,3,0,0,0,.7-.08l.4-.07-.07,1.84a13.73,13.73,0,0,1-2.53.26,3.11,3.11,0,0,1-2.15-.54c-.39-.36-.5-.69-.5-1.52v-3h-1V16.25a14.23,14.23,0,0,0,2.44-2.4h1.76V15.3h2.27Z" fill="#fff"/><path d="M118.15,22.34v-.08A1.62,1.62,0,0,1,117.1,21l-1.78-5.72h3.14l.57,2.15a11.53,11.53,0,0,1,.25,2.29h.09a12.61,12.61,0,0,1,.28-2.23l.54-2.21h3.24l-2.21,6.76c-.61,1.82-1.07,2.21-2.64,2.25h-2.22l-.15-2Z" fill="#fff"/><path d="M127.38,22.58h-3.24v-9h3.24Z" fill="#fff"/><path d="M135.6,22.3a14,14,0,0,1-3.38.45c-2.73,0-3.88-1.2-3.88-4.05a3.57,3.57,0,0,1,1-3,4.4,4.4,0,0,1,2.88-.69,4.58,4.58,0,0,1,3,.69c.71.55,1,1.39,1,3a6.23,6.23,0,0,1-.07,1.06h-4.62a1,1,0,0,0,.15.57,2,2,0,0,0,1.57.45,10.9,10.9,0,0,0,2.76-.42Zm-1.95-4.14c0-.82-.29-1.08-1.15-1.08s-1.08.31-1.1,1.08Z" fill="#fff"/><path d="M12.61,37.25H9.37v-9h3.24Z" fill="#fff"/><path d="M22.07,37.25H18.83V36h-.06c-.39,1.07-.9,1.38-2.17,1.38a2.55,2.55,0,0,1-2.21-.86,5.49,5.49,0,0,1-.77-3.27,4,4,0,0,1,.86-2.94,2.71,2.71,0,0,1,2-.64c1.43,0,1.92.34,2.26,1.51h.06V30h3.24ZM16.9,33.68c0,1,.32,1.44,1,1.44s1-.42,1-1.43-.27-1.24-.95-1.24S16.9,32.84,16.9,33.68Z" fill="#fff"/><path d="M29.26,32.45H27V34.7c0,.69.18.86.93.86a2.62,2.62,0,0,0,.71-.08l.4-.06L29,37.25a13.63,13.63,0,0,1-2.52.26A3.19,3.19,0,0,1,24.28,37c-.39-.37-.49-.69-.49-1.52v-3h-1V30.92a14.12,14.12,0,0,0,2.43-2.39H27V30h2.26Z" fill="#fff"/><path d="M36.25,32.45H34V34.7c0,.69.18.86.93.86a2.51,2.51,0,0,0,.7-.08l.41-.06L36,37.25a13.63,13.63,0,0,1-2.52.26A3.19,3.19,0,0,1,31.27,37c-.39-.37-.49-.69-.49-1.52v-3h-1V30.92a14.12,14.12,0,0,0,2.43-2.39H34V30h2.26Z" fill="#fff"/><path d="M44.13,37a13.83,13.83,0,0,1-3.38.44c-2.73,0-3.87-1.2-3.87-4a3.59,3.59,0,0,1,1-3,4.45,4.45,0,0,1,2.87-.69,4.68,4.68,0,0,1,3,.69c.7.56,1,1.39,1,3a7.59,7.59,0,0,1-.07,1.07H40.05a.94.94,0,0,0,.16.57,2.07,2.07,0,0,0,1.57.44,10.9,10.9,0,0,0,2.76-.42Zm-2-4.15c0-.82-.28-1.08-1.14-1.08s-1.08.31-1.1,1.08Z" fill="#fff"/><path d="M52.18,29c0,.48-.09.59-.57.57H49.53c-.48,0-.59-.09-.57-.57V28.7c0-.5.09-.59.57-.58h2.08c.48,0,.58.1.57.58Zm0,8.23H49V29.78c.24.15.34.18,1.22.19h.72c.88,0,1,0,1.22-.19Z" fill="#fff"/><path d="M56.33,31.26h.08c.23-1,1-1.46,2.44-1.46a2.88,2.88,0,0,1,2.2.73,2.52,2.52,0,0,1,.46,1.62v5.1H58.27V33.44c0-.64,0-.67-.14-.83a.8.8,0,0,0-.67-.27.85.85,0,0,0-.93.95v4H53.35V30h3Z" fill="#fff"/><path d="M69.15,36.3c0,1.39-.17,1.93-.7,2.28a3.86,3.86,0,0,1-2.12.4,10.17,10.17,0,0,1-1.18,0V37.19l.27,0a.6.6,0,0,0,.51-.21c0-.09.06-.13.07-.5V29.78c.24.15.33.18,1.21.19h.73c.92,0,1,0,1.21-.19Zm0-7.28c0,.48-.1.59-.59.57h-2c-.49,0-.6-.07-.58-.57V28.7c0-.48.09-.59.58-.58h2c.49,0,.6.1.59.58Z" fill="#fff"/><path d="M78.12,34.33a3,3,0,0,1-.7,2.34,4.78,4.78,0,0,1-3.19.91,4.41,4.41,0,0,1-3.38-1.11,3.28,3.28,0,0,1-.52-2.14V30h3.24v4.71c0,.7.17,1,.66,1s.65-.25.65-1V30h3.24Z" fill="#fff"/><path d="M85.88,32.29a16.13,16.13,0,0,0-2.16-.15c-1.27,0-1.4,0-1.4.42s.17.44.71.44a10.35,10.35,0,0,1,1.86.09c.93.16,1.33.73,1.33,1.9a2.2,2.2,0,0,1-.94,2.08,5.21,5.21,0,0,1-2.52.44,17.93,17.93,0,0,1-3.4-.35V35.31a25,25,0,0,0,2.86.16c.55,0,.72-.09.72-.42s-.11-.44-1.23-.44a4,4,0,0,1-1.57-.17c-.76-.24-1.1-.91-1.1-2.12,0-1.89.86-2.52,3.46-2.52a23.28,23.28,0,0,1,3.38.29Z" fill="#fff"/><path d="M93.07,32.45H90.8V34.7c0,.69.19.86.94.86a2.55,2.55,0,0,0,.7-.08l.4-.06-.07,1.83a13.73,13.73,0,0,1-2.53.26A3.17,3.17,0,0,1,88.09,37c-.39-.37-.5-.69-.5-1.52v-3h-1V30.92A14.56,14.56,0,0,0,89,28.53H90.8V30h2.27Z" fill="#fff"/><path d="M104.15,30.48a3.3,3.3,0,0,1,1.07,2.9c0,2.9-1.21,4.13-4,4.13-3,0-4.24-1.21-4.24-4.12A4.5,4.5,0,0,1,97.58,31c.62-.86,1.7-1.24,3.53-1.24A4.57,4.57,0,0,1,104.15,30.48ZM100,33.55a3.21,3.21,0,0,0,.17,1.2,1,1,0,0,0,.91.5c.7,0,1-.48,1-1.48s-.27-1.47-1-1.47S100,32.64,100,33.55Z" fill="#fff"/><path d="M109.16,31.26h.08c.23-1,1-1.46,2.44-1.46a2.9,2.9,0,0,1,2.2.73,2.59,2.59,0,0,1,.45,1.62v5.1H111.1V33.44c0-.64,0-.67-.15-.83a.77.77,0,0,0-.66-.27.86.86,0,0,0-.94.95v4h-3.17V30h3Z" fill="#fff"/><path d="M122.53,37a13.88,13.88,0,0,1-3.38.44c-2.73,0-3.88-1.2-3.88-4a3.59,3.59,0,0,1,1-3,4.46,4.46,0,0,1,2.88-.69,4.64,4.64,0,0,1,3,.69c.71.56,1,1.39,1,3a6.34,6.34,0,0,1-.07,1.07h-4.62a1,1,0,0,0,.15.57,2.09,2.09,0,0,0,1.57.44,10.9,10.9,0,0,0,2.76-.42Zm-2-4.15c0-.82-.29-1.08-1.15-1.08s-1.08.31-1.1,1.08Z" fill="#fff"/><path d="M133.88,32.29a16.35,16.35,0,0,0-2.16-.15c-1.27,0-1.4,0-1.4.42s.16.44.71.44a10.35,10.35,0,0,1,1.86.09c.92.16,1.33.73,1.33,1.9a2.22,2.22,0,0,1-.94,2.08,5.24,5.24,0,0,1-2.52.44,18,18,0,0,1-3.41-.35V35.31a25.12,25.12,0,0,0,2.86.16c.56,0,.73-.09.73-.42s-.12-.44-1.24-.44a4.07,4.07,0,0,1-1.57-.17c-.75-.24-1.09-.91-1.09-2.12,0-1.89.86-2.52,3.46-2.52a23.28,23.28,0,0,1,3.38.29Z" fill="#fff"/><path d="M141.06,32.45H138.8V34.7c0,.69.18.86.93.86a2.62,2.62,0,0,0,.71-.08l.4-.06-.08,1.83a13.63,13.63,0,0,1-2.52.26,3.19,3.19,0,0,1-2.16-.53c-.39-.37-.49-.69-.49-1.52v-3h-1V30.92A14.12,14.12,0,0,0,137,28.53h1.77V30h2.26Z" fill="#fff"/><path d="M149,37a13.88,13.88,0,0,1-3.38.44c-2.73,0-3.88-1.2-3.88-4a3.59,3.59,0,0,1,1-3,4.46,4.46,0,0,1,2.88-.69,4.64,4.64,0,0,1,3,.69c.7.56,1,1.39,1,3a7.59,7.59,0,0,1-.07,1.07h-4.63A1.1,1.1,0,0,0,145,35a2.09,2.09,0,0,0,1.57.44,10.9,10.9,0,0,0,2.76-.42ZM147,32.83c0-.82-.29-1.08-1.15-1.08s-1.08.31-1.1,1.08Z" fill="#fff"/><path d="M153.78,31.25h.09c.18-1.1.82-1.54,2.19-1.54,2.1,0,2.91,1,2.91,3.65a5.21,5.21,0,0,1-.69,3.1,2.74,2.74,0,0,1-2.3,1c-1.24,0-1.84-.39-2.11-1.38h-.09V39h-3.24V30h3.24Zm-.06,2.5c0,1,.28,1.39,1,1.39s1-.45,1-1.54c0-.77-.32-1.15-1-1.15S153.72,32.84,153.72,33.75Z" fill="#fff"/></g></g></svg>