<svg xmlns="http://www.w3.org/2000/svg" viewBox="0 0 320 50"><g id="Layer_2" data-name="Layer 2"><g id="rect"><rect width="320" height="50" fill="none"/></g><g id="Treat_Yourself_First." data-name="Treat Yourself First."><path d="M17.55,25.43H15.11v6.15H11.47V25.43H9.08v-3.2h8.47Z" fill="#fff"/><path d="M21.53,25.51h.08c.17-1.36.72-1.89,1.93-1.89a3.36,3.36,0,0,1,.76.07v3.63a4,4,0,0,0-.77-.07,1.75,1.75,0,0,0-1.44.54,1.19,1.19,0,0,0-.21.72,5.45,5.45,0,0,0-.07.73v2.34H18.38V23.73h3.15Z" fill="#fff"/><path d="M32.69,31.28a14.85,14.85,0,0,1-3.65.48c-2.94,0-4.17-1.29-4.17-4.36A3.88,3.88,0,0,1,26,24.19a4.85,4.85,0,0,1,3.1-.74,5,5,0,0,1,3.2.74c.76.61,1.05,1.5,1.05,3.23a7.13,7.13,0,0,1-.07,1.14h-5a1,1,0,0,0,.17.62,2.24,2.24,0,0,0,1.69.48,11.9,11.9,0,0,0,3-.45Zm-2.11-4.47c0-.88-.3-1.16-1.23-1.16s-1.16.34-1.19,1.16Z" fill="#fff"/><path d="M43.26,31.58H39.77V30.27H39.7c-.42,1.15-1,1.49-2.34,1.49A2.76,2.76,0,0,1,35,30.83a5.93,5.93,0,0,1-.83-3.53,4.31,4.31,0,0,1,.93-3.16,2.87,2.87,0,0,1,2.18-.69c1.54,0,2.08.37,2.44,1.63h.07V23.73h3.49Zm-5.58-3.86c0,1.05.35,1.56,1.07,1.56s1.06-.45,1.06-1.54-.29-1.33-1-1.33S37.68,26.83,37.68,27.72Z" fill="#fff"/><path d="M51,26.41H48.56v2.42c0,.74.2.92,1,.92a3,3,0,0,0,.76-.08l.43-.07-.08,2a15.2,15.2,0,0,1-2.72.28,3.43,3.43,0,0,1-2.33-.58c-.42-.39-.53-.74-.53-1.64V26.41H44V24.75a15.58,15.58,0,0,0,2.62-2.57h1.9v1.55H51Z" fill="#fff"/><path d="M61.54,31.58H57.87V28.86l-3-6.63h3.8l.7,1.92A9.43,9.43,0,0,1,59.72,26h.08a7.14,7.14,0,0,1,.3-1.88l.71-1.92h3.73l-3,6.63Z" fill="#fff"/><path d="M72.07,24.28a3.58,3.58,0,0,1,1.15,3.12c0,3.13-1.31,4.46-4.36,4.46-3.24,0-4.57-1.31-4.57-4.44A4.87,4.87,0,0,1,65,24.78c.67-.92,1.84-1.33,3.81-1.33A5,5,0,0,1,72.07,24.28Zm-4.46,3.3a3.51,3.51,0,0,0,.19,1.31,1.06,1.06,0,0,0,1,.53c.75,0,1.12-.52,1.12-1.6s-.3-1.58-1.11-1.58S67.61,26.6,67.61,27.58Z" fill="#fff"/><path d="M82.59,28.42A3.17,3.17,0,0,1,81.83,31a5.11,5.11,0,0,1-3.43,1,4.74,4.74,0,0,1-3.64-1.19,3.58,3.58,0,0,1-.56-2.32V23.73h3.49V28.8c0,.76.18,1,.71,1s.7-.27.7-1V23.73h3.49Z" fill="#fff"/><path d="M87,25.51h.08c.17-1.36.71-1.89,1.93-1.89a3.36,3.36,0,0,1,.76.07v3.63a4,4,0,0,0-.77-.07,1.75,1.75,0,0,0-1.44.54,1.19,1.19,0,0,0-.21.72,5.45,5.45,0,0,0-.07.73v2.34H83.87V23.73H87Z" fill="#fff"/><path d="M97.72,26.23a19,19,0,0,0-2.33-.16c-1.37,0-1.51,0-1.51.45s.18.48.77.48a12,12,0,0,1,2,.09c1,.17,1.43.79,1.43,2.05a2.38,2.38,0,0,1-1,2.24,5.64,5.64,0,0,1-2.72.48,19.23,19.23,0,0,1-3.67-.38v-2a26.94,26.94,0,0,0,3.09.17c.6,0,.78-.1.78-.45s-.13-.48-1.33-.48a4.47,4.47,0,0,1-1.7-.18c-.81-.27-1.17-1-1.17-2.28,0-2.05.92-2.72,3.72-2.72a24.66,24.66,0,0,1,3.65.31Z" fill="#fff"/><path d="M106.59,31.28a14.84,14.84,0,0,1-3.64.48c-2.94,0-4.18-1.29-4.18-4.36a3.88,3.88,0,0,1,1.13-3.21,4.8,4.8,0,0,1,3.09-.74,5.08,5.08,0,0,1,3.21.74c.76.61,1,1.5,1,3.23a7.13,7.13,0,0,1-.07,1.14h-5a1.14,1.14,0,0,0,.17.62,2.25,2.25,0,0,0,1.7.48,11.9,11.9,0,0,0,3-.45Zm-2.1-4.47c0-.88-.31-1.16-1.23-1.16s-1.17.34-1.19,1.16Z" fill="#fff"/><path d="M111.78,31.58H108.3V21.87h3.48Z" fill="#fff"/><path d="M119.21,27.89H117v3.69h-3.48V27.89h-.79V25.51l.79.06V24.05a2,2,0,0,1,.64-1.61,3.89,3.89,0,0,1,2.56-.57c.7,0,1.39,0,2.53.13v2.15a6.07,6.07,0,0,0-1.06-.1c-.85,0-1.19.26-1.19.86v.66l2.25-.06Z" fill="#fff"/><path d="M131.23,25.3h-4.09v1h4.09v2.62h-4.09v2.65h-3.51V22.23h7.6Z" fill="#fff"/><path d="M135.76,22.71c0,.52-.1.63-.62.62H132.9c-.52,0-.63-.1-.61-.62v-.35c0-.53.09-.63.61-.62h2.24c.52,0,.63.1.62.62Zm0,8.87h-3.41V23.52c.26.17.37.2,1.32.21h.77c.95,0,1.07,0,1.32-.21Z" fill="#fff"/><path d="M140.17,25.51h.08c.17-1.36.72-1.89,1.94-1.89a3.33,3.33,0,0,1,.75.07v3.63a4,4,0,0,0-.77-.07,1.78,1.78,0,0,0-1.44.54c-.13.19-.15.26-.21.72s-.07.59-.07.73v2.34H137V23.73h3.15Z" fill="#fff"/><path d="M150.86,26.23a18.86,18.86,0,0,0-2.32-.16c-1.38,0-1.52,0-1.52.45s.18.48.77.48a12.11,12.11,0,0,1,2,.09c1,.17,1.42.79,1.42,2.05a2.38,2.38,0,0,1-1,2.24,5.7,5.7,0,0,1-2.72.48,19.15,19.15,0,0,1-3.67-.38v-2a26.78,26.78,0,0,0,3.08.17c.6,0,.78-.1.78-.45s-.12-.48-1.33-.48a4.41,4.41,0,0,1-1.69-.18c-.81-.27-1.18-1-1.18-2.28,0-2.05.93-2.72,3.73-2.72a24.55,24.55,0,0,1,3.64.31Z" fill="#fff"/><path d="M158.59,26.41h-2.43v2.42c0,.74.19.92,1,.92a2.91,2.91,0,0,0,.75-.08l.44-.07-.09,2a15,15,0,0,1-2.72.28,3.4,3.4,0,0,1-2.32-.58c-.42-.39-.53-.74-.53-1.64V26.41h-1.07V24.75a15.21,15.21,0,0,0,2.62-2.57h1.91v1.55h2.43Z" fill="#fff"/><path d="M162.81,30.5c0,.77-.66,1.26-1.68,1.26s-1.68-.49-1.68-1.28.66-1.24,1.67-1.24S162.81,29.71,162.81,30.5Z" fill="#fff"/></g></g></svg>