<svg xmlns="http://www.w3.org/2000/svg" viewBox="0 0 300 600"><g id="Layer_2" data-name="Layer 2"><g id="rect"><rect width="300" height="600" fill="none"/></g><g id="The_power_to_make_a_rich_flavorful_latte_at_home" data-name="The power  to make  a rich,  flavorful  latte at home"><path d="M60.32,148.27h-7v17.55H43V148.27H36.17v-9.12H60.32Z" fill="#fff"/><path d="M72.28,145.55c0,.4,0,.68-.16,2h.28c.72-3.24,3-4.64,7.4-4.64,5.24,0,7.72,2.28,7.72,7.08v15.83h-10V154a4,4,0,0,0-.28-2.08,2.26,2.26,0,0,0-2.16-1.16,2.8,2.8,0,0,0-2.84,3.08v12H62.44V138.11h9.84Z" fill="#fff"/><path d="M112.44,165a42.91,42.91,0,0,1-10.39,1.36c-8.4,0-11.92-3.67-11.92-12.43,0-4.44,1-7.44,3.2-9.16,1.88-1.48,4.48-2.12,8.84-2.12,4.56,0,7.28.64,9.16,2.12,2.15,1.72,3,4.28,3,9.2a22.23,22.23,0,0,1-.2,3.28H99.89a3.07,3.07,0,0,0,.48,1.76c.6.84,2.4,1.36,4.84,1.36a33.94,33.94,0,0,0,8.47-1.28Zm-6-12.75c0-2.52-.88-3.32-3.52-3.32-2.36,0-3.32,1-3.4,3.32Z" fill="#fff"/><path d="M137.21,147.35h.28c.56-3.36,2.52-4.72,6.72-4.72,6.47,0,8.95,3.12,8.95,11.24,0,4.6-.64,7.4-2.12,9.52-1.36,1.87-3.87,3-7.07,3-3.8,0-5.64-1.19-6.48-4.23h-.28v9h-10V143.43h10Zm-.2,7.72c0,3,.88,4.28,3,4.28s3.12-1.4,3.12-4.76c0-2.36-1-3.52-3.08-3.52S137,152.27,137,155.07Z" fill="#fff"/><path d="M177.3,145c2.32,1.84,3.28,4.48,3.28,8.92,0,8.92-3.72,12.71-12.43,12.71-9.24,0-13-3.71-13-12.67a14,14,0,0,1,2-7.52c1.92-2.64,5.24-3.8,10.88-3.8C172.5,142.63,175.14,143.31,177.3,145Zm-12.71,9.44a10.51,10.51,0,0,0,.52,3.72,3.06,3.06,0,0,0,2.8,1.52c2.16,0,3.2-1.48,3.2-4.56,0-3.36-.84-4.52-3.16-4.52C165.47,150.59,164.59,151.63,164.59,154.43Z" fill="#fff"/><path d="M213.35,165.82H202.8L201,158.55a48.5,48.5,0,0,1-.88-5.36h-.16a39.22,39.22,0,0,1-.72,5.36l-1.8,7.27H186.6l-5.36-22.39h10.08l1.88,9.76a28.18,28.18,0,0,1,.48,4h.2l.24-2.12c.08-.88.2-1.72.24-1.92l1.88-9.76h7.52l1.92,9.76a26.22,26.22,0,0,1,.44,4h.24c.12-1,.24-2,.28-2.36a10.1,10.1,0,0,1,.2-1.68l1.91-9.76h9.88Z" fill="#fff"/><path d="M241.67,165a43,43,0,0,1-10.4,1.36c-8.39,0-11.91-3.67-11.91-12.43,0-4.44,1-7.44,3.19-9.16,1.88-1.48,4.48-2.12,8.84-2.12,4.56,0,7.28.64,9.16,2.12,2.16,1.72,3,4.28,3,9.2a22.23,22.23,0,0,1-.2,3.28H229.11a3.07,3.07,0,0,0,.48,1.76c.6.84,2.4,1.36,4.84,1.36a34.08,34.08,0,0,0,8.48-1.28Zm-6-12.75c0-2.52-.88-3.32-3.52-3.32-2.36,0-3.32,1-3.4,3.32Z" fill="#fff"/><path d="M255.33,148.51h.24c.48-3.88,2-5.4,5.52-5.4a10.34,10.34,0,0,1,2.16.2v10.36a12.65,12.65,0,0,0-2.2-.2,5,5,0,0,0-4.12,1.56,3.47,3.47,0,0,0-.6,2c-.12,1-.2,1.68-.2,2.08v6.67h-9.8V143.43h9Z" fill="#fff"/><path d="M78.68,191.88h-7v6.92c0,2.12.56,2.64,2.88,2.64a8.5,8.5,0,0,0,2.16-.24L78,201l-.24,5.64a41.51,41.51,0,0,1-7.76.8c-3.32,0-5.44-.52-6.64-1.64s-1.52-2.12-1.52-4.68v-9.24h-3v-4.72a43.5,43.5,0,0,0,7.48-7.36h5.44v4.44h7Z" fill="#fff"/><path d="M102.54,185.8c2.31,1.84,3.27,4.48,3.27,8.92,0,8.92-3.71,12.72-12.43,12.72-9.24,0-13-3.72-13-12.68a14,14,0,0,1,2-7.52c1.92-2.64,5.24-3.8,10.88-3.8C97.74,183.44,100.38,184.12,102.54,185.8Zm-12.72,9.44a10.51,10.51,0,0,0,.52,3.72,3.06,3.06,0,0,0,2.8,1.52c2.16,0,3.2-1.48,3.2-4.56,0-3.36-.84-4.52-3.16-4.52C90.7,191.4,89.82,192.44,89.82,195.24Z" fill="#fff"/><path d="M128,188h.2c.8-3.24,3-4.56,7.36-4.56,4.63,0,6.43,1.36,6.83,5.12h.24c.36-1.88.8-2.8,1.84-3.64a8.73,8.73,0,0,1,5.44-1.48c3.24,0,5.4.84,6.44,2.52a12.1,12.1,0,0,1,1,4.64v16h-10V194.48c0-2.12-.64-3-2.12-3s-2.2.84-2.2,2.56v12.6h-10V194.32c0-2-.6-2.8-2.08-2.8s-2.32.88-2.32,2.52v12.6h-10v-22.4H128Z" fill="#fff"/><path d="M186.24,206.64h-10v-3.72h-.2c-1.2,3.28-2.76,4.24-6.68,4.24-3.24,0-5.52-.88-6.8-2.64-1.6-2.2-2.36-5.44-2.36-10.08,0-4.36.84-7.2,2.64-9,1.36-1.36,3.32-2,6.24-2,4.4,0,5.92,1,7,4.64h.2v-3.84h10Zm-15.92-11c0,3,1,4.44,3,4.44s3-1.28,3-4.4c0-2.72-.84-3.8-2.92-3.8S170.32,193.08,170.32,195.64Z" fill="#fff"/><path d="M199.44,191.44c0,.16,0,.6,0,1.24,0,.16,0,.72-.08,1.32h.32c.36-1,.52-1.36.76-1.88l3.68-7.88h10.83l-6.52,11.24,5.72,11.16h-10l-3.64-7.16c-.32-.88-.56-1.4-.8-2.12h-.32q.12,1.74.12,2.28v7h-9.72V178.92h9.72Z" fill="#fff"/><path d="M237.21,205.8a43,43,0,0,1-10.4,1.36c-8.4,0-11.92-3.68-11.92-12.44,0-4.44,1-7.44,3.2-9.16,1.88-1.48,4.48-2.12,8.84-2.12,4.56,0,7.28.64,9.16,2.12,2.16,1.72,3,4.28,3,9.2a22.23,22.23,0,0,1-.2,3.28H224.65a3.07,3.07,0,0,0,.48,1.76c.6.84,2.4,1.36,4.84,1.36a34.08,34.08,0,0,0,8.48-1.28Zm-6-12.76c0-2.52-.88-3.32-3.52-3.32-2.36,0-3.32,1-3.4,3.32Z" fill="#fff"/><path d="M108.92,247.45H99v-3.72h-.2C97.56,247,96,248,92.08,248c-3.24,0-5.52-.88-6.8-2.64-1.6-2.2-2.36-5.44-2.36-10.08,0-4.36.84-7.2,2.64-9,1.36-1.36,3.32-2,6.24-2,4.4,0,5.92,1,7,4.64H99v-3.84h10ZM93,236.45c0,3,1,4.44,3,4.44s3-1.28,3-4.4c0-2.72-.84-3.8-2.92-3.8S93,233.89,93,236.45Z" fill="#fff"/><path d="M131.68,230.13h.24c.48-3.88,2-5.4,5.52-5.4a10.34,10.34,0,0,1,2.16.2v10.36a12.65,12.65,0,0,0-2.2-.2,5,5,0,0,0-4.12,1.56,3.47,3.47,0,0,0-.6,2c-.12,1-.2,1.68-.2,2.08v6.68h-9.8v-22.4h9Z" fill="#fff"/><path d="M151.28,222.13c0,1.48-.28,1.8-1.76,1.76h-6.4c-1.48,0-1.8-.28-1.76-1.76v-1c0-1.52.28-1.8,1.76-1.76h6.4c1.48,0,1.8.28,1.76,1.76Zm-.12,25.32h-9.72v-23c.72.48,1,.56,3.76.6h2.2c2.72,0,3-.12,3.76-.6Z" fill="#fff"/><path d="M174.43,246.41a21.68,21.68,0,0,1-9.2,1.6c-4.12,0-6.64-.8-8.48-2.64-2-2-3-5.44-3-9.76,0-7.8,3.72-11.36,11.8-11.36,3,0,4.88.36,8.92,1.68v8.16a22.37,22.37,0,0,0-6.32-.92c-3,0-4.32,1.08-4.32,3.6,0,2.76,1.28,3.8,4.76,3.8a19,19,0,0,0,5.88-1Z" fill="#fff"/><path d="M187.46,227.17c0,.4,0,.68-.16,2h.28c.72-3.24,3-4.64,7.4-4.64,5.24,0,7.72,2.28,7.72,7.08v15.84h-10V235.61a4,4,0,0,0-.28-2.08,2.26,2.26,0,0,0-2.16-1.16,2.8,2.8,0,0,0-2.84,3.08v12h-9.83V219.73h9.83Z" fill="#fff"/><path d="M210.65,253.17h-5.88l2.48-11.52h8.32Z" fill="#fff"/><path d="M71.1,277.74H64.7v10.52h-10V277.74H52.5v-6.8l2.24.16v-4.32a5.69,5.69,0,0,1,1.84-4.6c1.32-1.16,3.52-1.64,7.32-1.64,2,0,4,.12,7.2.36v6.16a17.08,17.08,0,0,0-3-.28c-2.44,0-3.4.72-3.4,2.44v1.88l6.4-.16Z" fill="#fff"/><path d="M83.37,288.26h-10V260.54h10Z" fill="#fff"/><path d="M112.2,288.26h-10v-3.72H102c-1.2,3.28-2.76,4.24-6.68,4.24-3.24,0-5.52-.88-6.8-2.64-1.6-2.2-2.35-5.44-2.35-10.08,0-4.36.83-7.2,2.63-9,1.36-1.36,3.32-2,6.24-2,4.4,0,5.92,1,7,4.64h.2v-3.84h10Zm-15.92-11c0,3,1,4.44,3,4.44s3-1.28,3-4.4c0-2.72-.84-3.8-2.92-3.8S96.28,274.7,96.28,277.26Z" fill="#fff"/><path d="M133.5,288.26H120.74l-6.6-22.4h10l2,7.12c.32,1.16.4,1.76.92,6.56h.24c.32-4,.44-5.2.84-6.56l1.92-7.12h9.88Z" fill="#fff"/><path d="M162.6,267.42c2.32,1.84,3.28,4.48,3.28,8.92,0,8.92-3.72,12.72-12.44,12.72-9.24,0-13-3.72-13-12.68a14,14,0,0,1,2-7.52c1.92-2.64,5.24-3.8,10.88-3.8C157.8,265.06,160.44,265.74,162.6,267.42Zm-12.72,9.44a10.51,10.51,0,0,0,.52,3.72,3.06,3.06,0,0,0,2.8,1.52c2.16,0,3.2-1.48,3.2-4.56,0-3.36-.84-4.52-3.16-4.52C150.76,273,149.88,274.06,149.88,276.86Z" fill="#fff"/><path d="M177.57,270.94h.24c.48-3.88,2-5.4,5.52-5.4a10.34,10.34,0,0,1,2.16.2V276.1a12.65,12.65,0,0,0-2.2-.2,5,5,0,0,0-4.12,1.56,3.47,3.47,0,0,0-.6,2c-.12,1-.2,1.68-.2,2.08v6.68h-9.8v-22.4h9Z" fill="#fff"/><path d="M205.17,277.74h-6.4v10.52h-10V277.74h-2.24v-6.8l2.24.16v-4.32a5.69,5.69,0,0,1,1.84-4.6c1.32-1.16,3.52-1.64,7.32-1.64,2,0,4,.12,7.2.36v6.16a17.16,17.16,0,0,0-3-.28c-2.44,0-3.4.72-3.4,2.44v1.88l6.4-.16Z" fill="#fff"/><path d="M231.23,279.26c0,3.72-.64,5.76-2.16,7.2-2,1.84-5.4,2.8-9.8,2.8-4.88,0-8.47-1.2-10.39-3.4-1.08-1.24-1.6-3.4-1.6-6.6v-13.4h9.95v14.48c0,2.16.52,2.92,2,2.92s2-.76,2-2.92V265.86h10Z" fill="#fff"/><path d="M244.63,288.26h-9.95V260.54h9.95Z" fill="#fff"/><path d="M80.85,329.07h-10V301.36h10Z" fill="#fff"/><path d="M109.68,329.07h-10v-3.72h-.2c-1.2,3.28-2.76,4.24-6.68,4.24-3.24,0-5.52-.88-6.8-2.64-1.6-2.2-2.36-5.44-2.36-10.08,0-4.36.84-7.2,2.64-9,1.36-1.36,3.32-1.95,6.24-1.95,4.4,0,5.92,1,7,4.63h.2v-3.84h10Zm-15.92-11c0,3,1,4.44,3,4.44s3-1.28,3-4.4c0-2.72-.84-3.8-2.92-3.8S93.76,315.51,93.76,318.07Z" fill="#fff"/><path d="M131.54,314.31h-7v6.92c0,2.12.56,2.64,2.88,2.64a8.5,8.5,0,0,0,2.16-.24l1.24-.2-.24,5.64a41.51,41.51,0,0,1-7.76.8c-3.32,0-5.44-.52-6.64-1.64s-1.52-2.12-1.52-4.68v-9.24h-3v-4.72a43.09,43.09,0,0,0,7.48-7.35h5.44v4.43h7Z" fill="#fff"/><path d="M152.79,314.31h-6.95v6.92c0,2.12.56,2.64,2.88,2.64a8.5,8.5,0,0,0,2.16-.24l1.24-.2-.24,5.64a41.51,41.51,0,0,1-7.76.8c-3.32,0-5.44-.52-6.64-1.64s-1.52-2.12-1.52-4.68v-9.24h-3v-4.72a43.09,43.09,0,0,0,7.48-7.35h5.44v4.43h6.95Z" fill="#fff"/><path d="M176.79,328.23a43,43,0,0,1-10.4,1.36c-8.4,0-11.92-3.68-11.92-12.44,0-4.44,1-7.44,3.2-9.15,1.88-1.49,4.48-2.12,8.84-2.12,4.56,0,7.28.63,9.16,2.12,2.16,1.71,3,4.27,3,9.19a22.23,22.23,0,0,1-.2,3.28H164.23a3.07,3.07,0,0,0,.48,1.76c.6.84,2.4,1.36,4.84,1.36a34.08,34.08,0,0,0,8.48-1.28Zm-6-12.76c0-2.52-.88-3.32-3.52-3.32-2.36,0-3.32,1-3.4,3.32Z" fill="#fff"/><path d="M216.91,329.07H207v-3.72h-.2c-1.2,3.28-2.76,4.24-6.68,4.24-3.24,0-5.52-.88-6.8-2.64-1.6-2.2-2.36-5.44-2.36-10.08,0-4.36.84-7.2,2.64-9,1.36-1.36,3.32-1.95,6.24-1.95,4.4,0,5.92,1,7,4.63h.2v-3.84h10Zm-15.92-11c0,3,1,4.44,3,4.44s3-1.28,3-4.4c0-2.72-.84-3.8-2.92-3.8S201,315.51,201,318.07Z" fill="#fff"/><path d="M238.77,314.31h-7v6.92c0,2.12.56,2.64,2.88,2.64a8.5,8.5,0,0,0,2.16-.24l1.24-.2-.24,5.64a41.51,41.51,0,0,1-7.76.8c-3.32,0-5.44-.52-6.64-1.64s-1.52-2.12-1.52-4.68v-9.24h-3v-4.72a43.09,43.09,0,0,0,7.48-7.35h5.44v4.43h7Z" fill="#fff"/><path d="M103.9,349.61c0,.4,0,.68-.16,2H104c.72-3.24,3-4.64,7.39-4.64,5.24,0,7.72,2.28,7.72,7.08v15.83h-10V358a4,4,0,0,0-.28-2.08,2.27,2.27,0,0,0-2.16-1.15,2.79,2.79,0,0,0-2.83,3.07v12H94.06V342.17h9.84Z" fill="#fff"/><path d="M143.94,349.05c2.32,1.84,3.28,4.48,3.28,8.91,0,8.92-3.72,12.72-12.44,12.72-9.24,0-13-3.72-13-12.68a14,14,0,0,1,2-7.51c1.92-2.64,5.24-3.8,10.88-3.8C139.14,346.69,141.78,347.37,143.94,349.05Zm-12.72,9.43a10.51,10.51,0,0,0,.52,3.72,3.06,3.06,0,0,0,2.8,1.52c2.16,0,3.2-1.48,3.2-4.55,0-3.37-.84-4.52-3.16-4.52C132.1,354.65,131.22,355.69,131.22,358.48Z" fill="#fff"/><path d="M159.15,351.25h.2c.8-3.24,3-4.56,7.36-4.56,4.64,0,6.44,1.36,6.84,5.12h.24c.36-1.88.8-2.8,1.84-3.64a8.73,8.73,0,0,1,5.44-1.48c3.24,0,5.4.84,6.44,2.52a12.1,12.1,0,0,1,1,4.64v16h-10V357.72c0-2.11-.64-3-2.12-3s-2.2.84-2.2,2.56v12.59h-10V357.56c0-2-.6-2.79-2.08-2.79s-2.32.88-2.32,2.52v12.59h-10V347.49h9.24Z" fill="#fff"/><path d="M213.52,369a43,43,0,0,1-10.4,1.36c-8.4,0-11.92-3.68-11.92-12.44,0-4.43,1-7.43,3.2-9.15,1.88-1.48,4.48-2.12,8.84-2.12,4.56,0,7.28.64,9.16,2.12,2.16,1.72,3,4.28,3,9.19a22.23,22.23,0,0,1-.2,3.28H201a3.07,3.07,0,0,0,.48,1.76c.6.84,2.4,1.36,4.84,1.36a34.08,34.08,0,0,0,8.48-1.28Zm-6-12.75c0-2.52-.88-3.32-3.52-3.32-2.36,0-3.32,1-3.4,3.32Z" fill="#fff"/></g></g></svg>