<svg xmlns="http://www.w3.org/2000/svg" viewBox="0 0 300 600"><g id="Layer_2" data-name="Layer 2"><g id="rect"><rect width="300" height="600" fill="none"/></g><g id="Enjoy_a_café-style_latte_in_just_one_step" data-name="Enjoy a  café-style  latte in  just one step"><path d="M92.65,148.07H80.49v3H92.65v6H80.49v2.92H92.65v6.75h-22V140.15h22Z" fill="#fff"/><path d="M105.32,148.39h.24c.72-3.12,3-4.48,7.52-4.48,3.16,0,5.36.76,6.76,2.24a7.85,7.85,0,0,1,1.4,5v15.67h-10V155.11c0-2,0-2.08-.44-2.56a2.38,2.38,0,0,0-2-.84,2.64,2.64,0,0,0-2.88,2.92v12.19H96.16V144.43h9.16Z" fill="#fff"/><path d="M135,163.91c0,4.27-.52,5.91-2.16,7-1.36.88-3.2,1.24-6.52,1.24a32,32,0,0,1-3.64-.16v-5.36c.32,0,.68.08.84.08a1.79,1.79,0,0,0,1.56-.64c.16-.28.2-.39.24-1.56V143.83c.72.48,1,.56,3.72.6h2.24c2.84-.08,3.2-.12,3.72-.6Zm.08-22.4c0,1.48-.28,1.8-1.8,1.76H127c-1.52,0-1.84-.24-1.8-1.76v-1c0-1.48.28-1.8,1.8-1.76h6.24c1.52,0,1.84.28,1.8,1.76Z" fill="#fff"/><path d="M159.81,146c2.32,1.84,3.28,4.48,3.28,8.92,0,8.92-3.71,12.71-12.43,12.71-9.24,0-13-3.71-13-12.67a14,14,0,0,1,2-7.52c1.92-2.64,5.24-3.8,10.88-3.8C155,143.63,157.66,144.31,159.81,146Zm-12.71,9.44a10.51,10.51,0,0,0,.52,3.72,3.06,3.06,0,0,0,2.8,1.52c2.16,0,3.2-1.48,3.2-4.56,0-3.36-.84-4.52-3.16-4.52C148,151.59,147.1,152.63,147.1,155.43Z" fill="#fff"/><path d="M172.28,166.1v-.24c-1.64-.55-2.56-1.63-3.24-3.83l-5.48-17.6h9.68l1.76,6.64a38.29,38.29,0,0,1,.76,7H176a38.73,38.73,0,0,1,.84-6.88l1.68-6.8h10l-6.8,20.8c-1.88,5.59-3.28,6.79-8.12,6.91h-6.84l-.44-6Z" fill="#fff"/><path d="M226.12,166.82h-10v-3.71H216c-1.2,3.27-2.76,4.23-6.68,4.23-3.24,0-5.52-.88-6.8-2.63-1.6-2.2-2.36-5.44-2.36-10.08,0-4.36.84-7.2,2.64-9,1.36-1.36,3.32-2,6.24-2,4.4,0,5.92,1,7,4.64h.2v-3.84h10Zm-15.92-11c0,3,1,4.44,3,4.44s3-1.28,3-4.4c0-2.72-.84-3.8-2.92-3.8S210.2,153.27,210.2,155.83Z" fill="#fff"/><path d="M59.87,206.6a21.68,21.68,0,0,1-9.2,1.6c-4.12,0-6.64-.8-8.48-2.64-2-2-3-5.44-3-9.76,0-7.8,3.72-11.36,11.8-11.36,3,0,4.88.36,8.92,1.68v8.16a22.37,22.37,0,0,0-6.32-.92c-3,0-4.32,1.08-4.32,3.6,0,2.76,1.28,3.8,4.76,3.8a19,19,0,0,0,5.88-1Z" fill="#fff"/><path d="M88.24,207.64h-10v-3.72h-.2c-1.2,3.28-2.76,4.24-6.68,4.24-3.24,0-5.52-.88-6.8-2.64-1.6-2.2-2.36-5.44-2.36-10.08,0-4.36.84-7.2,2.64-9,1.36-1.36,3.32-2,6.24-2,4.4,0,5.92,1,7,4.64h.2v-3.84h10Zm-15.92-11c0,3,1,4.44,3,4.44s3-1.28,3-4.4c0-2.72-.84-3.8-2.92-3.8S72.32,194.08,72.32,196.64Z" fill="#fff"/><path d="M109.2,197.12h-6.4v10.52h-10V197.12H90.6v-6.8l2.24.16v-4.32a5.69,5.69,0,0,1,1.84-4.6c1.32-1.16,3.52-1.64,7.32-1.64,2,0,4,.12,7.2.36v6.16a17.08,17.08,0,0,0-3-.28c-2.44,0-3.4.72-3.4,2.44v1.88l6.4-.16Z" fill="#fff"/><path d="M133.17,206.8a43,43,0,0,1-10.4,1.36c-8.4,0-11.92-3.68-11.92-12.44,0-4.44,1-7.44,3.2-9.16,1.88-1.48,4.48-2.12,8.84-2.12,4.56,0,7.28.64,9.16,2.12,2.16,1.72,3,4.28,3,9.2a22.23,22.23,0,0,1-.2,3.28H120.61a3.07,3.07,0,0,0,.48,1.76c.6.84,2.4,1.36,4.84,1.36a34.08,34.08,0,0,0,8.48-1.28Zm-2.48-29.44-5.12,5.2h-6.24l3.8-5.2ZM127.17,194c0-2.52-.88-3.32-3.52-3.32-2.36,0-3.32,1-3.4,3.32Z" fill="#fff"/><path d="M147.72,192.36v7.12h-10.6v-7.12Z" fill="#fff"/><path d="M170.52,192.36a54.94,54.94,0,0,0-6.64-.44c-3.92,0-4.32.12-4.32,1.28s.52,1.36,2.2,1.36a32.42,32.42,0,0,1,5.72.28c2.84.48,4.08,2.24,4.08,5.84,0,3.12-1,5.28-2.88,6.4-1.44.88-4.12,1.36-7.76,1.36a54.23,54.23,0,0,1-10.48-1.08v-5.68a79.07,79.07,0,0,0,8.8.48c1.72,0,2.24-.28,2.24-1.28,0-1.24-.36-1.36-3.8-1.36-2.64,0-3.6-.08-4.84-.52-2.32-.76-3.36-2.8-3.36-6.52,0-5.84,2.64-7.76,10.64-7.76a70.71,70.71,0,0,1,10.4.88Z" fill="#fff"/><path d="M192.35,192.88h-7v6.92c0,2.12.56,2.64,2.88,2.64a8.5,8.5,0,0,0,2.16-.24l1.24-.2-.24,5.64a41.51,41.51,0,0,1-7.76.8c-3.32,0-5.43-.52-6.63-1.64s-1.52-2.12-1.52-4.68v-9.24h-3v-4.72A43.5,43.5,0,0,0,180,180.8h5.43v4.44h7Z" fill="#fff"/><path d="M202.49,206.92v-.24c-1.64-.56-2.56-1.64-3.24-3.84l-5.48-17.6h9.68l1.76,6.64a38.29,38.29,0,0,1,.76,7h.28a38.73,38.73,0,0,1,.84-6.88l1.68-6.8h10l-6.8,20.8c-1.88,5.6-3.28,6.8-8.12,6.92H197l-.44-6Z" fill="#fff"/><path d="M230.62,207.64h-10V179.92h10Z" fill="#fff"/><path d="M255.62,206.8a43,43,0,0,1-10.4,1.36c-8.4,0-11.92-3.68-11.92-12.44,0-4.44,1-7.44,3.2-9.16,1.88-1.48,4.48-2.12,8.84-2.12,4.56,0,7.28.64,9.16,2.12,2.16,1.72,3,4.28,3,9.2a22.23,22.23,0,0,1-.2,3.28H243.06a3.07,3.07,0,0,0,.48,1.76c.6.84,2.4,1.36,4.84,1.36a34.08,34.08,0,0,0,8.48-1.28Zm-6-12.76c0-2.52-.88-3.32-3.52-3.32-2.36,0-3.32,1-3.4,3.32Z" fill="#fff"/><path d="M78.72,248.45h-10V220.73h10Z" fill="#fff"/><path d="M107.56,248.45h-10v-3.72h-.2C96.2,248,94.64,249,90.72,249c-3.24,0-5.52-.88-6.8-2.64-1.6-2.2-2.36-5.44-2.36-10.08,0-4.36.84-7.2,2.64-9,1.36-1.36,3.32-2,6.24-2,4.4,0,5.92,1,7,4.64h.2v-3.84h10Zm-15.92-11c0,3,1,4.44,3,4.44s3-1.28,3-4.4c0-2.72-.84-3.8-2.92-3.8S91.64,234.89,91.64,237.45Z" fill="#fff"/><path d="M129.41,233.69h-7v6.92c0,2.12.56,2.64,2.87,2.64a8.5,8.5,0,0,0,2.16-.24l1.24-.2-.24,5.64a41.5,41.5,0,0,1-7.75.8c-3.32,0-5.44-.52-6.64-1.64s-1.52-2.12-1.52-4.68v-9.24h-3V229a43.5,43.5,0,0,0,7.48-7.36h5.44v4.44h7Z" fill="#fff"/><path d="M150.67,233.69h-7v6.92c0,2.12.56,2.64,2.88,2.64a8.5,8.5,0,0,0,2.16-.24l1.24-.2-.24,5.64a41.51,41.51,0,0,1-7.76.8c-3.31,0-5.43-.52-6.63-1.64s-1.52-2.12-1.52-4.68v-9.24h-3V229a43.5,43.5,0,0,0,7.48-7.36h5.43v4.44h7Z" fill="#fff"/><path d="M174.67,247.61a43,43,0,0,1-10.4,1.36c-8.4,0-11.92-3.68-11.92-12.44,0-4.44,1-7.44,3.2-9.16,1.88-1.48,4.48-2.12,8.84-2.12,4.56,0,7.28.64,9.16,2.12,2.16,1.72,3,4.28,3,9.2a22.23,22.23,0,0,1-.2,3.28H162.11a3.07,3.07,0,0,0,.48,1.76c.6.84,2.4,1.36,4.84,1.36a34.08,34.08,0,0,0,8.48-1.28Zm-6-12.76c0-2.52-.88-3.32-3.52-3.32-2.36,0-3.32,1-3.4,3.32Z" fill="#fff"/><path d="M199.43,223.13c0,1.48-.28,1.8-1.76,1.76h-6.4c-1.48,0-1.8-.28-1.76-1.76v-1c0-1.52.28-1.8,1.76-1.76h6.4c1.48,0,1.8.28,1.76,1.76Zm-.12,25.32h-9.72v-23c.72.48,1,.56,3.76.6h2.2c2.72,0,3-.12,3.76-.6Z" fill="#fff"/><path d="M211.93,230h.24c.72-3.12,3-4.48,7.52-4.48,3.16,0,5.36.76,6.76,2.24a7.85,7.85,0,0,1,1.4,5v15.68h-10V236.73c0-2,0-2.08-.44-2.56a2.38,2.38,0,0,0-2-.84,2.64,2.64,0,0,0-2.88,2.92v12.2h-9.76v-22.4h9.16Z" fill="#fff"/><path d="M76.23,286.34c0,4.28-.52,5.92-2.16,7-1.36.88-3.2,1.24-6.52,1.24a32,32,0,0,1-3.64-.16v-5.36c.32,0,.68.08.84.08a1.79,1.79,0,0,0,1.56-.64c.16-.28.2-.4.24-1.56V266.26c.72.48,1,.56,3.72.6h2.24c2.84-.08,3.2-.12,3.72-.6Zm.08-22.4c0,1.48-.28,1.8-1.8,1.76H68.27c-1.52,0-1.84-.24-1.8-1.76v-1c0-1.48.28-1.8,1.8-1.76h6.24c1.52,0,1.84.28,1.8,1.76Z" fill="#fff"/><path d="M103.55,280.26c0,3.72-.64,5.76-2.16,7.2-2,1.84-5.4,2.8-9.8,2.8-4.88,0-8.48-1.2-10.4-3.4-1.08-1.24-1.59-3.4-1.59-6.6v-13.4h10v14.48c0,2.16.52,2.92,2,2.92s2-.76,2-2.92V266.86h10Z" fill="#fff"/><path d="M127.16,274a54.94,54.94,0,0,0-6.64-.44c-3.92,0-4.32.12-4.32,1.28s.52,1.36,2.2,1.36a32.42,32.42,0,0,1,5.72.28c2.84.48,4.08,2.24,4.08,5.84,0,3.12-1,5.28-2.88,6.4-1.44.88-4.12,1.36-7.76,1.36A54.23,54.23,0,0,1,107.08,289V283.3a79.07,79.07,0,0,0,8.8.48c1.72,0,2.24-.28,2.24-1.28,0-1.24-.36-1.36-3.8-1.36-2.64,0-3.6-.08-4.84-.52-2.32-.76-3.36-2.8-3.36-6.52,0-5.84,2.64-7.76,10.64-7.76a70.71,70.71,0,0,1,10.4.88Z" fill="#fff"/><path d="M149,274.5h-7v6.92c0,2.12.56,2.64,2.88,2.64a8.5,8.5,0,0,0,2.16-.24l1.24-.2-.24,5.64a41.51,41.51,0,0,1-7.76.8c-3.32,0-5.44-.52-6.64-1.64s-1.52-2.12-1.52-4.68V274.5h-3v-4.72a43.5,43.5,0,0,0,7.48-7.36H142v4.44h7Z" fill="#fff"/><path d="M183.11,268.42c2.32,1.84,3.28,4.48,3.28,8.92,0,8.92-3.72,12.72-12.44,12.72-9.24,0-13-3.72-13-12.68a14,14,0,0,1,2-7.52c1.92-2.64,5.24-3.8,10.88-3.8C178.31,266.06,181,266.74,183.11,268.42Zm-12.72,9.44a10.51,10.51,0,0,0,.52,3.72,3.06,3.06,0,0,0,2.8,1.52c2.16,0,3.2-1.48,3.2-4.56,0-3.36-.84-4.52-3.16-4.52C171.27,274,170.39,275.06,170.39,277.86Z" fill="#fff"/><path d="M198.24,270.82h.24c.72-3.12,3-4.48,7.52-4.48,3.16,0,5.36.76,6.76,2.24a7.85,7.85,0,0,1,1.4,5v15.68h-10V277.54c0-2,0-2.08-.44-2.56a2.38,2.38,0,0,0-2-.84,2.64,2.64,0,0,0-2.88,2.92v12.2h-9.76v-22.4h9.16Z" fill="#fff"/><path d="M239.11,288.42a43,43,0,0,1-10.4,1.36c-8.4,0-11.92-3.68-11.92-12.44,0-4.44,1-7.44,3.2-9.16,1.88-1.48,4.48-2.12,8.84-2.12,4.56,0,7.28.64,9.16,2.12,2.16,1.72,3,4.28,3,9.2a22.23,22.23,0,0,1-.2,3.28H226.55a3.07,3.07,0,0,0,.48,1.76c.6.84,2.4,1.36,4.84,1.36a34.08,34.08,0,0,0,8.48-1.28Zm-6-12.76c0-2.52-.88-3.32-3.52-3.32-2.36,0-3.32,1-3.4,3.32Z" fill="#fff"/><path d="M125.58,314.79a54.94,54.94,0,0,0-6.64-.44c-3.91,0-4.31.12-4.31,1.28s.52,1.36,2.2,1.36a32.35,32.35,0,0,1,5.71.28c2.84.48,4.08,2.24,4.08,5.84,0,3.12-1,5.28-2.88,6.4-1.44.88-4.12,1.36-7.75,1.36a54.23,54.23,0,0,1-10.48-1.08v-5.68a79.07,79.07,0,0,0,8.8.48c1.72,0,2.24-.28,2.24-1.28,0-1.24-.36-1.36-3.8-1.36-2.64,0-3.6-.08-4.84-.52-2.32-.76-3.36-2.8-3.36-6.52,0-5.83,2.64-7.75,10.64-7.75a70.7,70.7,0,0,1,10.39.88Z" fill="#fff"/><path d="M147.42,315.31h-7v6.92c0,2.12.56,2.64,2.88,2.64a8.5,8.5,0,0,0,2.16-.24l1.24-.2-.24,5.64a41.51,41.51,0,0,1-7.76.8c-3.32,0-5.44-.52-6.64-1.64s-1.52-2.12-1.52-4.68v-9.24h-3v-4.72a43.09,43.09,0,0,0,7.48-7.35h5.44v4.43h7Z" fill="#fff"/><path d="M171.41,329.23a43,43,0,0,1-10.4,1.36c-8.4,0-11.92-3.68-11.92-12.44,0-4.44,1-7.44,3.2-9.15,1.88-1.49,4.48-2.12,8.84-2.12,4.56,0,7.28.63,9.16,2.12,2.16,1.71,3,4.27,3,9.19a22.23,22.23,0,0,1-.2,3.28H158.85a3.07,3.07,0,0,0,.48,1.76c.6.84,2.4,1.36,4.84,1.36a34.08,34.08,0,0,0,8.48-1.28Zm-6-12.76c0-2.52-.88-3.32-3.52-3.32-2.36,0-3.32,1-3.4,3.32Z" fill="#fff"/><path d="M186,311.59h.28c.56-3.35,2.52-4.71,6.72-4.71,6.48,0,9,3.12,9,11.23,0,4.6-.64,7.4-2.12,9.52-1.36,1.88-3.88,3-7.08,3-3.8,0-5.64-1.2-6.48-4.24H186v9h-10V307.67h10Zm-.2,7.72c0,3,.88,4.28,3,4.28s3.12-1.4,3.12-4.76c0-2.36-1-3.52-3.08-3.52S185.83,316.51,185.83,319.31Z" fill="#fff"/></g></g></svg>