<svg xmlns="http://www.w3.org/2000/svg" viewBox="0 0 728 90"><g id="Layer_2" data-name="Layer 2"><g id="cta"><rect x="585.37" y="29.5" width="119.27" height="31" rx="15.5" fill="#027261"/><path d="M610.34,43.3a24.84,24.84,0,0,0-3.27-.29c-1.22,0-1.65.18-1.65.69s.32.66,1,.66h.51a5.5,5.5,0,0,1,2.61.39,2.75,2.75,0,0,1,1.12,2.58c0,2.58-1.3,3.63-4.49,3.63a30,30,0,0,1-4.53-.41V47.79a19.18,19.18,0,0,0,3.22.26c1.3,0,1.59-.13,1.59-.65s-.24-.64-.93-.64a8.49,8.49,0,0,1-2.57-.2c-1.12-.31-1.72-1.48-1.72-3.3,0-2.7,1.31-3.69,4.93-3.69a18.81,18.81,0,0,1,4.19.48Z" fill="#fff"/><path d="M615.89,42.42c0,.16,0,.28-.06.82h.11c.3-1.33,1.22-1.91,3-1.91,2.16,0,3.18.94,3.18,2.91v6.51h-4.1V45.88A1.65,1.65,0,0,0,618,45a.93.93,0,0,0-.89-.48,1.15,1.15,0,0,0-1.17,1.27v4.93h-4V39.36h4Z" fill="#fff"/><path d="M632.44,42.19c.95.75,1.35,1.84,1.35,3.66,0,3.67-1.53,5.23-5.11,5.23-3.8,0-5.36-1.53-5.36-5.21a5.81,5.81,0,0,1,.8-3.09c.79-1.09,2.16-1.56,4.47-1.56A5.82,5.82,0,0,1,632.44,42.19Zm-5.23,3.88a4.28,4.28,0,0,0,.22,1.52,1.25,1.25,0,0,0,1.15.63c.88,0,1.31-.61,1.31-1.87s-.34-1.86-1.3-1.86S627.21,44.92,627.21,46.07Z" fill="#fff"/><path d="M639.07,43.16h.12c.23-1.38,1-1.94,2.76-1.94,2.66,0,3.68,1.28,3.68,4.62a6.54,6.54,0,0,1-.87,3.91A3.46,3.46,0,0,1,641.85,51c-1.56,0-2.32-.49-2.66-1.74h-.12v3.72H635V41.55h4.09ZM639,46.33c0,1.23.36,1.76,1.22,1.76s1.28-.58,1.28-2c0-1-.41-1.44-1.27-1.44S639,45.18,639,46.33Z" fill="#fff"/><path d="M661.87,50.75H657.6l-2.48-5.11a3.28,3.28,0,0,1-.23-.59h-.1a8,8,0,0,1,.1,1v4.7H651v-11h4.77l1.63,3.37a14.24,14.24,0,0,1,.59,1.57h.08A7.72,7.72,0,0,1,658,43.6V39.79h3.89Z" fill="#fff"/><path d="M672.22,42.19c.95.75,1.34,1.84,1.34,3.66,0,3.67-1.53,5.23-5.11,5.23-3.79,0-5.36-1.53-5.36-5.21a5.72,5.72,0,0,1,.81-3.09c.79-1.09,2.15-1.56,4.47-1.56A5.84,5.84,0,0,1,672.22,42.19ZM667,46.07a4.32,4.32,0,0,0,.21,1.52,1.25,1.25,0,0,0,1.15.63c.89,0,1.32-.61,1.32-1.87s-.35-1.86-1.3-1.86S667,44.92,667,46.07Z" fill="#fff"/><path d="M687.13,50.75h-4.34l-.76-3a21.76,21.76,0,0,1-.36-2.2h-.06a17.25,17.25,0,0,1-.3,2.2l-.74,3h-4.44l-2.2-9.2h4.14l.78,4a11.17,11.17,0,0,1,.19,1.66h.08l.1-.87c0-.37.09-.71.1-.79l.77-4h3.09l.79,4a10.68,10.68,0,0,1,.18,1.66h.1c0-.43.1-.84.12-1a3.25,3.25,0,0,1,.08-.69l.79-4h4.06Z" fill="#fff"/></g><g id="rect"><rect width="728" height="90" fill="none"/></g></g></svg>