<svg xmlns="http://www.w3.org/2000/svg" viewBox="0 0 728 90"><g id="Layer_2" data-name="Layer 2"><g id="rect"><rect width="728" height="90" fill="none"/></g><g id="Treat_Yourself_First." data-name="Treat Yourself First."><path d="M34.12,39.66H28.9V52.83H21.1V39.66H16V32.82H34.12Z" fill="#fff"/><path d="M42.53,39.84h.18c.36-2.91,1.53-4.05,4.14-4.05a7.76,7.76,0,0,1,1.62.15v7.77a9.49,9.49,0,0,0-1.65-.15,3.78,3.78,0,0,0-3.09,1.17,2.6,2.6,0,0,0-.45,1.53c-.09.72-.15,1.26-.15,1.56v5H35.78V36h6.75Z" fill="#fff"/><path d="M66.33,52.2a32.2,32.2,0,0,1-7.8,1c-6.3,0-8.94-2.75-8.94-9.32,0-3.33.78-5.58,2.4-6.87,1.41-1.11,3.36-1.59,6.63-1.59,3.42,0,5.46.48,6.87,1.59,1.62,1.29,2.25,3.21,2.25,6.9a16.67,16.67,0,0,1-.15,2.46H56.91a2.33,2.33,0,0,0,.36,1.32c.45.63,1.8,1,3.63,1a25.56,25.56,0,0,0,6.36-1Zm-4.5-9.57c0-1.89-.66-2.49-2.64-2.49-1.77,0-2.49.72-2.55,2.49Z" fill="#fff"/><path d="M88.86,52.83H81.4V50h-.16c-.9,2.46-2.07,3.17-5,3.17-2.42,0-4.13-.65-5.09-2-1.2-1.66-1.77-4.08-1.77-7.56,0-3.27.63-5.4,2-6.78,1-1,2.48-1.47,4.67-1.47,3.3,0,4.44.78,5.22,3.48h.16V36h7.46ZM76.92,44.58c0,2.25.75,3.33,2.29,3.33s2.27-1,2.27-3.3c0-2-.63-2.85-2.19-2.85S76.92,42.66,76.92,44.58Z" fill="#fff"/><path d="M105.33,41.76h-5.22V47c0,1.59.42,2,2.16,2a6.38,6.38,0,0,0,1.62-.18l.93-.15-.18,4.23a31,31,0,0,1-5.82.59c-2.49,0-4.08-.38-5-1.22s-1.14-1.59-1.14-3.51V41.76H90.42V38.22A32.63,32.63,0,0,0,96,32.7h4.08V36h5.22Z" fill="#fff"/><path d="M127.92,52.83h-7.86V47L113.7,32.82h8.13l1.5,4.11a18.55,18.55,0,0,1,.69,4h.18a15.19,15.19,0,0,1,.63-4l1.53-4.11h8L127.92,47Z" fill="#fff"/><path d="M150.32,37.2c1.74,1.38,2.46,3.36,2.46,6.69,0,6.69-2.79,9.53-9.33,9.53-6.93,0-9.78-2.78-9.78-9.5a10.49,10.49,0,0,1,1.47-5.64c1.44-2,3.93-2.85,8.16-2.85C146.72,35.43,148.7,35.94,150.32,37.2Zm-9.54,7.08a7.89,7.89,0,0,0,.39,2.79,2.29,2.29,0,0,0,2.1,1.14c1.62,0,2.4-1.11,2.4-3.42,0-2.52-.63-3.39-2.37-3.39S140.78,42.18,140.78,44.28Z" fill="#fff"/><path d="M172.74,46.08c0,2.79-.48,4.32-1.62,5.4-1.53,1.38-4.05,2.1-7.35,2.1-3.66,0-6.36-.91-7.8-2.55-.81-.93-1.2-2.55-1.2-5V36h7.47V46.89c0,1.62.39,2.19,1.53,2.19s1.5-.57,1.5-2.19V36h7.47Z" fill="#fff"/><path d="M182.13,39.84h.18c.36-2.91,1.53-4.05,4.14-4.05a7.76,7.76,0,0,1,1.62.15v7.77a9.49,9.49,0,0,0-1.65-.15,3.78,3.78,0,0,0-3.09,1.17,2.6,2.6,0,0,0-.45,1.53c-.09.72-.15,1.26-.15,1.56v5h-7.35V36h6.75Z" fill="#fff"/><path d="M204.92,41.37a41.21,41.21,0,0,0-5-.33c-2.94,0-3.24.09-3.24,1s.39,1,1.65,1a24.31,24.31,0,0,1,4.29.21c2.13.36,3.06,1.68,3.06,4.38,0,2.34-.72,4-2.16,4.8-1.08.66-3.09,1-5.82,1a40.63,40.63,0,0,1-7.86-.8V48.36a61.82,61.82,0,0,0,6.6.36c1.29,0,1.68-.21,1.68-1,0-.93-.27-1-2.85-1a9.75,9.75,0,0,1-3.63-.39c-1.74-.57-2.52-2.1-2.52-4.89,0-4.38,2-5.82,8-5.82a53,53,0,0,1,7.8.66Z" fill="#fff"/><path d="M223.81,52.2a32.2,32.2,0,0,1-7.8,1c-6.3,0-8.93-2.75-8.93-9.32,0-3.33.77-5.58,2.4-6.87,1.4-1.11,3.35-1.59,6.62-1.59,3.42,0,5.46.48,6.87,1.59,1.62,1.29,2.25,3.21,2.25,6.9a16.67,16.67,0,0,1-.15,2.46H214.4a2.25,2.25,0,0,0,.35,1.32c.45.63,1.8,1,3.63,1a25.56,25.56,0,0,0,6.36-1Zm-4.5-9.57c0-1.89-.66-2.49-2.64-2.49-1.77,0-2.49.72-2.55,2.49Z" fill="#fff"/><path d="M234.83,52.83h-7.47V32h7.47Z" fill="#fff"/><path d="M250.61,44.94h-4.8v7.89h-7.47V44.94h-1.68v-5.1l1.68.12V36.72a4.27,4.27,0,0,1,1.38-3.45c1-.87,2.64-1.23,5.49-1.23,1.5,0,3,.09,5.4.27v4.62a12.81,12.81,0,0,0-2.25-.21c-1.83,0-2.55.54-2.55,1.83V40l4.8-.12Z" fill="#fff"/><path d="M276.38,39.39h-8.76v2.16h8.76v5.61h-8.76v5.67h-7.53v-20h16.29Z" fill="#fff"/><path d="M286,33.84c0,1.11-.21,1.35-1.32,1.32h-4.8c-1.11,0-1.35-.21-1.32-1.32v-.75c0-1.14.21-1.35,1.32-1.32h4.8c1.11,0,1.35.21,1.32,1.32Zm-.09,19h-7.29V35.58c.54.36.78.42,2.82.45h1.65c2,0,2.28-.09,2.82-.45Z" fill="#fff"/><path d="M295.3,39.84h.18c.36-2.91,1.53-4.05,4.14-4.05a7.76,7.76,0,0,1,1.62.15v7.77a9.49,9.49,0,0,0-1.65-.15,3.78,3.78,0,0,0-3.09,1.17,2.6,2.6,0,0,0-.45,1.53c-.09.72-.15,1.26-.15,1.56v5h-7.35V36h6.75Z" fill="#fff"/><path d="M318.09,41.37a41.21,41.21,0,0,0-5-.33c-2.94,0-3.24.09-3.24,1s.39,1,1.65,1a24.31,24.31,0,0,1,4.29.21c2.13.36,3.06,1.68,3.06,4.38,0,2.34-.72,4-2.16,4.8-1.08.66-3.09,1-5.82,1a40.63,40.63,0,0,1-7.86-.8V48.36a61.82,61.82,0,0,0,6.6.36c1.29,0,1.68-.21,1.68-1,0-.93-.27-1-2.85-1a9.75,9.75,0,0,1-3.63-.39c-1.74-.57-2.52-2.1-2.52-4.89,0-4.38,2-5.82,8-5.82a53,53,0,0,1,7.8.66Z" fill="#fff"/><path d="M334.54,41.76h-5.22V47c0,1.59.42,2,2.16,2a6.38,6.38,0,0,0,1.62-.18l.93-.15-.18,4.23a31,31,0,0,1-5.82.59c-2.49,0-4.08-.38-5-1.22s-1.14-1.59-1.14-3.51V41.76h-2.28V38.22a32.63,32.63,0,0,0,5.61-5.52h4.08V36h5.22Z" fill="#fff"/><path d="M343.46,50.52c0,1.65-1.41,2.69-3.6,2.69s-3.6-1-3.6-2.72,1.41-2.67,3.57-2.67S343.46,48.83,343.46,50.52Z" fill="#fff"/></g></g></svg>