<svg xmlns="http://www.w3.org/2000/svg" viewBox="0 0 160 600"><g id="Layer_2" data-name="Layer 2"><g id="rect"><rect width="160" height="600" fill="none"/></g><g id="cta"><rect x="28" y="411.48" width="104" height="27.03" rx="13.52" fill="#027261"/><path d="M49.78,423.52a20.4,20.4,0,0,0-2.86-.26c-1.06,0-1.43.16-1.43.61s.27.57.86.57h.44a4.87,4.87,0,0,1,2.28.34,2.39,2.39,0,0,1,1,2.25c0,2.25-1.13,3.17-3.92,3.17a25.44,25.44,0,0,1-4-.36v-2.41a16.56,16.56,0,0,0,2.81.23c1.13,0,1.39-.11,1.39-.57s-.22-.56-.82-.56a7.14,7.14,0,0,1-2.23-.17c-1-.27-1.51-1.29-1.51-2.88,0-2.35,1.15-3.21,4.3-3.21a16.62,16.62,0,0,1,3.66.41Z" fill="#fff"/><path d="M54.62,422.75a6.74,6.74,0,0,1-.06.71h.1c.26-1.16,1.06-1.66,2.65-1.66,1.88,0,2.77.82,2.77,2.54V430H56.51v-4.24a1.37,1.37,0,0,0-.1-.74.8.8,0,0,0-.77-.42,1,1,0,0,0-1,1.1V430H51.09v-9.93h3.53Z" fill="#fff"/><path d="M69.05,422.55c.83.66,1.17,1.6,1.17,3.19,0,3.2-1.33,4.56-4.45,4.56-3.31,0-4.68-1.33-4.68-4.54a5,5,0,0,1,.71-2.7c.68-.94,1.87-1.36,3.89-1.36A5.1,5.1,0,0,1,69.05,422.55Zm-4.56,3.38a3.6,3.6,0,0,0,.19,1.33,1.09,1.09,0,0,0,1,.55c.77,0,1.15-.53,1.15-1.64s-.31-1.62-1.14-1.62S64.49,424.93,64.49,425.93Z" fill="#fff"/><path d="M74.83,423.39h.1c.2-1.2.91-1.69,2.41-1.69,2.32,0,3.21,1.12,3.21,4a5.71,5.71,0,0,1-.76,3.41,3,3,0,0,1-2.54,1.06c-1.36,0-2-.43-2.32-1.52h-.1v3.24H71.26V422h3.57Zm-.07,2.77c0,1.07.32,1.53,1.06,1.53s1.12-.5,1.12-1.7c0-.85-.36-1.26-1.1-1.26S74.76,425.16,74.76,426.16Z" fill="#fff"/><path d="M94.71,430H91l-2.17-4.45a3.17,3.17,0,0,1-.2-.52h-.08a6.5,6.5,0,0,1,.08.87V430h-3.4v-9.56h4.16l1.42,2.94a14,14,0,0,1,.52,1.38h.07a7,7,0,0,1-.07-1v-3.33h3.39Z" fill="#fff"/><path d="M103.73,422.55c.83.66,1.18,1.6,1.18,3.19,0,3.2-1.34,4.56-4.46,4.56-3.31,0-4.67-1.33-4.67-4.54a5,5,0,0,1,.7-2.7c.69-.94,1.88-1.36,3.9-1.36A5.06,5.06,0,0,1,103.73,422.55Zm-4.56,3.38a3.82,3.82,0,0,0,.19,1.33,1.1,1.1,0,0,0,1,.55c.78,0,1.15-.53,1.15-1.64s-.3-1.62-1.13-1.62S99.17,424.93,99.17,425.93Z" fill="#fff"/><path d="M116.74,430H113l-.66-2.6a16.4,16.4,0,0,1-.31-1.93h-.06a12.73,12.73,0,0,1-.26,1.93L111,430h-3.87l-1.92-8h3.61l.67,3.49a9.51,9.51,0,0,1,.17,1.45h.08l.08-.76c0-.31.07-.61.09-.69l.67-3.49h2.7l.68,3.49a8.66,8.66,0,0,1,.16,1.45h.09c0-.37.08-.73.1-.84a3.82,3.82,0,0,1,.07-.61l.69-3.49h3.54Z" fill="#fff"/></g></g></svg>