<svg xmlns="http://www.w3.org/2000/svg" viewBox="0 0 160 600"><g id="Layer_2" data-name="Layer 2"><g id="rect"><rect width="160" height="600" fill="none"/></g><g id="The_power_to_make_a_rich_flavorful_latte_at_home" data-name="The power  to make  a rich,  flavorful  latte at home"><path d="M22.59,179.53H18.2V190.6H11.65V179.53H7.36v-5.74H22.59Z" fill="#fff"/><path d="M30.21,177.82c0,.25,0,.43-.1,1.26h.18c.45-2,1.86-2.92,4.66-2.92,3.3,0,4.87,1.43,4.87,4.46v10H33.54v-7.46a2.52,2.52,0,0,0-.18-1.31A1.41,1.41,0,0,0,32,181.1,1.76,1.76,0,0,0,30.21,183v7.56H24V173.13h6.2Z" fill="#fff"/><path d="M55.61,190.07a26.92,26.92,0,0,1-6.56.86c-5.29,0-7.51-2.32-7.51-7.84,0-2.8.66-4.69,2-5.77,1.18-.94,2.82-1.34,5.57-1.34s4.59.4,5.77,1.34c1.36,1.08,1.89,2.69,1.89,5.79a14.21,14.21,0,0,1-.12,2.07h-9a2,2,0,0,0,.3,1.11c.38.53,1.52.86,3,.86a21.72,21.72,0,0,0,5.35-.81Zm-3.78-8c0-1.59-.56-2.09-2.22-2.09-1.49,0-2.09.6-2.14,2.09Z" fill="#fff"/><path d="M71.2,179h.18c.35-2.11,1.59-3,4.23-3,4.09,0,5.65,2,5.65,7.08,0,2.9-.4,4.67-1.33,6a5.31,5.31,0,0,1-4.47,1.87c-2.39,0-3.55-.76-4.08-2.67H71.2V194H64.93V176.48H71.2Zm-.12,4.87c0,1.89.55,2.7,1.86,2.7s2-.89,2-3c0-1.49-.63-2.22-1.94-2.22S71.08,182.05,71.08,183.82Z" fill="#fff"/><path d="M96.56,177.47c1.46,1.16,2.06,2.82,2.06,5.62,0,5.62-2.34,8-7.84,8-5.82,0-8.21-2.34-8.21-8a8.83,8.83,0,0,1,1.23-4.74C85,176.71,87.1,176,90.66,176,93.53,176,95.2,176.41,96.56,177.47Zm-8,5.95a6.65,6.65,0,0,0,.33,2.34,1.92,1.92,0,0,0,1.76,1c1.36,0,2-.93,2-2.88,0-2.11-.53-2.84-2-2.84S88.54,181.65,88.54,183.42Z" fill="#fff"/><path d="M119.37,190.6h-6.66L111.56,186a29.3,29.3,0,0,1-.56-3.38h-.1a24.61,24.61,0,0,1-.45,3.38l-1.14,4.59h-6.8l-3.38-14.12h6.35l1.19,6.15a18.81,18.81,0,0,1,.3,2.55h.12l.16-1.34a11.09,11.09,0,0,1,.15-1.21l1.18-6.15h4.74l1.21,6.15a17.33,17.33,0,0,1,.28,2.55H115c.07-.66.15-1.29.17-1.49a7.65,7.65,0,0,1,.13-1.06l1.21-6.15h6.23Z" fill="#fff"/><path d="M137.3,190.07a26.91,26.91,0,0,1-6.55.86c-5.3,0-7.51-2.32-7.51-7.84,0-2.8.65-4.69,2-5.77,1.19-.94,2.83-1.34,5.57-1.34s4.59.4,5.78,1.34c1.36,1.08,1.89,2.69,1.89,5.79a14.21,14.21,0,0,1-.13,2.07h-9a1.91,1.91,0,0,0,.3,1.11c.38.53,1.51.86,3.05.86a21.65,21.65,0,0,0,5.34-.81Zm-3.78-8c0-1.59-.55-2.09-2.22-2.09-1.48,0-2.09.6-2.14,2.09Z" fill="#fff"/><path d="M146,179.68h.15c.31-2.44,1.29-3.4,3.48-3.4a6.51,6.51,0,0,1,1.36.13v6.53a8,8,0,0,0-1.38-.13,3.18,3.18,0,0,0-2.6,1,2.18,2.18,0,0,0-.38,1.29c-.07.6-.12,1.06-.12,1.31v4.21h-6.18V176.48H146Z" fill="#fff"/><path d="M34.24,207H29.86v4.36c0,1.34.35,1.66,1.81,1.66a5.15,5.15,0,0,0,1.36-.15l.78-.12-.15,3.55a26.39,26.39,0,0,1-4.89.51c-2.09,0-3.43-.33-4.18-1s-1-1.33-1-2.95V207H21.71v-3a27.69,27.69,0,0,0,4.72-4.64h3.43v2.79h4.38Z" fill="#fff"/><path d="M49.37,203.18c1.46,1.16,2.06,2.82,2.06,5.62,0,5.62-2.34,8-7.84,8-5.82,0-8.21-2.35-8.21-8a8.77,8.77,0,0,1,1.23-4.73c1.21-1.67,3.3-2.4,6.86-2.4C46.34,201.69,48,202.12,49.37,203.18Zm-8,5.95a6.65,6.65,0,0,0,.33,2.34,1.91,1.91,0,0,0,1.76,1c1.36,0,2-.93,2-2.87,0-2.12-.53-2.85-2-2.85S41.35,207.36,41.35,209.13Z" fill="#fff"/><path d="M65.42,204.56h.12c.51-2,1.87-2.87,4.64-2.87s4.06.86,4.31,3.23h.15a3.38,3.38,0,0,1,1.16-2.3,5.54,5.54,0,0,1,3.43-.93c2,0,3.4.53,4.06,1.59a7.67,7.67,0,0,1,.63,2.92v10.11H77.64v-7.66c0-1.34-.4-1.89-1.33-1.89s-1.39.53-1.39,1.61v7.94H68.64v-7.76c0-1.26-.38-1.77-1.31-1.77s-1.46.56-1.46,1.59v7.94H59.59V202.19h5.83Z" fill="#fff"/><path d="M102.19,216.31H95.91V214h-.12c-.76,2.06-1.74,2.67-4.21,2.67-2,0-3.48-.56-4.29-1.66-1-1.39-1.49-3.43-1.49-6.36,0-2.74.53-4.53,1.67-5.69a5.2,5.2,0,0,1,3.93-1.24c2.77,0,3.73.66,4.39,2.92h.12v-2.42h6.28Zm-10-6.93c0,1.89.63,2.8,1.91,2.8S96,211.37,96,209.4c0-1.71-.53-2.39-1.84-2.39S92.16,207.77,92.16,209.38Z" fill="#fff"/><path d="M110.59,206.73c0,.1,0,.38,0,.78,0,.1,0,.46,0,.84h.2c.23-.61.33-.86.48-1.19l2.32-5h6.83l-4.1,7.09,3.6,7h-6.33l-2.29-4.51c-.2-.56-.35-.88-.51-1.34h-.2c0,.73.08,1.21.08,1.44v4.41h-6.13V198.84h6.13Z" fill="#fff"/><path d="M134.49,215.78a26.91,26.91,0,0,1-6.55.86c-5.3,0-7.51-2.32-7.51-7.84,0-2.8.65-4.69,2-5.77,1.19-.94,2.83-1.34,5.57-1.34s4.59.4,5.78,1.34c1.36,1.08,1.89,2.69,1.89,5.79a14.12,14.12,0,0,1-.13,2.07h-9a1.91,1.91,0,0,0,.3,1.11c.38.53,1.51.86,3.05.86a21.19,21.19,0,0,0,5.34-.81Zm-3.78-8c0-1.59-.55-2.09-2.22-2.09-1.48,0-2.09.6-2.14,2.09Z" fill="#fff"/><path d="M53.3,242H47v-2.34H46.9c-.76,2.07-1.74,2.67-4.21,2.67-2,0-3.48-.55-4.29-1.66-1-1.39-1.49-3.43-1.49-6.36,0-2.74.53-4.53,1.67-5.69a5.22,5.22,0,0,1,3.93-1.24c2.77,0,3.73.66,4.39,2.93H47v-2.42H53.3Zm-10-6.93c0,1.89.63,2.8,1.91,2.8s1.92-.81,1.92-2.77c0-1.72-.53-2.4-1.84-2.4S43.27,233.48,43.27,235.09Z" fill="#fff"/><path d="M67.63,231.11h.16c.3-2.45,1.28-3.41,3.47-3.41a6.67,6.67,0,0,1,1.37.13v6.53a8.19,8.19,0,0,0-1.39-.13,3.19,3.19,0,0,0-2.6,1c-.22.32-.27.45-.37,1.28a12.55,12.55,0,0,0-.13,1.31V242H62V227.91h5.67Z" fill="#fff"/><path d="M80.07,226.07c0,.93-.17,1.13-1.11,1.11h-4c-.93,0-1.13-.18-1.11-1.11v-.63c0-1,.18-1.14,1.11-1.11h4c.94,0,1.14.17,1.11,1.11ZM80,242H73.87V227.53c.46.3.66.35,2.37.38h1.39c1.71,0,1.91-.08,2.37-.38Z" fill="#fff"/><path d="M94.75,241.37a13.66,13.66,0,0,1-5.79,1c-2.6,0-4.19-.51-5.35-1.67s-1.91-3.43-1.91-6.15c0-4.91,2.34-7.16,7.43-7.16a15.72,15.72,0,0,1,5.62,1.06v5.14a14.35,14.35,0,0,0-4-.58c-1.89,0-2.72.68-2.72,2.27,0,1.74.81,2.4,3,2.4a11.89,11.89,0,0,0,3.7-.63Z" fill="#fff"/><path d="M103.05,229.24c0,.25,0,.43-.1,1.26h.17c.46-2,1.87-2.92,4.67-2.92,3.3,0,4.86,1.44,4.86,4.46v10h-6.27v-7.46a2.52,2.52,0,0,0-.18-1.31,1.43,1.43,0,0,0-1.36-.73,1.76,1.76,0,0,0-1.79,1.94V242h-6.2V224.55h6.2Z" fill="#fff"/><path d="M117.75,245.63h-3.7l1.56-7.26h5.24Z" fill="#fff"/><path d="M29.29,261.1h-4v6.63H19V261.1H17.57v-4.28l1.41.1V254.2a3.58,3.58,0,0,1,1.16-2.9c.83-.73,2.22-1,4.61-1,1.27,0,2.5.08,4.54.23v3.88a11.2,11.2,0,0,0-1.89-.17c-1.54,0-2.14.45-2.14,1.53v1.19l4-.1Z" fill="#fff"/><path d="M37.11,267.73H30.83V250.26h6.28Z" fill="#fff"/><path d="M55.37,267.73H49.09v-2.34H49c-.76,2.07-1.74,2.67-4.21,2.67-2,0-3.48-.55-4.29-1.66C39.46,265,39,263,39,260c0-2.74.52-4.53,1.66-5.69a5.22,5.22,0,0,1,3.93-1.24c2.77,0,3.73.66,4.39,2.93h.12v-2.42h6.28Zm-10-6.93c0,1.89.63,2.8,1.91,2.8s1.92-.81,1.92-2.77c0-1.72-.53-2.4-1.84-2.4S45.34,259.19,45.34,260.8Z" fill="#fff"/><path d="M68.88,267.73h-8l-4.16-14.11H63l1.26,4.48a25.46,25.46,0,0,1,.58,4.14H65a20.67,20.67,0,0,1,.53-4.14l1.21-4.48h6.22Z" fill="#fff"/><path d="M87.31,254.6c1.46,1.16,2.07,2.82,2.07,5.62,0,5.62-2.34,8-7.84,8-5.82,0-8.22-2.35-8.22-8a8.83,8.83,0,0,1,1.24-4.74c1.21-1.67,3.3-2.4,6.85-2.4C84.29,253.11,86,253.54,87.31,254.6Zm-8,6a6.69,6.69,0,0,0,.32,2.34,1.94,1.94,0,0,0,1.77,1c1.36,0,2-.93,2-2.87,0-2.12-.53-2.85-2-2.85S79.3,258.78,79.3,260.55Z" fill="#fff"/><path d="M96.83,256.82H97c.3-2.45,1.28-3.4,3.48-3.4a6.54,6.54,0,0,1,1.36.12v6.53a8.19,8.19,0,0,0-1.39-.13,3.18,3.18,0,0,0-2.59,1c-.23.32-.28.45-.38,1.28a12.55,12.55,0,0,0-.13,1.31v4.21H91.16V253.62h5.67Z" fill="#fff"/><path d="M114.29,261.1h-4v6.63H104V261.1h-1.41v-4.28l1.41.1V254.2a3.58,3.58,0,0,1,1.16-2.9c.83-.73,2.22-1,4.62-1,1.26,0,2.49.08,4.53.23v3.88a11.2,11.2,0,0,0-1.89-.17c-1.54,0-2.14.45-2.14,1.53v1.19l4-.1Z" fill="#fff"/><path d="M130.81,262.06c0,2.35-.4,3.63-1.36,4.54-1.29,1.16-3.4,1.76-6.18,1.76-3.07,0-5.34-.75-6.55-2.14-.68-.78-1-2.14-1-4.16v-8.44H122v9.12c0,1.36.33,1.84,1.28,1.84s1.26-.48,1.26-1.84v-9.12h6.28Z" fill="#fff"/><path d="M139.34,267.73h-6.28V250.26h6.28Z" fill="#fff"/><path d="M35.57,293.44H29.29V276h6.28Z" fill="#fff"/><path d="M53.83,293.44H47.55V291.1h-.12c-.76,2.07-1.74,2.67-4.21,2.67-2,0-3.48-.55-4.29-1.66-1-1.39-1.49-3.43-1.49-6.35,0-2.75.53-4.54,1.67-5.7A5.2,5.2,0,0,1,43,278.82c2.77,0,3.73.66,4.39,2.93h.12v-2.42h6.28Zm-10-6.93c0,1.89.63,2.8,1.91,2.8s1.92-.81,1.92-2.77c0-1.72-.53-2.4-1.84-2.4S43.8,284.9,43.8,286.51Z" fill="#fff"/><path d="M67.69,284.14H63.3v4.36c0,1.34.35,1.67,1.82,1.67a5.65,5.65,0,0,0,1.36-.15l.78-.13-.15,3.55a25.71,25.71,0,0,1-4.89.51c-2.1,0-3.43-.33-4.19-1s-1-1.34-1-2.95v-5.83H55.16v-3a27.63,27.63,0,0,0,4.71-4.64H63.3v2.8h4.39Z" fill="#fff"/><path d="M81.16,284.14H76.78v4.36c0,1.34.35,1.67,1.81,1.67A5.6,5.6,0,0,0,80,290l.78-.13-.15,3.55a25.56,25.56,0,0,1-4.89.51c-2.09,0-3.42-.33-4.18-1s-1-1.34-1-2.95v-5.83H68.64v-3a27.63,27.63,0,0,0,4.71-4.64h3.43v2.8h4.38Z" fill="#fff"/><path d="M96.37,292.92a27.32,27.32,0,0,1-6.55.85c-5.29,0-7.51-2.32-7.51-7.84,0-2.8.65-4.69,2-5.77,1.18-.93,2.82-1.34,5.57-1.34s4.58.41,5.77,1.34c1.36,1.08,1.89,2.7,1.89,5.8a14.21,14.21,0,0,1-.13,2.07h-9a1.89,1.89,0,0,0,.3,1.1c.38.53,1.51.86,3,.86a21.32,21.32,0,0,0,5.35-.81Zm-3.78-8.05c0-1.58-.55-2.09-2.21-2.09-1.49,0-2.1.61-2.15,2.09Z" fill="#fff"/><path d="M121.65,293.44h-6.28V291.1h-.12c-.76,2.07-1.74,2.67-4.21,2.67-2,0-3.48-.55-4.29-1.66-1-1.39-1.49-3.43-1.49-6.35,0-2.75.53-4.54,1.67-5.7a5.22,5.22,0,0,1,3.93-1.24c2.77,0,3.73.66,4.39,2.93h.12v-2.42h6.28Zm-10-6.93c0,1.89.63,2.8,1.91,2.8s1.92-.81,1.92-2.77c0-1.72-.53-2.4-1.84-2.4S111.62,284.9,111.62,286.51Z" fill="#fff"/><path d="M135.51,284.14h-4.39v4.36c0,1.34.36,1.67,1.82,1.67a5.65,5.65,0,0,0,1.36-.15l.78-.13-.15,3.55A25.64,25.64,0,0,1,130,294c-2.09,0-3.43-.33-4.19-1s-.95-1.34-.95-2.95v-5.83H123v-3a27.63,27.63,0,0,0,4.71-4.64h3.43v2.8h4.39Z" fill="#fff"/><path d="M50.18,306.38c0,.25,0,.42-.1,1.26h.18c.45-2.05,1.86-2.93,4.66-2.93,3.3,0,4.87,1.44,4.87,4.46v10H53.51V311.7a2.59,2.59,0,0,0-.18-1.32,1.43,1.43,0,0,0-1.36-.73,1.76,1.76,0,0,0-1.79,1.94v7.57H44V301.69h6.2Z" fill="#fff"/><path d="M75.5,306c1.46,1.16,2.07,2.83,2.07,5.62,0,5.63-2.35,8-7.84,8-5.82,0-8.22-2.34-8.22-8a8.83,8.83,0,0,1,1.24-4.74c1.21-1.66,3.3-2.39,6.85-2.39C72.48,304.54,74.14,305,75.5,306Zm-8,6a6.71,6.71,0,0,0,.32,2.35,1.93,1.93,0,0,0,1.77.95c1.36,0,2-.93,2-2.87,0-2.12-.53-2.85-2-2.85S67.49,310.21,67.49,312Z" fill="#fff"/><path d="M85.17,307.41h.12c.51-2,1.87-2.87,4.64-2.87,2.93,0,4.06.85,4.31,3.22h.15a3.37,3.37,0,0,1,1.16-2.29,5.5,5.5,0,0,1,3.43-.93c2,0,3.4.53,4.06,1.58a7.72,7.72,0,0,1,.63,2.93v10.11H97.39v-7.67c0-1.33-.4-1.89-1.33-1.89s-1.39.53-1.39,1.62v7.94H88.39v-7.77c0-1.26-.37-1.76-1.31-1.76s-1.46.55-1.46,1.59v7.94H79.35V305h5.82Z" fill="#fff"/><path d="M119.51,318.63a27.32,27.32,0,0,1-6.55.85c-5.3,0-7.52-2.31-7.52-7.84,0-2.79.66-4.68,2-5.77,1.19-.93,2.82-1.33,5.57-1.33s4.59.4,5.77,1.33c1.37,1.09,1.9,2.7,1.9,5.8a14.21,14.21,0,0,1-.13,2.07h-9a2,2,0,0,0,.31,1.11c.38.53,1.51.85,3,.85a21.64,21.64,0,0,0,5.34-.8Zm-3.78-8c0-1.59-.56-2.1-2.22-2.1-1.49,0-2.09.61-2.14,2.1Z" fill="#fff"/></g></g></svg>