<svg xmlns="http://www.w3.org/2000/svg" viewBox="0 0 160 600"><g id="Layer_2" data-name="Layer 2"><g id="rect"><rect width="160" height="600" fill="none"/></g><g id="Enjoy_a_café-style_latte_in_just_one_step" data-name="Enjoy a  café-style  latte in  just one step"><path d="M44.05,179.41H36.39v1.91h7.66v3.81H36.39V187h7.66v4.26H30.16V174.42H44.05Z" fill="#fff"/><path d="M52.12,179.61h.15c.45-2,1.91-2.82,4.74-2.82a5.58,5.58,0,0,1,4.26,1.41,5,5,0,0,1,.88,3.15v9.88H55.87v-7.39c0-1.23,0-1.31-.28-1.61a1.5,1.5,0,0,0-1.28-.53,1.67,1.67,0,0,0-1.82,1.84v7.69H46.34V177.11h5.78Z" fill="#fff"/><path d="M70.9,189.39c0,2.7-.33,3.73-1.36,4.41-.86.56-2,.78-4.11.78a19.35,19.35,0,0,1-2.3-.1V191.1a4.52,4.52,0,0,0,.53.05,1.15,1.15,0,0,0,1-.4c.1-.18.12-.25.15-1v-13c.45.3.63.35,2.34.37h1.41c1.79-.05,2-.07,2.35-.37Zm0-14.12c0,.94-.18,1.14-1.14,1.11H65.88c-1,0-1.16-.15-1.13-1.11v-.63c0-.93.17-1.13,1.13-1.11h3.93c1,0,1.16.18,1.14,1.11Z" fill="#fff"/><path d="M86.63,178.1c1.46,1.16,2.07,2.82,2.07,5.62,0,5.62-2.35,8-7.84,8-5.83,0-8.22-2.34-8.22-8A8.83,8.83,0,0,1,73.87,179c1.21-1.66,3.31-2.39,6.86-2.39C83.6,176.61,85.27,177,86.63,178.1Zm-8,6a6.65,6.65,0,0,0,.33,2.34,1.93,1.93,0,0,0,1.77,1c1.36,0,2-.93,2-2.88,0-2.11-.53-2.84-2-2.84S78.61,182.28,78.61,184.05Z" fill="#fff"/><path d="M94.58,190.78v-.16a3.15,3.15,0,0,1-2-2.42l-3.46-11.09h6.1l1.11,4.19a23.81,23.81,0,0,1,.48,4.43H97a24.46,24.46,0,0,1,.53-4.33l1.06-4.29h6.27l-4.28,13.11c-1.19,3.53-2.07,4.29-5.12,4.36H91.1l-.28-3.8Z" fill="#fff"/><path d="M128.5,191.23h-6.27v-2.34h-.13c-.76,2.06-1.74,2.67-4.21,2.67-2,0-3.48-.56-4.29-1.67-1-1.38-1.48-3.42-1.48-6.35,0-2.75.53-4.54,1.66-5.7a5.25,5.25,0,0,1,3.93-1.23c2.78,0,3.73.65,4.39,2.92h.13v-2.42h6.27Zm-10-6.93c0,1.89.63,2.8,1.92,2.8s1.91-.81,1.91-2.78c0-1.71-.53-2.39-1.84-2.39S118.47,182.68,118.47,184.3Z" fill="#fff"/><path d="M23.2,216.29a13.68,13.68,0,0,1-5.8,1c-2.59,0-4.18-.5-5.34-1.66s-1.92-3.43-1.92-6.15c0-4.92,2.35-7.16,7.44-7.16a15.72,15.72,0,0,1,5.62,1.06v5.14a14,14,0,0,0-4-.58c-1.89,0-2.72.68-2.72,2.27s.8,2.4,3,2.4a12.19,12.19,0,0,0,3.7-.63Z" fill="#fff"/><path d="M41.16,216.94H34.89V214.6h-.13c-.75,2.06-1.74,2.67-4.21,2.67-2,0-3.48-.56-4.28-1.67-1-1.38-1.49-3.42-1.49-6.35,0-2.75.53-4.53,1.66-5.69a5.24,5.24,0,0,1,3.94-1.24c2.77,0,3.73.66,4.38,2.92h.13v-2.42h6.27Zm-10-6.93c0,1.89.63,2.8,1.92,2.8S35,212,35,210c0-1.71-.53-2.39-1.84-2.39S31.13,208.4,31.13,210Z" fill="#fff"/><path d="M54.45,210.31h-4v6.63H44.14v-6.63H42.73V206l1.41.1V203.4a3.56,3.56,0,0,1,1.16-2.89c.84-.74,2.22-1,4.62-1,1.26,0,2.49.08,4.53.23v3.88a11.29,11.29,0,0,0-1.89-.18c-1.53,0-2.14.46-2.14,1.54v1.19l4-.1Z" fill="#fff"/><path d="M69.64,216.41a26.91,26.91,0,0,1-6.55.86c-5.3,0-7.52-2.32-7.52-7.84,0-2.8.66-4.69,2-5.77,1.18-.94,2.82-1.34,5.57-1.34s4.59.4,5.77,1.34c1.36,1.08,1.89,2.69,1.89,5.79a14.13,14.13,0,0,1-.12,2.07h-9a2,2,0,0,0,.31,1.11c.37.53,1.51.86,3,.86a21.25,21.25,0,0,0,5.34-.81Zm-1.56-18.55-3.23,3.28H60.92l2.39-3.28Zm-2.22,10.51c0-1.59-.56-2.09-2.22-2.09-1.49,0-2.09.6-2.14,2.09Z" fill="#fff"/><path d="M78.87,207.31v4.49H72.19v-4.49Z" fill="#fff"/><path d="M93.31,207.31a36.09,36.09,0,0,0-4.19-.28c-2.47,0-2.72.08-2.72.81s.33.86,1.39.86a20.67,20.67,0,0,1,3.6.17c1.79.31,2.57,1.42,2.57,3.68,0,2-.6,3.33-1.81,4a10.3,10.3,0,0,1-4.89.86,33.77,33.77,0,0,1-6.61-.69v-3.57a51.6,51.6,0,0,0,5.55.3c1.08,0,1.41-.18,1.41-.81,0-.78-.23-.86-2.39-.86a8.37,8.37,0,0,1-3-.32c-1.47-.48-2.12-1.77-2.12-4.11,0-3.68,1.66-4.89,6.7-4.89a44.28,44.28,0,0,1,6.56.55Z" fill="#fff"/><path d="M107.15,207.64h-4.38V212c0,1.34.35,1.66,1.81,1.66a5.15,5.15,0,0,0,1.36-.15l.78-.12-.15,3.55a26.39,26.39,0,0,1-4.89.51c-2.09,0-3.42-.33-4.18-1s-1-1.33-1-2.95v-5.82H94.62v-3A27.69,27.69,0,0,0,99.34,200h3.43v2.79h4.38Z" fill="#fff"/><path d="M113.62,216.49v-.15a3.18,3.18,0,0,1-2-2.42l-3.45-11.1h6.1l1.11,4.19a24.71,24.71,0,0,1,.48,4.44H116a24.47,24.47,0,0,1,.53-4.34l1.06-4.29h6.28l-4.29,13.11c-1.18,3.53-2.07,4.29-5.11,4.36h-4.32l-.27-3.8Z" fill="#fff"/><path d="M131.44,216.94h-6.28V199.47h6.28Z" fill="#fff"/><path d="M147.28,216.41a26.91,26.91,0,0,1-6.55.86c-5.3,0-7.51-2.32-7.51-7.84,0-2.8.65-4.69,2-5.77,1.19-.94,2.83-1.34,5.57-1.34s4.59.4,5.78,1.34c1.36,1.08,1.89,2.69,1.89,5.79a14.12,14.12,0,0,1-.13,2.07h-9a1.91,1.91,0,0,0,.3,1.11c.38.53,1.51.86,3.05.86a21.19,21.19,0,0,0,5.34-.81Zm-3.78-8c0-1.59-.55-2.09-2.22-2.09-1.48,0-2.09.6-2.14,2.09Z" fill="#fff"/><path d="M35.23,242.65H29V225.18h6.28Z" fill="#fff"/><path d="M53.49,242.65H47.21v-2.34h-.12c-.76,2.07-1.74,2.67-4.21,2.67-2,0-3.48-.55-4.29-1.66-1-1.39-1.48-3.43-1.48-6.36,0-2.74.52-4.53,1.66-5.69A5.22,5.22,0,0,1,42.7,228c2.77,0,3.73.66,4.39,2.93h.12v-2.42h6.28Zm-10-6.93c0,1.89.63,2.8,1.91,2.8s1.92-.81,1.92-2.77c0-1.72-.53-2.4-1.84-2.4S43.46,234.11,43.46,235.72Z" fill="#fff"/><path d="M67.35,233.35H63v4.36c0,1.34.36,1.67,1.82,1.67a5.23,5.23,0,0,0,1.36-.16l.78-.12-.15,3.55a25.64,25.64,0,0,1-4.89.51c-2.09,0-3.43-.33-4.19-1s-.95-1.33-.95-3v-5.82H54.82v-3a27.63,27.63,0,0,0,4.71-4.64H63v2.8h4.39Z" fill="#fff"/><path d="M80.83,233.35H76.44v4.36c0,1.34.35,1.67,1.81,1.67a5.3,5.3,0,0,0,1.37-.16l.78-.12-.15,3.55a25.71,25.71,0,0,1-4.89.51c-2.1,0-3.43-.33-4.19-1s-1-1.33-1-3v-5.82H68.3v-3A27.63,27.63,0,0,0,73,225.74h3.43v2.8h4.39Z" fill="#fff"/><path d="M96,242.12a27,27,0,0,1-6.56.86c-5.29,0-7.51-2.32-7.51-7.84,0-2.8.66-4.69,2-5.77,1.18-.93,2.82-1.34,5.57-1.34s4.59.41,5.77,1.34c1.36,1.08,1.89,2.7,1.89,5.8a12.74,12.74,0,0,1-.13,2.06h-9a2,2,0,0,0,.3,1.11c.38.53,1.52.86,3,.86a21.25,21.25,0,0,0,5.35-.81Zm-3.79-8c0-1.59-.55-2.09-2.21-2.09-1.49,0-2.09.6-2.15,2.09Z" fill="#fff"/><path d="M111.63,226.7c0,.93-.17,1.13-1.11,1.11h-4c-.93,0-1.13-.18-1.11-1.11v-.63c0-1,.18-1.14,1.11-1.11h4c.94,0,1.14.17,1.11,1.11Zm-.07,16h-6.13V228.16c.45.3.66.35,2.37.38h1.39c1.71,0,1.91-.08,2.37-.38Z" fill="#fff"/><path d="M119.6,231h.15c.46-2,1.92-2.82,4.74-2.82a5.6,5.6,0,0,1,4.26,1.41,4.93,4.93,0,0,1,.88,3.15v9.88h-6.27v-7.38c0-1.24,0-1.31-.28-1.62a1.52,1.52,0,0,0-1.29-.53A1.66,1.66,0,0,0,120,235v7.69h-6.15V228.54h5.77Z" fill="#fff"/><path d="M33.66,266.52c0,2.7-.33,3.73-1.37,4.41-.85.56-2,.79-4.1.79a21.74,21.74,0,0,1-2.3-.1v-3.38l.53.05a1.1,1.1,0,0,0,1-.41c.11-.17.13-.25.16-1v-13c.45.3.63.35,2.34.38h1.41c1.79-.05,2-.08,2.35-.38Zm.05-14.11c0,.93-.18,1.13-1.14,1.11H28.64c-1,0-1.16-.16-1.13-1.11v-.63c0-.94.17-1.14,1.13-1.11h3.93c1,0,1.16.17,1.14,1.11Z" fill="#fff"/><path d="M51,262.69c0,2.35-.4,3.63-1.36,4.54-1.29,1.16-3.41,1.76-6.18,1.76-3.07,0-5.34-.75-6.55-2.14-.68-.78-1-2.14-1-4.16v-8.44h6.28v9.12c0,1.36.32,1.84,1.28,1.84s1.26-.48,1.26-1.84v-9.12H51Z" fill="#fff"/><path d="M65.93,258.73a36,36,0,0,0-4.19-.27c-2.47,0-2.72.07-2.72.8s.33.86,1.39.86a20.38,20.38,0,0,1,3.6.18c1.79.3,2.57,1.41,2.57,3.68,0,2-.6,3.32-1.81,4a10.3,10.3,0,0,1-4.89.86,34.51,34.51,0,0,1-6.61-.68v-3.58a51.6,51.6,0,0,0,5.55.3c1.08,0,1.41-.18,1.41-.81,0-.78-.22-.85-2.39-.85a8.1,8.1,0,0,1-3.05-.33c-1.46-.48-2.12-1.77-2.12-4.11,0-3.68,1.66-4.89,6.71-4.89a45.59,45.59,0,0,1,6.55.55Z" fill="#fff"/><path d="M79.78,259.06H75.39v4.36c0,1.34.35,1.67,1.82,1.67a5.71,5.71,0,0,0,1.36-.15l.78-.13-.15,3.55a25.71,25.71,0,0,1-4.89.51c-2.1,0-3.43-.33-4.19-1s-1-1.33-1-2.95v-5.82H67.25v-3A27.63,27.63,0,0,0,72,251.45h3.43v2.8h4.39Z" fill="#fff"/><path d="M101.27,255.23c1.46,1.16,2.07,2.82,2.07,5.62,0,5.62-2.35,8-7.84,8-5.82,0-8.22-2.35-8.22-8a8.83,8.83,0,0,1,1.24-4.74c1.21-1.67,3.3-2.4,6.85-2.4C98.25,253.74,99.91,254.17,101.27,255.23Zm-8,6a6.69,6.69,0,0,0,.32,2.34,1.94,1.94,0,0,0,1.77,1c1.36,0,2-.93,2-2.87,0-2.12-.53-2.85-2-2.85S93.26,259.41,93.26,261.18Z" fill="#fff"/><path d="M110.89,256.74H111c.45-2,1.92-2.82,4.74-2.82a5.6,5.6,0,0,1,4.26,1.41,5,5,0,0,1,.88,3.15v9.88h-6.28V261c0-1.24,0-1.31-.27-1.62a1.52,1.52,0,0,0-1.29-.53,1.67,1.67,0,0,0-1.81,1.84v7.69h-6.15V254.25h5.77Z" fill="#fff"/><path d="M136.72,267.83a26.85,26.85,0,0,1-6.55.86c-5.29,0-7.51-2.32-7.51-7.84,0-2.8.65-4.69,2-5.77,1.18-.93,2.82-1.34,5.57-1.34s4.58.41,5.77,1.34c1.36,1.08,1.89,2.7,1.89,5.8a14,14,0,0,1-.13,2.06h-9a1.91,1.91,0,0,0,.3,1.11c.38.53,1.51.86,3,.86a21.32,21.32,0,0,0,5.35-.81Zm-3.78-8c0-1.59-.55-2.09-2.21-2.09-1.49,0-2.1.61-2.15,2.09Z" fill="#fff"/><path d="M64.84,284.45a33.85,33.85,0,0,0-4.18-.28c-2.47,0-2.73.07-2.73.8s.33.86,1.39.86a20.58,20.58,0,0,1,3.61.18c1.79.3,2.57,1.41,2.57,3.68,0,2-.61,3.33-1.82,4a10.15,10.15,0,0,1-4.89.86,34.41,34.41,0,0,1-6.6-.68v-3.58a49,49,0,0,0,5.54.3c1.09,0,1.41-.18,1.41-.81,0-.78-.22-.85-2.39-.85a8.13,8.13,0,0,1-3-.33c-1.46-.48-2.12-1.76-2.12-4.11,0-3.68,1.67-4.89,6.71-4.89a44.46,44.46,0,0,1,6.55.56Z" fill="#fff"/><path d="M78.69,284.77H74.3v4.36c0,1.34.36,1.67,1.82,1.67a5.65,5.65,0,0,0,1.36-.15l.78-.13-.15,3.55a25.64,25.64,0,0,1-4.89.51c-2.09,0-3.43-.33-4.19-1s-1-1.34-1-2.95v-5.83H66.16v-3a27.63,27.63,0,0,0,4.71-4.64H74.3V280h4.39Z" fill="#fff"/><path d="M93.9,293.55a27.32,27.32,0,0,1-6.55.85c-5.3,0-7.52-2.32-7.52-7.84,0-2.8.66-4.69,2-5.77,1.19-.93,2.82-1.34,5.57-1.34s4.59.41,5.77,1.34c1.36,1.08,1.89,2.7,1.89,5.8a14.21,14.21,0,0,1-.12,2.07H86a1.89,1.89,0,0,0,.31,1.1c.38.53,1.51.86,3,.86a21.25,21.25,0,0,0,5.34-.81Zm-3.78-8.05c0-1.58-.56-2.09-2.22-2.09-1.49,0-2.09.61-2.14,2.09Z" fill="#fff"/><path d="M103.2,282.43h.17c.36-2.12,1.59-3,4.24-3,4.08,0,5.64,2,5.64,7.09,0,2.9-.4,4.66-1.33,6a5.33,5.33,0,0,1-4.46,1.86c-2.4,0-3.56-.75-4.09-2.67h-.17v5.7H96.92V280h6.28Zm-.13,4.86c0,1.89.55,2.7,1.87,2.7s2-.88,2-3c0-1.49-.63-2.22-1.94-2.22S103.07,285.53,103.07,287.29Z" fill="#fff"/></g></g></svg>