<svg xmlns="http://www.w3.org/2000/svg" viewBox="0 0 970 90"><g id="Layer_2" data-name="Layer 2"><g id="rect"><rect width="970" height="90" fill="none"/></g><g id="cta"><rect x="723.29" y="30" width="115.42" height="30" rx="15" fill="#027261"/><path d="M747.46,43.36a23.34,23.34,0,0,0-3.17-.29c-1.18,0-1.59.18-1.59.67s.3.64.95.64h.5a5.35,5.35,0,0,1,2.53.38,2.67,2.67,0,0,1,1.08,2.5c0,2.49-1.26,3.51-4.34,3.51a29.12,29.12,0,0,1-4.39-.4V47.7a19,19,0,0,0,3.11.26c1.26,0,1.55-.13,1.55-.64s-.24-.62-.91-.62a8.06,8.06,0,0,1-2.48-.19c-1.08-.3-1.67-1.43-1.67-3.2,0-2.61,1.27-3.56,4.77-3.56a18.14,18.14,0,0,1,4.06.46Z" fill="#fff"/><path d="M752.83,42.5c0,.16,0,.27-.06.8h.11c.29-1.29,1.18-1.85,2.94-1.85,2.09,0,3.07.91,3.07,2.82v6.29h-4v-4.7a1.56,1.56,0,0,0-.11-.83.9.9,0,0,0-.86-.46,1.11,1.11,0,0,0-1.13,1.22v4.77h-3.91v-11h3.91Z" fill="#fff"/><path d="M768.84,42.28c.93.73,1.31,1.78,1.31,3.54,0,3.55-1.48,5.06-4.95,5.06-3.67,0-5.18-1.48-5.18-5a5.58,5.58,0,0,1,.78-3c.76-1.05,2.08-1.51,4.32-1.51A5.58,5.58,0,0,1,768.84,42.28ZM763.79,46a4.39,4.39,0,0,0,.2,1.48,1.21,1.21,0,0,0,1.12.6c.86,0,1.27-.58,1.27-1.81s-.33-1.8-1.26-1.8S763.79,44.92,763.79,46Z" fill="#fff"/><path d="M775.27,43.22h.11c.22-1.34,1-1.88,2.67-1.88,2.58,0,3.56,1.24,3.56,4.47a6.31,6.31,0,0,1-.84,3.78A3.34,3.34,0,0,1,778,50.77c-1.51,0-2.24-.48-2.57-1.69h-.11v3.6h-4v-11h4Zm-.08,3.07c0,1.19.35,1.7,1.17,1.7s1.24-.56,1.24-1.9c0-.93-.39-1.39-1.22-1.39S775.19,45.17,775.19,46.29Z" fill="#fff"/><path d="M797.33,50.56h-4.14l-2.4-4.94a2.71,2.71,0,0,1-.22-.57h-.1a7.43,7.43,0,0,1,.1,1v4.54H786.8V40h4.61L793,43.22a15.31,15.31,0,0,1,.57,1.52h.08a7.25,7.25,0,0,1-.08-1.09V40h3.77Z" fill="#fff"/><path d="M807.34,42.28c.92.73,1.3,1.78,1.3,3.54,0,3.55-1.48,5.06-4.94,5.06-3.68,0-5.19-1.48-5.19-5a5.58,5.58,0,0,1,.78-3c.76-1.05,2.08-1.51,4.33-1.51A5.61,5.61,0,0,1,807.34,42.28ZM802.28,46a4.11,4.11,0,0,0,.21,1.48,1.2,1.2,0,0,0,1.11.6c.86,0,1.27-.58,1.27-1.81s-.33-1.8-1.25-1.8S802.28,44.92,802.28,46Z" fill="#fff"/><path d="M821.77,50.56h-4.2l-.73-2.89a18.48,18.48,0,0,1-.35-2.13h-.06a16.69,16.69,0,0,1-.29,2.13l-.72,2.89h-4.29L809,41.66h4l.74,3.88a10.6,10.6,0,0,1,.19,1.6H814l.1-.84a7.21,7.21,0,0,1,.1-.76l.74-3.88h3l.77,3.88a11.49,11.49,0,0,1,.17,1.6h.1c0-.41.09-.81.11-.93a3.09,3.09,0,0,1,.08-.67l.76-3.88h3.93Z" fill="#fff"/></g></g></svg>