<svg xmlns="http://www.w3.org/2000/svg" viewBox="0 0 970 90"><g id="Layer_2" data-name="Layer 2"><g id="rect"><rect width="970" height="90" fill="none"/></g><g id="The_power_to_make_a_rich_flavorful_latte_at_home" data-name="The power to make a rich, flavorful latte at home"><path d="M53.12,28.66H47.9V41.82H40.1V28.66H35V21.82H53.12Z" fill="#fff"/><path d="M62.16,26.62c0,.3,0,.51-.12,1.5h.21c.54-2.43,2.22-3.48,5.55-3.48,3.93,0,5.79,1.71,5.79,5.31V41.82H66.12V33a3,3,0,0,0-.21-1.56,1.7,1.7,0,0,0-1.62-.87,2.1,2.1,0,0,0-2.13,2.31v9H54.78V21h7.38Z" fill="#fff"/><path d="M92.36,41.19a32.28,32.28,0,0,1-7.8,1c-6.3,0-8.94-2.76-8.94-9.32,0-3.33.78-5.58,2.4-6.87,1.41-1.11,3.36-1.59,6.63-1.59s5.46.48,6.87,1.59c1.62,1.29,2.25,3.21,2.25,6.9a16.67,16.67,0,0,1-.15,2.46H82.94a2.29,2.29,0,0,0,.36,1.31c.45.63,1.8,1,3.63,1a25.1,25.1,0,0,0,6.36-1Zm-4.5-9.57c0-1.88-.66-2.48-2.64-2.48-1.77,0-2.49.71-2.55,2.48Z" fill="#fff"/><path d="M110.93,28h.21c.42-2.52,1.89-3.54,5-3.54,4.86,0,6.72,2.34,6.72,8.42,0,3.45-.48,5.55-1.59,7.14-1,1.41-2.91,2.22-5.31,2.22-2.85,0-4.23-.9-4.86-3.18h-.21v6.78h-7.47V25h7.47Zm-.15,5.78c0,2.25.66,3.21,2.22,3.21s2.34-1,2.34-3.56c0-1.78-.75-2.64-2.31-2.64S110.78,31.66,110.78,33.75Z" fill="#fff"/><path d="M141.07,26.2c1.74,1.38,2.46,3.36,2.46,6.69,0,6.68-2.79,9.53-9.33,9.53-6.93,0-9.78-2.79-9.78-9.5a10.49,10.49,0,0,1,1.47-5.64c1.44-2,3.93-2.85,8.16-2.85C137.47,24.43,139.45,24.94,141.07,26.2Zm-9.54,7.07a7.85,7.85,0,0,0,.39,2.79,2.3,2.3,0,0,0,2.1,1.15c1.62,0,2.4-1.12,2.4-3.42,0-2.52-.63-3.39-2.37-3.39S131.53,31.18,131.53,33.27Z" fill="#fff"/><path d="M168.19,41.82h-7.92l-1.38-5.46a36.49,36.49,0,0,1-.66-4h-.12a29.16,29.16,0,0,1-.54,4l-1.35,5.46h-8.1L144.1,25h7.56l1.41,7.32a20.94,20.94,0,0,1,.36,3h.15l.18-1.59c.06-.67.15-1.29.18-1.44L155.35,25H161l1.44,7.32a19.51,19.51,0,0,1,.33,3h.18c.09-.78.18-1.53.21-1.78a7.39,7.39,0,0,1,.15-1.25L164.74,25h7.41Z" fill="#fff"/><path d="M189.51,41.19a32.28,32.28,0,0,1-7.8,1c-6.3,0-8.94-2.76-8.94-9.32,0-3.33.78-5.58,2.4-6.87,1.41-1.11,3.36-1.59,6.63-1.59s5.46.48,6.87,1.59c1.62,1.29,2.25,3.21,2.25,6.9a16.67,16.67,0,0,1-.15,2.46H180.09a2.29,2.29,0,0,0,.36,1.31c.45.63,1.8,1,3.63,1a25.1,25.1,0,0,0,6.36-1ZM185,31.62c0-1.88-.66-2.48-2.64-2.48-1.77,0-2.49.71-2.55,2.48Z" fill="#fff"/><path d="M199.82,28.84H200c.36-2.91,1.53-4.05,4.14-4.05a7.76,7.76,0,0,1,1.62.15v7.77a8.59,8.59,0,0,0-1.65-.15A3.78,3.78,0,0,0,201,33.73a2.59,2.59,0,0,0-.45,1.52c-.09.73-.15,1.27-.15,1.56v5h-7.35V25h6.75Z" fill="#fff"/><path d="M228.5,30.76h-5.22v5.18c0,1.59.42,2,2.16,2a6.34,6.34,0,0,0,1.62-.17l.93-.16-.18,4.23a31.13,31.13,0,0,1-5.82.6c-2.49,0-4.08-.39-5-1.23s-1.14-1.59-1.14-3.5V30.76h-2.28V27.22a32.63,32.63,0,0,0,5.61-5.52h4.08V25h5.22Z" fill="#fff"/><path d="M246.46,26.2c1.74,1.38,2.46,3.36,2.46,6.69,0,6.68-2.79,9.53-9.33,9.53-6.93,0-9.78-2.79-9.78-9.5a10.49,10.49,0,0,1,1.47-5.64c1.44-2,3.93-2.85,8.16-2.85C242.86,24.43,244.84,24.94,246.46,26.2Zm-9.54,7.07a7.85,7.85,0,0,0,.39,2.79,2.3,2.3,0,0,0,2.1,1.15c1.62,0,2.4-1.12,2.4-3.42,0-2.52-.63-3.39-2.37-3.39S236.92,31.18,236.92,33.27Z" fill="#fff"/><path d="M265.57,27.85h.15c.6-2.43,2.22-3.42,5.52-3.42,3.48,0,4.83,1,5.13,3.84h.18a4,4,0,0,1,1.38-2.73A6.55,6.55,0,0,1,282,24.43c2.43,0,4.05.63,4.83,1.89a9.08,9.08,0,0,1,.75,3.48v12h-7.47V32.71c0-1.59-.48-2.25-1.59-2.25s-1.65.62-1.65,1.92v9.44h-7.47V32.58c0-1.5-.45-2.09-1.56-2.09s-1.74.66-1.74,1.89v9.44h-7.47V25h6.93Z" fill="#fff"/><path d="M309.31,41.82h-7.47V39h-.15c-.9,2.46-2.07,3.18-5,3.18-2.43,0-4.14-.66-5.1-2-1.2-1.65-1.77-4.08-1.77-7.55,0-3.27.63-5.4,2-6.78,1-1,2.49-1.47,4.68-1.47,3.3,0,4.44.78,5.22,3.48h.15V25h7.47Zm-11.94-8.24c0,2.25.75,3.32,2.28,3.32s2.28-1,2.28-3.3c0-2-.63-2.84-2.19-2.84S297.37,31.66,297.37,33.58Z" fill="#fff"/><path d="M319.27,30.43c0,.11,0,.45,0,.92,0,.13,0,.55-.05,1h.23c.27-.73.39-1,.57-1.41L322.75,25h8.13L326,33.46l4.29,8.36h-7.53L320,36.46c-.24-.67-.42-1.06-.6-1.59h-.23c.05.86.08,1.43.08,1.7v5.25H312V21h7.28Z" fill="#fff"/><path d="M347.69,41.19a32.28,32.28,0,0,1-7.8,1c-6.3,0-8.94-2.76-8.94-9.32,0-3.33.78-5.58,2.4-6.87,1.41-1.11,3.36-1.59,6.63-1.59s5.46.48,6.87,1.59c1.62,1.29,2.25,3.21,2.25,6.9a16.67,16.67,0,0,1-.15,2.46H338.27a2.29,2.29,0,0,0,.36,1.31c.45.63,1.8,1,3.63,1a25.1,25.1,0,0,0,6.36-1Zm-4.5-9.57c0-1.88-.66-2.48-2.64-2.48-1.77,0-2.49.71-2.55,2.48Z" fill="#fff"/><path d="M377.78,41.82h-7.47V39h-.15c-.9,2.46-2.07,3.18-5,3.18-2.43,0-4.14-.66-5.1-2-1.2-1.65-1.77-4.08-1.77-7.55,0-3.27.63-5.4,2-6.78,1-1,2.49-1.47,4.68-1.47,3.3,0,4.44.78,5.22,3.48h.15V25h7.47Zm-11.94-8.24c0,2.25.75,3.32,2.28,3.32s2.28-1,2.28-3.3c0-2-.63-2.84-2.19-2.84S365.84,31.66,365.84,33.58Z" fill="#fff"/><path d="M394.85,28.84H395c.36-2.91,1.53-4.05,4.14-4.05a7.76,7.76,0,0,1,1.62.15v7.77a8.59,8.59,0,0,0-1.65-.15,3.78,3.78,0,0,0-3.09,1.17,2.59,2.59,0,0,0-.45,1.52c-.09.73-.15,1.27-.15,1.56v5H388.1V25h6.75Z" fill="#fff"/><path d="M409.62,22.84c0,1.11-.21,1.35-1.32,1.32h-4.8c-1.11,0-1.35-.21-1.32-1.32v-.75c0-1.14.21-1.35,1.32-1.32h4.8c1.11,0,1.35.21,1.32,1.32Zm-.09,19h-7.29V24.58c.54.36.78.42,2.82.45h1.65c2,0,2.28-.09,2.82-.45Z" fill="#fff"/><path d="M427.06,41a16.26,16.26,0,0,1-6.9,1.2c-3.09,0-5-.6-6.36-2s-2.28-4.07-2.28-7.31c0-5.85,2.79-8.52,8.85-8.52a18.71,18.71,0,0,1,6.69,1.26v6.12a16.42,16.42,0,0,0-4.74-.69c-2.25,0-3.24.81-3.24,2.69,0,2.07,1,2.86,3.57,2.86a14.52,14.52,0,0,0,4.41-.75Z" fill="#fff"/><path d="M436.9,26.62c0,.3,0,.51-.12,1.5H437c.54-2.43,2.22-3.48,5.55-3.48,3.93,0,5.79,1.71,5.79,5.31V41.82h-7.47V33a3,3,0,0,0-.21-1.56,1.7,1.7,0,0,0-1.62-.87,2.1,2.1,0,0,0-2.13,2.31v9h-7.38V21h7.38Z" fill="#fff"/><path d="M454.37,46.11H450l1.86-8.63h6.24Z" fill="#fff"/><path d="M48.56,63.28h-4.8v7.89H36.29V63.28H34.61v-5.1l1.68.12V55.06a4.27,4.27,0,0,1,1.38-3.45c1-.87,2.64-1.23,5.49-1.23,1.5,0,3,.09,5.4.27v4.62a12.81,12.81,0,0,0-2.25-.21c-1.83,0-2.55.54-2.55,1.83V58.3l4.8-.12Z" fill="#fff"/><path d="M57.83,71.17H50.36V50.38h7.47Z" fill="#fff"/><path d="M79.53,71.17H72.06V68.38h-.15c-.9,2.46-2.07,3.18-5,3.18-2.43,0-4.14-.66-5.1-2C60.6,67.93,60,65.5,60,62c0-3.27.63-5.4,2-6.78,1-1,2.49-1.47,4.68-1.47,3.3,0,4.44.78,5.22,3.48h.15V54.37h7.47ZM67.59,62.92c0,2.25.75,3.33,2.28,3.33s2.28-1,2.28-3.3c0-2-.63-2.85-2.19-2.85S67.59,61,67.59,62.92Z" fill="#fff"/><path d="M95.57,71.17H86l-5-16.8h7.5l1.5,5.34a29.7,29.7,0,0,1,.69,4.92h.18a24.5,24.5,0,0,1,.63-4.92L93,54.37h7.41Z" fill="#fff"/><path d="M117.48,55.54c1.74,1.38,2.46,3.36,2.46,6.69,0,6.69-2.79,9.54-9.33,9.54-6.93,0-9.78-2.79-9.78-9.51a10.49,10.49,0,0,1,1.47-5.64c1.44-2,3.93-2.85,8.16-2.85C113.88,53.77,115.86,54.28,117.48,55.54Zm-9.54,7.08a7.89,7.89,0,0,0,.39,2.79,2.29,2.29,0,0,0,2.1,1.14c1.62,0,2.4-1.11,2.4-3.42,0-2.52-.63-3.39-2.37-3.39S107.94,60.52,107.94,62.62Z" fill="#fff"/><path d="M128.78,58.18H129c.36-2.91,1.53-4,4.14-4a7.76,7.76,0,0,1,1.62.15v7.77a9.49,9.49,0,0,0-1.65-.15A3.78,3.78,0,0,0,130,63.07a2.6,2.6,0,0,0-.45,1.53c-.09.72-.15,1.26-.15,1.56v5H122V54.37h6.75Z" fill="#fff"/><path d="M149.53,63.28h-4.8v7.89h-7.47V63.28h-1.68v-5.1l1.68.12V55.06a4.27,4.27,0,0,1,1.38-3.45c1-.87,2.64-1.23,5.49-1.23,1.5,0,3,.09,5.4.27v4.62a12.81,12.81,0,0,0-2.25-.21c-1.83,0-2.55.54-2.55,1.83V58.3l4.8-.12Z" fill="#fff"/><path d="M169.16,64.42c0,2.79-.48,4.32-1.62,5.4-1.53,1.38-4,2.1-7.35,2.1-3.66,0-6.36-.9-7.8-2.55-.81-.93-1.2-2.55-1.2-5V54.37h7.47V65.23c0,1.62.39,2.19,1.53,2.19s1.5-.57,1.5-2.19V54.37h7.47Z" fill="#fff"/><path d="M179.28,71.17h-7.47V50.38h7.47Z" fill="#fff"/><path d="M197.07,71.17H189.6V50.38h7.47Z" fill="#fff"/><path d="M218.77,71.17H211.3V68.38h-.15c-.9,2.46-2.07,3.18-5,3.18-2.43,0-4.14-.66-5.1-2-1.2-1.65-1.77-4.08-1.77-7.56,0-3.27.63-5.4,2-6.78,1-1,2.49-1.47,4.68-1.47,3.3,0,4.44.78,5.22,3.48h.15V54.37h7.47Zm-11.94-8.25c0,2.25.75,3.33,2.28,3.33s2.28-1,2.28-3.3c0-2-.63-2.85-2.19-2.85S206.83,61,206.83,62.92Z" fill="#fff"/><path d="M235.23,60.1H230v5.19c0,1.59.42,2,2.16,2a6.38,6.38,0,0,0,1.62-.18l.93-.15-.18,4.23a31.13,31.13,0,0,1-5.82.6c-2.49,0-4.08-.39-5-1.23S222.6,69,222.6,67V60.1h-2.28V56.56A32.63,32.63,0,0,0,225.93,51H230v3.33h5.22Z" fill="#fff"/><path d="M251.24,60.1H246v5.19c0,1.59.42,2,2.16,2a6.38,6.38,0,0,0,1.62-.18l.93-.15-.18,4.23a31.13,31.13,0,0,1-5.82.6c-2.49,0-4.08-.39-5-1.23S238.61,69,238.61,67V60.1h-2.28V56.56A32.63,32.63,0,0,0,241.94,51H246v3.33h5.22Z" fill="#fff"/><path d="M269.31,70.54a32.28,32.28,0,0,1-7.8,1c-6.3,0-8.94-2.76-8.94-9.33,0-3.33.78-5.58,2.4-6.87,1.41-1.11,3.36-1.59,6.63-1.59s5.46.48,6.87,1.59c1.62,1.29,2.25,3.21,2.25,6.9a16.67,16.67,0,0,1-.15,2.46H259.89a2.3,2.3,0,0,0,.36,1.32c.45.63,1.8,1,3.63,1a25.56,25.56,0,0,0,6.36-1ZM264.81,61c0-1.89-.66-2.49-2.64-2.49-1.77,0-2.49.72-2.55,2.49Z" fill="#fff"/><path d="M299.4,71.17h-7.47V68.38h-.15c-.9,2.46-2.07,3.18-5,3.18-2.43,0-4.14-.66-5.1-2-1.2-1.65-1.77-4.08-1.77-7.56,0-3.27.63-5.4,2-6.78,1-1,2.49-1.47,4.68-1.47,3.3,0,4.44.78,5.22,3.48h.15V54.37h7.47Zm-11.94-8.25c0,2.25.75,3.33,2.28,3.33s2.28-1,2.28-3.3c0-2-.63-2.85-2.19-2.85S287.46,61,287.46,62.92Z" fill="#fff"/><path d="M315.87,60.1h-5.22v5.19c0,1.59.42,2,2.16,2a6.38,6.38,0,0,0,1.62-.18l.93-.15-.18,4.23a31.13,31.13,0,0,1-5.82.6c-2.49,0-4.08-.39-5-1.23S303.24,69,303.24,67V60.1H301V56.56A32.63,32.63,0,0,0,306.57,51h4.08v3.33h5.22Z" fill="#fff"/><path d="M332.79,56c0,.3,0,.51-.12,1.5h.21C333.42,55,335.1,54,338.43,54c3.93,0,5.79,1.71,5.79,5.31V71.17h-7.47V62.29a3,3,0,0,0-.21-1.56,1.7,1.7,0,0,0-1.62-.87,2.1,2.1,0,0,0-2.13,2.31v9h-7.38V50.38h7.38Z" fill="#fff"/><path d="M362.89,55.54c1.74,1.38,2.46,3.36,2.46,6.69,0,6.69-2.79,9.54-9.33,9.54-6.93,0-9.78-2.79-9.78-9.51a10.49,10.49,0,0,1,1.47-5.64c1.44-2,3.93-2.85,8.16-2.85C359.29,53.77,361.27,54.28,362.89,55.54Zm-9.54,7.08a7.89,7.89,0,0,0,.39,2.79,2.29,2.29,0,0,0,2.1,1.14c1.62,0,2.4-1.11,2.4-3.42,0-2.52-.63-3.39-2.37-3.39S353.35,60.52,353.35,62.62Z" fill="#fff"/><path d="M374.37,57.19h.15c.6-2.43,2.22-3.42,5.52-3.42,3.48,0,4.83,1,5.13,3.84h.18a4,4,0,0,1,1.38-2.73,6.52,6.52,0,0,1,4.07-1.11c2.43,0,4.05.63,4.83,1.89a9.08,9.08,0,0,1,.75,3.48v12h-7.46V62.05c0-1.59-.48-2.25-1.59-2.25s-1.65.63-1.65,1.92v9.45h-7.47V61.93c0-1.5-.45-2.1-1.56-2.1s-1.74.66-1.74,1.89v9.45h-7.47V54.37h6.93Z" fill="#fff"/><path d="M415.21,70.54a32.28,32.28,0,0,1-7.8,1c-6.3,0-8.94-2.76-8.94-9.33,0-3.33.78-5.58,2.4-6.87,1.41-1.11,3.36-1.59,6.63-1.59,3.42,0,5.46.48,6.87,1.59,1.62,1.29,2.25,3.21,2.25,6.9a16.67,16.67,0,0,1-.15,2.46H405.79a2.3,2.3,0,0,0,.36,1.32c.45.63,1.8,1,3.63,1a25.56,25.56,0,0,0,6.36-1ZM410.71,61c0-1.89-.66-2.49-2.64-2.49-1.77,0-2.49.72-2.55,2.49Z" fill="#fff"/></g></g></svg>