<svg xmlns="http://www.w3.org/2000/svg" viewBox="0 0 970 90"><g id="Layer_2" data-name="Layer 2"><g id="rect"><rect width="970" height="90" fill="none"/></g><g id="Enjoy_a_café-style_latte_in_just_one_step" data-name="Enjoy a café-style latte  in just one step"><path d="M51.34,26.76H42.22V29h9.12v4.52H42.22v2.19h9.12v5.07H34.81v-20H51.34Z" fill="#fff"/><path d="M60.91,27h.18c.54-2.34,2.28-3.36,5.64-3.36,2.37,0,4,.57,5.07,1.68a5.88,5.88,0,0,1,1,3.75V40.82H65.38V32c0-1.48,0-1.56-.33-1.92a1.79,1.79,0,0,0-1.53-.63,2,2,0,0,0-2.16,2.19v9.14H54V24h6.87Z" fill="#fff"/><path d="M83.23,38.63c0,3.21-.39,4.44-1.62,5.25-1,.66-2.4.93-4.89.93A23.82,23.82,0,0,1,74,44.69v-4c.23,0,.5.06.62.06a1.33,1.33,0,0,0,1.17-.48c.13-.21.15-.3.18-1.17V23.58c.54.36.75.42,2.79.45h1.68c2.13-.06,2.4-.09,2.79-.45Zm.06-16.79c0,1.11-.21,1.35-1.35,1.32H77.26c-1.14,0-1.38-.18-1.34-1.32v-.75c0-1.11.2-1.35,1.34-1.32h4.68c1.14,0,1.38.21,1.35,1.32Z" fill="#fff"/><path d="M101.92,25.2c1.74,1.38,2.46,3.36,2.46,6.69,0,6.68-2.79,9.53-9.33,9.53-6.93,0-9.78-2.79-9.78-9.5a10.49,10.49,0,0,1,1.47-5.64c1.44-2,3.93-2.85,8.16-2.85C98.32,23.43,100.3,23.94,101.92,25.2Zm-9.54,7.07a7.85,7.85,0,0,0,.39,2.79,2.3,2.3,0,0,0,2.1,1.15c1.62,0,2.4-1.12,2.4-3.42,0-2.52-.63-3.39-2.37-3.39S92.38,30.18,92.38,32.27Z" fill="#fff"/><path d="M111.35,40.28V40.1c-1.23-.42-1.92-1.22-2.43-2.88L104.81,24h7.26l1.32,5a28.62,28.62,0,0,1,.57,5.28h.21a29.19,29.19,0,0,1,.63-5.17L116.06,24h7.47l-5.1,15.59c-1.41,4.2-2.46,5.1-6.09,5.19h-5.13l-.33-4.53Z" fill="#fff"/><path d="M151.73,40.82h-7.47V38h-.15c-.9,2.46-2.07,3.18-5,3.18-2.43,0-4.14-.66-5.1-2-1.2-1.65-1.77-4.08-1.77-7.55,0-3.27.63-5.4,2-6.78,1-1,2.49-1.47,4.68-1.47,3.3,0,4.44.78,5.22,3.48h.15V24h7.47Zm-11.94-8.24c0,2.25.75,3.32,2.28,3.32s2.28-1,2.28-3.3c0-2-.63-2.84-2.19-2.84S139.79,30.66,139.79,32.58Z" fill="#fff"/><path d="M177,40a16.26,16.26,0,0,1-6.9,1.2c-3.09,0-5-.6-6.36-2s-2.28-4.07-2.28-7.31c0-5.85,2.79-8.52,8.85-8.52A18.71,18.71,0,0,1,177,24.69v6.12a16.42,16.42,0,0,0-4.74-.69c-2.25,0-3.24.81-3.24,2.69,0,2.07,1,2.86,3.57,2.86a14.52,14.52,0,0,0,4.41-.75Z" fill="#fff"/><path d="M198.34,40.82h-7.47V38h-.15c-.9,2.46-2.07,3.18-5,3.18-2.43,0-4.14-.66-5.1-2-1.2-1.65-1.77-4.08-1.77-7.55,0-3.27.63-5.4,2-6.78,1-1,2.49-1.47,4.68-1.47,3.3,0,4.44.78,5.22,3.48h.15V24h7.47ZM186.4,32.58c0,2.25.75,3.32,2.28,3.32s2.28-1,2.28-3.3c0-2-.63-2.84-2.19-2.84S186.4,30.66,186.4,32.58Z" fill="#fff"/><path d="M214.13,32.94h-4.8v7.88h-7.47V32.94h-1.68v-5.1l1.68.12V24.72a4.27,4.27,0,0,1,1.38-3.45c1-.87,2.64-1.23,5.49-1.23,1.5,0,3,.09,5.4.27v4.62a12.81,12.81,0,0,0-2.25-.21c-1.83,0-2.55.54-2.55,1.83V28l4.8-.12Z" fill="#fff"/><path d="M232.17,40.19a32.28,32.28,0,0,1-7.8,1c-6.3,0-8.94-2.76-8.94-9.32,0-3.33.78-5.58,2.4-6.87,1.41-1.11,3.36-1.59,6.63-1.59s5.46.48,6.87,1.59c1.62,1.29,2.25,3.21,2.25,6.9a16.67,16.67,0,0,1-.15,2.46H222.75a2.29,2.29,0,0,0,.36,1.31c.45.63,1.8,1,3.63,1a25.1,25.1,0,0,0,6.36-1Zm-1.86-22.07L226.47,22h-4.68l2.85-3.9Zm-2.64,12.5c0-1.88-.66-2.48-2.64-2.48-1.77,0-2.49.71-2.55,2.48Z" fill="#fff"/><path d="M243.14,29.37v5.34h-7.95V29.37Z" fill="#fff"/><path d="M260.3,29.37a41.21,41.21,0,0,0-5-.33c-2.94,0-3.24.08-3.24,1s.39,1,1.65,1a23.35,23.35,0,0,1,4.29.21c2.13.35,3.06,1.68,3.06,4.37,0,2.34-.72,4-2.16,4.8-1.08.66-3.09,1-5.82,1a40.67,40.67,0,0,1-7.86-.81V36.35a59.3,59.3,0,0,0,6.6.36c1.29,0,1.68-.21,1.68-1,0-.92-.27-1-2.85-1a9.75,9.75,0,0,1-3.63-.39c-1.74-.57-2.52-2.09-2.52-4.88,0-4.38,2-5.82,8-5.82a53,53,0,0,1,7.8.66Z" fill="#fff"/><path d="M276.74,29.76h-5.22v5.18c0,1.59.42,2,2.16,2a6.34,6.34,0,0,0,1.62-.17l.93-.16-.18,4.23a31.13,31.13,0,0,1-5.82.6c-2.49,0-4.08-.39-5-1.23s-1.14-1.59-1.14-3.5V29.76h-2.28V26.22a32.63,32.63,0,0,0,5.61-5.52h4.08V24h5.22Z" fill="#fff"/><path d="M284.41,40.28V40.1c-1.23-.42-1.92-1.22-2.43-2.88L277.87,24h7.26l1.32,5a28.62,28.62,0,0,1,.57,5.28h.21a29.19,29.19,0,0,1,.63-5.17L289.12,24h7.47l-5.1,15.59c-1.41,4.2-2.46,5.1-6.09,5.19h-5.13l-.33-4.53Z" fill="#fff"/><path d="M305.59,40.82h-7.47V20h7.47Z" fill="#fff"/><path d="M324.41,40.19a32.28,32.28,0,0,1-7.8,1c-6.3,0-8.94-2.76-8.94-9.32,0-3.33.78-5.58,2.4-6.87,1.41-1.11,3.36-1.59,6.63-1.59,3.42,0,5.46.48,6.87,1.59,1.62,1.29,2.25,3.21,2.25,6.9a16.67,16.67,0,0,1-.15,2.46H315a2.29,2.29,0,0,0,.36,1.31c.45.63,1.8,1,3.63,1a25.1,25.1,0,0,0,6.36-1Zm-4.5-9.57c0-1.88-.66-2.48-2.64-2.48-1.77,0-2.49.71-2.55,2.48Z" fill="#fff"/><path d="M343,40.82h-7.47V20H343Z" fill="#fff"/><path d="M364.68,40.82h-7.47V38h-.15c-.9,2.46-2.07,3.18-5,3.18-2.43,0-4.14-.66-5.1-2-1.2-1.65-1.77-4.08-1.77-7.55,0-3.27.63-5.4,2-6.78,1-1,2.49-1.47,4.68-1.47,3.3,0,4.44.78,5.22,3.48h.15V24h7.47Zm-11.94-8.24c0,2.25.75,3.32,2.28,3.32s2.28-1,2.28-3.3c0-2-.63-2.84-2.19-2.84S352.74,30.66,352.74,32.58Z" fill="#fff"/><path d="M381.14,29.76h-5.22v5.18c0,1.59.42,2,2.16,2a6.34,6.34,0,0,0,1.62-.17l.93-.16-.18,4.23a31.13,31.13,0,0,1-5.82.6c-2.49,0-4.08-.39-5-1.23s-1.14-1.59-1.14-3.5V29.76h-2.28V26.22a32.63,32.63,0,0,0,5.61-5.52h4.08V24h5.22Z" fill="#fff"/><path d="M397.15,29.76h-5.22v5.18c0,1.59.42,2,2.16,2a6.34,6.34,0,0,0,1.62-.17l.93-.16-.18,4.23a31.13,31.13,0,0,1-5.82.6c-2.49,0-4.08-.39-5-1.23s-1.14-1.59-1.14-3.5V29.76h-2.28V26.22a32.63,32.63,0,0,0,5.61-5.52h4.08V24h5.22Z" fill="#fff"/><path d="M415.22,40.19a32.28,32.28,0,0,1-7.8,1c-6.3,0-8.94-2.76-8.94-9.32,0-3.33.78-5.58,2.4-6.87,1.41-1.11,3.36-1.59,6.63-1.59,3.42,0,5.46.48,6.87,1.59,1.62,1.29,2.25,3.21,2.25,6.9a16.67,16.67,0,0,1-.15,2.46H405.8a2.29,2.29,0,0,0,.36,1.31c.45.63,1.8,1,3.63,1a25.1,25.1,0,0,0,6.36-1Zm-4.5-9.57c0-1.88-.66-2.48-2.64-2.48-1.77,0-2.49.71-2.55,2.48Z" fill="#fff"/><path d="M42.19,51.18c0,1.11-.21,1.35-1.32,1.32h-4.8c-1.11,0-1.35-.21-1.32-1.32v-.75c0-1.14.21-1.35,1.32-1.32h4.8c1.11,0,1.35.21,1.32,1.32Zm-.09,19H34.81V52.92c.54.36.78.42,2.82.45h1.65c2,0,2.28-.09,2.82-.45Z" fill="#fff"/><path d="M51.64,56.34h.18C52.36,54,54.1,53,57.46,53c2.37,0,4,.57,5.07,1.68a5.88,5.88,0,0,1,1,3.75V70.17H56.11V61.38c0-1.47,0-1.56-.33-1.92a1.79,1.79,0,0,0-1.53-.63A2,2,0,0,0,52.09,61v9.15H44.77V53.37h6.87Z" fill="#fff"/><path d="M81.21,68c0,3.21-.38,4.44-1.61,5.25-1,.66-2.4.93-4.89.93A24,24,0,0,1,72,74V70c.24,0,.51.06.63.06a1.35,1.35,0,0,0,1.17-.48c.12-.21.15-.3.18-1.17V52.92c.54.36.75.42,2.79.45h1.68c2.13-.06,2.4-.09,2.78-.45Zm.06-16.8c0,1.11-.21,1.35-1.35,1.32H75.25c-1.14,0-1.38-.18-1.35-1.32v-.75c0-1.11.21-1.35,1.35-1.32h4.67c1.14,0,1.39.21,1.35,1.32Z" fill="#fff"/><path d="M101.78,63.42c0,2.79-.48,4.32-1.62,5.4-1.53,1.38-4,2.1-7.35,2.1-3.66,0-6.36-.9-7.8-2.55-.81-.93-1.2-2.55-1.2-5V53.37h7.47V64.23c0,1.62.39,2.19,1.53,2.19s1.5-.57,1.5-2.19V53.37h7.47Z" fill="#fff"/><path d="M119.56,58.71a41.21,41.21,0,0,0-5-.33c-2.94,0-3.24.09-3.24,1s.39,1,1.65,1a24.31,24.31,0,0,1,4.29.21c2.13.36,3.06,1.68,3.06,4.38,0,2.34-.72,4-2.16,4.8-1.08.66-3.09,1-5.82,1A40.67,40.67,0,0,1,104.5,70V65.7a59.3,59.3,0,0,0,6.6.36c1.29,0,1.68-.21,1.68-1,0-.93-.27-1-2.85-1a9.75,9.75,0,0,1-3.63-.39c-1.74-.57-2.52-2.1-2.52-4.89,0-4.38,2-5.82,8-5.82a53,53,0,0,1,7.8.66Z" fill="#fff"/><path d="M136,59.1h-5.22v5.19c0,1.59.42,2,2.16,2a6.38,6.38,0,0,0,1.62-.18l.93-.15-.18,4.23a31.13,31.13,0,0,1-5.82.6c-2.49,0-4.08-.39-5-1.23S123.38,68,123.38,66V59.1H121.1V55.56A32.63,32.63,0,0,0,126.71,50h4.08v3.33H136Z" fill="#fff"/><path d="M161.6,54.54c1.74,1.38,2.46,3.36,2.46,6.69,0,6.69-2.79,9.54-9.33,9.54-6.93,0-9.78-2.79-9.78-9.51a10.49,10.49,0,0,1,1.47-5.64c1.44-2,3.93-2.85,8.16-2.85C158,52.77,160,53.28,161.6,54.54Zm-9.54,7.08a7.89,7.89,0,0,0,.39,2.79,2.29,2.29,0,0,0,2.1,1.14c1.62,0,2.4-1.11,2.4-3.42,0-2.52-.63-3.39-2.37-3.39S152.06,59.52,152.06,61.62Z" fill="#fff"/><path d="M173,56.34h.18c.54-2.34,2.28-3.36,5.64-3.36,2.37,0,4,.57,5.07,1.68a5.88,5.88,0,0,1,1,3.75V70.17h-7.47V61.38c0-1.47,0-1.56-.33-1.92a1.79,1.79,0,0,0-1.53-.63A2,2,0,0,0,173.46,61v9.15h-7.32V53.37H173Z" fill="#fff"/><path d="M203.73,69.54a32.28,32.28,0,0,1-7.8,1c-6.3,0-8.94-2.76-8.94-9.33,0-3.33.78-5.58,2.4-6.87,1.41-1.11,3.36-1.59,6.63-1.59s5.46.48,6.87,1.59c1.62,1.29,2.25,3.21,2.25,6.9a16.67,16.67,0,0,1-.15,2.46H194.31a2.3,2.3,0,0,0,.36,1.32c.45.63,1.8,1,3.63,1a25.56,25.56,0,0,0,6.36-1ZM199.23,60c0-1.89-.66-2.49-2.64-2.49-1.77,0-2.49.72-2.55,2.49Z" fill="#fff"/><path d="M229.92,58.71a41.21,41.21,0,0,0-5-.33c-2.94,0-3.24.09-3.24,1s.39,1,1.65,1a24.31,24.31,0,0,1,4.29.21c2.13.36,3.06,1.68,3.06,4.38,0,2.34-.72,4-2.16,4.8-1.08.66-3.09,1-5.82,1a40.67,40.67,0,0,1-7.86-.81V65.7a59.3,59.3,0,0,0,6.6.36c1.29,0,1.68-.21,1.68-1,0-.93-.27-1-2.85-1a9.75,9.75,0,0,1-3.63-.39c-1.74-.57-2.52-2.1-2.52-4.89,0-4.38,2-5.82,8-5.82a53,53,0,0,1,7.8.66Z" fill="#fff"/><path d="M246.37,59.1h-5.22v5.19c0,1.59.42,2,2.16,2a6.38,6.38,0,0,0,1.62-.18l.93-.15-.18,4.23a31.13,31.13,0,0,1-5.82.6c-2.49,0-4.08-.39-5-1.23S233.74,68,233.74,66V59.1h-2.28V55.56A32.63,32.63,0,0,0,237.07,50h4.08v3.33h5.22Z" fill="#fff"/><path d="M264.44,69.54a32.28,32.28,0,0,1-7.8,1c-6.3,0-8.94-2.76-8.94-9.33,0-3.33.78-5.58,2.4-6.87,1.41-1.11,3.36-1.59,6.63-1.59s5.46.48,6.87,1.59c1.62,1.29,2.25,3.21,2.25,6.9a16.67,16.67,0,0,1-.15,2.46H255a2.3,2.3,0,0,0,.36,1.32c.45.63,1.8,1,3.63,1a25.56,25.56,0,0,0,6.36-1ZM259.94,60c0-1.89-.66-2.49-2.64-2.49-1.77,0-2.49.72-2.55,2.49Z" fill="#fff"/><path d="M275.47,56.31h.21c.42-2.52,1.89-3.54,5-3.54,4.86,0,6.72,2.34,6.72,8.43,0,3.45-.48,5.55-1.59,7.14-1,1.41-2.91,2.22-5.31,2.22-2.85,0-4.23-.9-4.86-3.18h-.21v6.78H268V53.37h7.47Zm-.15,5.79c0,2.25.66,3.21,2.22,3.21s2.34-1,2.34-3.57c0-1.77-.75-2.64-2.31-2.64S275.32,60,275.32,62.1Z" fill="#fff"/></g></g></svg>