<svg xmlns="http://www.w3.org/2000/svg" viewBox="0 0 300 250"><g id="Layer_2" data-name="Layer 2"><g id="rect"><rect width="300" height="250" fill="none"/></g><g id="Layer_8" data-name="Layer 8"><rect x="20" y="202.97" width="104" height="27.03" rx="13.52" fill="#027261"/><path d="M41.78,215a20.4,20.4,0,0,0-2.86-.26c-1.06,0-1.43.16-1.43.6s.27.57.86.57h.44a4.71,4.71,0,0,1,2.28.35,2.38,2.38,0,0,1,1,2.25c0,2.25-1.13,3.16-3.92,3.16a26.56,26.56,0,0,1-4-.35v-2.41a17.66,17.66,0,0,0,2.81.23c1.13,0,1.39-.12,1.39-.58s-.22-.55-.82-.55a7,7,0,0,1-2.23-.18c-1-.27-1.51-1.29-1.51-2.88,0-2.35,1.15-3.21,4.3-3.21a16.1,16.1,0,0,1,3.66.42Z" fill="#fff"/><path d="M46.62,214.23a6.65,6.65,0,0,1-.06.72h.1c.26-1.16,1.06-1.66,2.65-1.66,1.88,0,2.77.81,2.77,2.53v5.68H48.51v-4.24a1.41,1.41,0,0,0-.1-.75.8.8,0,0,0-.77-.42,1,1,0,0,0-1,1.11v4.3H43.09v-9.93h3.53Z" fill="#fff"/><path d="M61.05,214c.83.66,1.17,1.61,1.17,3.2,0,3.19-1.33,4.55-4.45,4.55-3.31,0-4.68-1.33-4.68-4.54a5,5,0,0,1,.71-2.69c.68-1,1.87-1.36,3.89-1.36A5.1,5.1,0,0,1,61.05,214Zm-4.56,3.38a3.7,3.7,0,0,0,.19,1.34,1.08,1.08,0,0,0,1,.54c.77,0,1.15-.53,1.15-1.63S58.52,216,57.69,216,56.49,216.41,56.49,217.41Z" fill="#fff"/><path d="M66.83,214.88h.1c.2-1.21.91-1.69,2.41-1.69,2.32,0,3.21,1.11,3.21,4a5.71,5.71,0,0,1-.76,3.41,3,3,0,0,1-2.54,1.06c-1.36,0-2-.43-2.32-1.51h-.1v3.23H63.26v-9.93h3.57Zm-.07,2.76c0,1.08.32,1.54,1.06,1.54s1.12-.51,1.12-1.71c0-.84-.36-1.26-1.1-1.26S66.76,216.64,66.76,217.64Z" fill="#fff"/><path d="M86.71,221.5H83L80.82,217a2.83,2.83,0,0,1-.2-.52h-.08a6.59,6.59,0,0,1,.08.88v4.1h-3.4v-9.56h4.16l1.42,2.94a13.29,13.29,0,0,1,.52,1.37h.07a7,7,0,0,1-.07-1v-3.32h3.39Z" fill="#fff"/><path d="M95.73,214c.83.66,1.18,1.61,1.18,3.2,0,3.19-1.34,4.55-4.46,4.55-3.31,0-4.67-1.33-4.67-4.54a5,5,0,0,1,.7-2.69c.69-1,1.88-1.36,3.9-1.36A5.07,5.07,0,0,1,95.73,214Zm-4.56,3.38a3.93,3.93,0,0,0,.19,1.34,1.09,1.09,0,0,0,1,.54c.78,0,1.15-.53,1.15-1.63s-.3-1.62-1.13-1.62S91.17,216.41,91.17,217.41Z" fill="#fff"/><path d="M108.74,221.5H105l-.66-2.61A16.08,16.08,0,0,1,104,217h-.06a12.51,12.51,0,0,1-.26,1.92L103,221.5H99.15l-1.92-8h3.61l.67,3.5a9.33,9.33,0,0,1,.17,1.45h.08l.08-.76a6.68,6.68,0,0,1,.09-.69l.67-3.5h2.7L106,217a8.54,8.54,0,0,1,.16,1.45h.09c0-.38.08-.73.1-.85a3.63,3.63,0,0,1,.07-.6l.69-3.5h3.54Z" fill="#fff"/></g></g></svg>