<svg xmlns="http://www.w3.org/2000/svg" viewBox="0 0 300 250"><g id="Layer_2" data-name="Layer 2"><g id="rect"><rect width="300" height="250" fill="none"/></g><g id="The_power_to_make_a_rich_flavorful_latte_at_home" data-name="The power to make  a rich, flavorful  latte at home"><path d="M31.61,61.41H27.09V72.82H20.33V61.41H15.91V55.48h15.7Z" fill="#fff"/><path d="M39.48,59.64c0,.26,0,.44-.11,1.3h.18c.47-2.1,1.93-3,4.81-3,3.41,0,5,1.48,5,4.6V72.82H42.91V65.13a2.66,2.66,0,0,0-.18-1.35A1.48,1.48,0,0,0,41.32,63a1.81,1.81,0,0,0-1.84,2v7.8h-6.4v-18h6.4Z" fill="#fff"/><path d="M65.67,72.28a28.21,28.21,0,0,1-6.76.88c-5.46,0-7.74-2.39-7.74-8.08,0-2.89.67-4.84,2.08-6,1.22-1,2.91-1.38,5.74-1.38s4.73.42,6,1.38c1.4,1.12,2,2.78,2,6a15,15,0,0,1-.13,2.13H57.51a2,2,0,0,0,.31,1.15c.39.54,1.56.88,3.15.88a22.18,22.18,0,0,0,5.51-.83ZM61.77,64c0-1.63-.57-2.15-2.28-2.15-1.54,0-2.16.62-2.21,2.15Z" fill="#fff"/><path d="M81.77,60.81H82c.36-2.18,1.64-3.07,4.37-3.07,4.21,0,5.82,2,5.82,7.31,0,3-.41,4.81-1.38,6.19a5.47,5.47,0,0,1-4.6,1.92c-2.47,0-3.66-.78-4.21-2.75h-.18v5.87H75.29v-18h6.48Zm-.13,5c0,2,.57,2.78,1.92,2.78s2-.91,2-3.09c0-1.54-.65-2.29-2-2.29S81.64,64,81.64,65.83Z" fill="#fff"/><path d="M107.92,59.28c1.51,1.19,2.13,2.91,2.13,5.8,0,5.79-2.42,8.26-8.09,8.26-6,0-8.47-2.41-8.47-8.24a9.13,9.13,0,0,1,1.27-4.89c1.25-1.71,3.41-2.47,7.07-2.47C104.8,57.74,106.51,58.19,107.92,59.28Zm-8.27,6.13a6.76,6.76,0,0,0,.34,2.42,2,2,0,0,0,1.82,1c1.4,0,2.08-1,2.08-3,0-2.19-.55-2.94-2.06-2.94S99.65,63.59,99.65,65.41Z" fill="#fff"/><path d="M131.45,72.82h-6.87l-1.19-4.73a30.49,30.49,0,0,1-.57-3.48h-.11a25,25,0,0,1-.47,3.48l-1.17,4.73h-7l-3.48-14.56h6.55l1.22,6.35a18.68,18.68,0,0,1,.32,2.62h.13l.15-1.37c0-.58.13-1.12.16-1.25l1.22-6.35h4.89l1.25,6.35a18.17,18.17,0,0,1,.28,2.62h.16c.08-.67.15-1.32.18-1.53a6.5,6.5,0,0,1,.13-1.09l1.25-6.35h6.42Z" fill="#fff"/><path d="M150,72.28a28.33,28.33,0,0,1-6.76.88c-5.46,0-7.75-2.39-7.75-8.08,0-2.89.67-4.84,2.08-6,1.22-1,2.91-1.38,5.74-1.38s4.74.42,6,1.38c1.4,1.12,1.95,2.78,1.95,6a15,15,0,0,1-.13,2.13h-9.26a2.1,2.1,0,0,0,.31,1.15c.39.54,1.56.88,3.15.88a22.18,22.18,0,0,0,5.51-.83Zm-3.9-8.3c0-1.63-.58-2.15-2.29-2.15-1.54,0-2.16.62-2.21,2.15Z" fill="#fff"/><path d="M158.91,61.57h.15c.32-2.53,1.33-3.51,3.59-3.51a6.38,6.38,0,0,1,1.41.13v6.73a8.69,8.69,0,0,0-1.43-.13,3.27,3.27,0,0,0-2.68,1c-.24.34-.29.47-.39,1.33a13,13,0,0,0-.13,1.35v4.34h-6.37V58.26h5.85Z" fill="#fff"/><path d="M183.76,63.23h-4.52v4.5c0,1.38.36,1.71,1.87,1.71a5.56,5.56,0,0,0,1.41-.15l.8-.13-.15,3.66a26.53,26.53,0,0,1-5,.52c-2.16,0-3.53-.33-4.31-1.06s-1-1.38-1-3v-6h-2V60.16a28.24,28.24,0,0,0,4.86-4.78h3.54v2.88h4.52Z" fill="#fff"/><path d="M199.36,59.28c1.51,1.19,2.13,2.91,2.13,5.8,0,5.79-2.42,8.26-8.09,8.26-6,0-8.47-2.41-8.47-8.24a9.13,9.13,0,0,1,1.27-4.89c1.25-1.71,3.41-2.47,7.07-2.47C196.24,57.74,198,58.19,199.36,59.28Zm-8.27,6.13a6.76,6.76,0,0,0,.34,2.42,2,2,0,0,0,1.82,1c1.4,0,2.08-1,2.08-3,0-2.19-.55-2.94-2.06-2.94S191.09,63.59,191.09,65.41Z" fill="#fff"/><path d="M215.92,60.71h.13c.52-2.11,1.92-3,4.78-3,3,0,4.19.89,4.45,3.33h.16a3.42,3.42,0,0,1,1.19-2.36,5.64,5.64,0,0,1,3.54-1c2.1,0,3.51.55,4.18,1.64a7.73,7.73,0,0,1,.65,3V72.82h-6.47v-7.9c0-1.38-.42-2-1.38-2s-1.43.55-1.43,1.66v8.19h-6.47v-8c0-1.3-.39-1.82-1.35-1.82s-1.51.57-1.51,1.63v8.19h-6.48V58.26h6Z" fill="#fff"/><path d="M253.85,72.82h-6.47V70.41h-.13c-.78,2.13-1.8,2.75-4.34,2.75-2.11,0-3.59-.57-4.42-1.71-1-1.43-1.54-3.54-1.54-6.56,0-2.83.55-4.68,1.72-5.87a5.36,5.36,0,0,1,4.05-1.28c2.86,0,3.85.68,4.53,3h.13v-2.5h6.47ZM243.5,65.67c0,2,.65,2.89,2,2.89s2-.83,2-2.86c0-1.77-.55-2.47-1.9-2.47S243.5,64,243.5,65.67Z" fill="#fff"/><path d="M262.52,62.94c0,.11,0,.39,0,.81,0,.1,0,.47-.05.86h.21a11.94,11.94,0,0,1,.49-1.22l2.39-5.13h7.05l-4.24,7.31,3.72,7.25h-6.53l-2.36-4.65c-.21-.57-.37-.91-.52-1.38h-.21c.05.76.08,1.25.08,1.48v4.55H256.2v-18h6.32Z" fill="#fff"/><path d="M287.17,72.28a28.21,28.21,0,0,1-6.76.88c-5.46,0-7.75-2.39-7.75-8.08,0-2.89.68-4.84,2.08-6,1.23-1,2.92-1.38,5.75-1.38s4.73.42,5.95,1.38c1.41,1.12,1.95,2.78,1.95,6a13.62,13.62,0,0,1-.13,2.13H279a1.94,1.94,0,0,0,.31,1.15c.39.54,1.56.88,3.15.88a22.31,22.31,0,0,0,5.51-.83Zm-3.9-8.3c0-1.63-.57-2.15-2.29-2.15-1.53,0-2.15.62-2.21,2.15Z" fill="#fff"/><path d="M33,102.82H26.52v-2.41h-.13c-.78,2.13-1.8,2.75-4.35,2.75-2.1,0-3.58-.57-4.42-1.71-1-1.43-1.53-3.54-1.53-6.56,0-2.83.55-4.68,1.72-5.87.88-.89,2.15-1.28,4.05-1.28,2.86,0,3.85.68,4.53,3h.13v-2.5H33ZM22.64,95.67c0,2,.65,2.89,2,2.89s2-.83,2-2.86c0-1.77-.54-2.47-1.89-2.47S22.64,94,22.64,95.67Z" fill="#fff"/><path d="M47.78,91.57h.16c.31-2.53,1.33-3.51,3.59-3.51a6.29,6.29,0,0,1,1.4.13v6.73a8.61,8.61,0,0,0-1.43-.13,3.29,3.29,0,0,0-2.68,1,2.35,2.35,0,0,0-.39,1.33c-.07.62-.13,1.09-.13,1.35v4.34H41.93V88.26h5.85Z" fill="#fff"/><path d="M60.61,86.37c0,1-.18,1.17-1.15,1.14H55.3c-1,0-1.17-.18-1.14-1.14v-.65c0-1,.18-1.17,1.14-1.15h4.16c1,0,1.17.18,1.15,1.15Zm-.08,16.45H54.21V87.87c.47.32.68.37,2.45.39h1.43c1.76,0,2-.07,2.44-.39Z" fill="#fff"/><path d="M75.75,102.15a14.18,14.18,0,0,1-6,1c-2.68,0-4.32-.52-5.51-1.72s-2-3.53-2-6.34c0-5.07,2.42-7.39,7.67-7.39a16.24,16.24,0,0,1,5.8,1.1v5.3a14.6,14.6,0,0,0-4.11-.6c-2,0-2.81.7-2.81,2.34,0,1.8.83,2.47,3.1,2.47a12.16,12.16,0,0,0,3.82-.65Z" fill="#fff"/><path d="M84.3,89.64c0,.26,0,.44-.1,1.3h.18c.47-2.1,1.93-3,4.81-3,3.41,0,5,1.48,5,4.6v10.29H87.74V95.13a2.51,2.51,0,0,0-.19-1.35,1.46,1.46,0,0,0-1.4-.76,1.82,1.82,0,0,0-1.85,2v7.8H77.91v-18H84.3Z" fill="#fff"/><path d="M99.47,106.54H95.65l1.61-7.49h5.41Z" fill="#fff"/><path d="M122.38,96h-4.16v6.83h-6.48V96h-1.45V91.57l1.45.1V88.86a3.69,3.69,0,0,1,1.2-3c.86-.75,2.29-1.06,4.76-1.06,1.3,0,2.57.07,4.68.23v4a11.11,11.11,0,0,0-1.95-.18c-1.59,0-2.21.47-2.21,1.59v1.22l4.16-.1Z" fill="#fff"/><path d="M130.44,102.82H124v-18h6.47Z" fill="#fff"/><path d="M149.27,102.82H142.8v-2.41h-.13c-.78,2.13-1.8,2.75-4.34,2.75-2.11,0-3.59-.57-4.42-1.71-1-1.43-1.54-3.54-1.54-6.56,0-2.83.55-4.68,1.72-5.87a5.36,5.36,0,0,1,4-1.28c2.86,0,3.85.68,4.53,3h.13v-2.5h6.47Zm-10.35-7.15c0,2,.65,2.89,2,2.89s2-.83,2-2.86c0-1.77-.55-2.47-1.9-2.47S138.92,94,138.92,95.67Z" fill="#fff"/><path d="M163.2,102.82h-8.29l-4.29-14.56h6.5l1.3,4.63a25.89,25.89,0,0,1,.6,4.27h.15a21.36,21.36,0,0,1,.55-4.27L161,88.26h6.42Z" fill="#fff"/><path d="M182.22,89.28c1.51,1.19,2.13,2.91,2.13,5.8,0,5.79-2.42,8.26-8.08,8.26-6,0-8.48-2.41-8.48-8.24a9.13,9.13,0,0,1,1.27-4.89c1.25-1.71,3.41-2.47,7.07-2.47C179.1,87.74,180.82,88.19,182.22,89.28ZM174,95.41a6.76,6.76,0,0,0,.34,2.42,2,2,0,0,0,1.82,1c1.4,0,2.08-1,2.08-3,0-2.19-.55-2.94-2.06-2.94S174,93.59,174,95.41Z" fill="#fff"/><path d="M192,91.57h.16c.31-2.53,1.33-3.51,3.59-3.51a6.29,6.29,0,0,1,1.4.13v6.73a8.61,8.61,0,0,0-1.43-.13,3.29,3.29,0,0,0-2.68,1,2.35,2.35,0,0,0-.39,1.33c-.07.62-.13,1.09-.13,1.35v4.34h-6.37V88.26H192Z" fill="#fff"/><path d="M210.05,96h-4.16v6.83h-6.48V96H198V91.57l1.45.1V88.86a3.69,3.69,0,0,1,1.2-3c.86-.75,2.29-1.06,4.76-1.06,1.3,0,2.57.07,4.68.23v4a11.2,11.2,0,0,0-2-.18c-1.59,0-2.21.47-2.21,1.59v1.22l4.16-.1Z" fill="#fff"/><path d="M227.08,97c0,2.42-.41,3.75-1.4,4.68-1.33,1.2-3.51,1.82-6.37,1.82-3.17,0-5.52-.78-6.76-2.21-.7-.8-1-2.21-1-4.29V88.26H218v9.42c0,1.4.34,1.89,1.33,1.89s1.3-.49,1.3-1.89V88.26h6.47Z" fill="#fff"/><path d="M235.88,102.82H229.4v-18h6.48Z" fill="#fff"/><path d="M23,132.83H16.53v-18H23Z" fill="#fff"/><path d="M41.84,132.83H35.36v-2.42h-.13c-.78,2.13-1.79,2.75-4.34,2.75-2.1,0-3.59-.57-4.42-1.71-1-1.43-1.53-3.54-1.53-6.55,0-2.84.54-4.69,1.71-5.88a5.39,5.39,0,0,1,4.06-1.28c2.86,0,3.85.68,4.52,3h.13v-2.5h6.48Zm-10.35-7.16c0,2,.65,2.89,2,2.89s2-.83,2-2.86c0-1.77-.54-2.47-1.9-2.47S31.49,124,31.49,125.67Z" fill="#fff"/><path d="M56.13,123.23H51.61v4.5c0,1.38.36,1.72,1.87,1.72a5.47,5.47,0,0,0,1.4-.16l.81-.13-.16,3.67a27.19,27.19,0,0,1-5,.52c-2.16,0-3.54-.34-4.32-1.07s-1-1.38-1-3v-6h-2v-3.07a28.24,28.24,0,0,0,4.86-4.78h3.54v2.88h4.52Z" fill="#fff"/><path d="M70,123.23H65.51v4.5c0,1.38.36,1.72,1.87,1.72a5.47,5.47,0,0,0,1.4-.16l.81-.13-.16,3.67a27.35,27.35,0,0,1-5,.52c-2.16,0-3.54-.34-4.32-1.07s-1-1.38-1-3v-6h-2v-3.07A28.61,28.61,0,0,0,62,115.38h3.54v2.88H70Z" fill="#fff"/><path d="M85.72,132.28a27.82,27.82,0,0,1-6.76.88c-5.46,0-7.75-2.39-7.75-8.08,0-2.89.67-4.84,2.08-6,1.22-1,2.91-1.38,5.74-1.38s4.74.42,6,1.38c1.4,1.12,2,2.78,2,6a15.18,15.18,0,0,1-.13,2.14H77.55a2.09,2.09,0,0,0,.31,1.14c.39.54,1.56.88,3.15.88a22.18,22.18,0,0,0,5.51-.83Zm-3.9-8.3c0-1.63-.58-2.15-2.29-2.15-1.54,0-2.16.62-2.21,2.15Z" fill="#fff"/><path d="M111.79,132.83h-6.47v-2.42h-.13c-.78,2.13-1.79,2.75-4.34,2.75-2.11,0-3.59-.57-4.42-1.71-1-1.43-1.54-3.54-1.54-6.55,0-2.84.55-4.69,1.72-5.88.88-.89,2.16-1.28,4.06-1.28,2.86,0,3.84.68,4.52,3h.13v-2.5h6.47Zm-10.34-7.16c0,2,.65,2.89,2,2.89s2-.83,2-2.86c0-1.77-.55-2.47-1.9-2.47S101.45,124,101.45,125.67Z" fill="#fff"/><path d="M126.09,123.23h-4.53v4.5c0,1.38.37,1.72,1.88,1.72a5.57,5.57,0,0,0,1.4-.16l.81-.13-.16,3.67a27.35,27.35,0,0,1-5,.52c-2.16,0-3.54-.34-4.32-1.07s-1-1.38-1-3v-6h-2v-3.07a28.61,28.61,0,0,0,4.86-4.78h3.53v2.88h4.53Z" fill="#fff"/><path d="M140.75,119.64c0,.26,0,.44-.1,1.3h.18c.47-2.1,1.92-3,4.81-3,3.41,0,5,1.48,5,4.6v10.3h-6.48v-7.7a2.57,2.57,0,0,0-.18-1.35,1.47,1.47,0,0,0-1.4-.76,1.83,1.83,0,0,0-1.85,2v7.8h-6.39v-18h6.39Z" fill="#fff"/><path d="M166.87,119.28c1.51,1.19,2.13,2.91,2.13,5.8,0,5.8-2.41,8.27-8.08,8.27-6,0-8.48-2.42-8.48-8.25a9.15,9.15,0,0,1,1.27-4.89c1.25-1.71,3.41-2.47,7.08-2.47C163.75,117.74,165.47,118.19,166.87,119.28Zm-8.27,6.14a6.74,6.74,0,0,0,.34,2.41,2,2,0,0,0,1.82,1c1.41,0,2.08-1,2.08-3,0-2.19-.54-2.94-2.05-2.94S158.6,123.59,158.6,125.42Z" fill="#fff"/><path d="M176.84,120.71H177c.52-2.11,1.93-3,4.79-3,3,0,4.18.89,4.44,3.33h.16a3.42,3.42,0,0,1,1.19-2.36,5.66,5.66,0,0,1,3.54-1c2.11,0,3.51.55,4.19,1.64a7.92,7.92,0,0,1,.65,3v10.43h-6.48v-7.91c0-1.38-.41-2-1.38-2s-1.43.55-1.43,1.66v8.2h-6.47v-8c0-1.3-.39-1.82-1.35-1.82s-1.51.57-1.51,1.63v8.2h-6.48V118.26h6Z" fill="#fff"/><path d="M212.27,132.28a27.82,27.82,0,0,1-6.76.88c-5.46,0-7.75-2.39-7.75-8.08,0-2.89.67-4.84,2.08-6,1.22-1,2.91-1.38,5.74-1.38s4.74.42,6,1.38c1.4,1.12,2,2.78,2,6a15.18,15.18,0,0,1-.13,2.14H204.1a2,2,0,0,0,.32,1.14c.38.54,1.55.88,3.14.88a22.18,22.18,0,0,0,5.51-.83Zm-3.9-8.3c0-1.63-.58-2.15-2.29-2.15-1.54,0-2.16.62-2.21,2.15Z" fill="#fff"/></g></g></svg>