<svg xmlns="http://www.w3.org/2000/svg" viewBox="0 0 300 250"><g id="Layer_2" data-name="Layer 2"><g id="rect"><rect width="300" height="250" fill="none"/></g><g id="Enjoy_a_café-style_latte_in_just_one_step" data-name="Enjoy a café-style  latte in just  one step"><path d="M34.63,60.63H26.72v2h7.91v3.92H26.72v1.9h7.91v4.39H20.3V55.48H34.63Z" fill="#fff"/><path d="M43,60.84h.15c.47-2,2-2.91,4.89-2.91,2,0,3.48.49,4.39,1.45a5.06,5.06,0,0,1,.91,3.25V72.82H46.82V65.21c0-1.28,0-1.36-.29-1.67A1.54,1.54,0,0,0,45.21,63a1.71,1.71,0,0,0-1.87,1.89v7.93H37V58.26h6Z" fill="#fff"/><path d="M62.32,70.93c0,2.78-.34,3.84-1.41,4.55-.88.57-2.08.8-4.23.8a20.52,20.52,0,0,1-2.37-.1V72.69a5.28,5.28,0,0,0,.55.06,1.17,1.17,0,0,0,1-.42c.1-.18.13-.26.16-1V57.87c.46.32.65.37,2.41.39H59.9c1.85,0,2.08-.07,2.42-.39Zm0-14.56c0,1-.18,1.17-1.17,1.14H57.14c-1,0-1.19-.16-1.17-1.14v-.65c0-1,.19-1.17,1.17-1.15H61.2c1,0,1.2.18,1.17,1.15Z" fill="#fff"/><path d="M78.54,59.28c1.51,1.19,2.13,2.91,2.13,5.8,0,5.79-2.42,8.26-8.08,8.26-6,0-8.48-2.41-8.48-8.24a9.13,9.13,0,0,1,1.27-4.89c1.25-1.71,3.41-2.47,7.08-2.47C75.42,57.74,77.14,58.19,78.54,59.28Zm-8.27,6.13a6.76,6.76,0,0,0,.34,2.42,2,2,0,0,0,1.82,1c1.4,0,2.08-1,2.08-3,0-2.19-.55-2.94-2.05-2.94S70.27,63.59,70.27,65.41Z" fill="#fff"/><path d="M86.74,72.36V72.2a3.26,3.26,0,0,1-2.11-2.5L81.07,58.26h6.29l1.15,4.32A25.3,25.3,0,0,1,89,67.16h.18a25.5,25.5,0,0,1,.55-4.48l1.09-4.42H97.3L92.88,71.78c-1.23,3.64-2.14,4.43-5.28,4.5H83.15l-.28-3.92Z" fill="#fff"/><path d="M121.74,72.82h-6.48V70.41h-.13c-.78,2.13-1.79,2.75-4.34,2.75-2.11,0-3.59-.57-4.42-1.71-1-1.43-1.53-3.54-1.53-6.56,0-2.83.54-4.68,1.71-5.87a5.39,5.39,0,0,1,4.06-1.28c2.86,0,3.85.68,4.52,3h.13v-2.5h6.48Zm-10.35-7.15c0,2,.65,2.89,2,2.89s2-.83,2-2.86c0-1.77-.55-2.47-1.9-2.47S111.39,64,111.39,65.67Z" fill="#fff"/><path d="M143.63,72.15a14.18,14.18,0,0,1-6,1c-2.68,0-4.32-.52-5.51-1.72s-2-3.53-2-6.34c0-5.07,2.42-7.39,7.67-7.39a16.24,16.24,0,0,1,5.8,1.1v5.3a14.6,14.6,0,0,0-4.11-.6c-2,0-2.81.7-2.81,2.34,0,1.8.83,2.47,3.1,2.47a12.16,12.16,0,0,0,3.82-.65Z" fill="#fff"/><path d="M162.16,72.82h-6.48V70.41h-.13c-.78,2.13-1.79,2.75-4.34,2.75-2.11,0-3.59-.57-4.42-1.71-1-1.43-1.54-3.54-1.54-6.56,0-2.83.55-4.68,1.72-5.87.88-.89,2.16-1.28,4.06-1.28,2.86,0,3.85.68,4.52,3h.13v-2.5h6.48Zm-10.35-7.15c0,2,.65,2.89,2,2.89s2-.83,2-2.86c0-1.77-.55-2.47-1.9-2.47S151.81,64,151.81,65.67Z" fill="#fff"/><path d="M175.86,66H171.7v6.83h-6.47V66h-1.46V61.57l1.46.1V58.86a3.72,3.72,0,0,1,1.19-3c.86-.75,2.29-1.06,4.76-1.06,1.3,0,2.58.07,4.68.23v4a11,11,0,0,0-2-.18c-1.58,0-2.21.47-2.21,1.59v1.22l4.16-.1Z" fill="#fff"/><path d="M191.53,72.28a28.34,28.34,0,0,1-6.77.88c-5.46,0-7.74-2.39-7.74-8.08,0-2.89.67-4.84,2.08-6,1.22-1,2.91-1.38,5.74-1.38s4.74.42,6,1.38c1.4,1.12,1.95,2.78,1.95,6a15,15,0,0,1-.13,2.13h-9.26a2,2,0,0,0,.31,1.15c.39.54,1.56.88,3.15.88a22.18,22.18,0,0,0,5.51-.83Zm-1.62-19.14-3.33,3.38h-4.05L185,53.14ZM187.62,64c0-1.63-.57-2.15-2.28-2.15-1.54,0-2.16.62-2.21,2.15Z" fill="#fff"/><path d="M201.05,62.89v4.63h-6.89V62.89Z" fill="#fff"/><path d="M215.94,62.89a36.1,36.1,0,0,0-4.32-.28c-2.54,0-2.8.07-2.8.83s.34.88,1.43.88a21.65,21.65,0,0,1,3.71.18c1.85.32,2.66,1.46,2.66,3.8,0,2-.63,3.43-1.87,4.16a10.62,10.62,0,0,1-5.05.88,35.08,35.08,0,0,1-6.81-.7V69a52.34,52.34,0,0,0,5.72.31c1.12,0,1.45-.18,1.45-.83,0-.81-.23-.88-2.47-.88a8.53,8.53,0,0,1-3.14-.34c-1.51-.5-2.19-1.82-2.19-4.24,0-3.8,1.72-5,6.92-5a46.16,46.16,0,0,1,6.76.57Z" fill="#fff"/><path d="M230.22,63.23H225.7v4.5c0,1.38.36,1.71,1.87,1.71a5.44,5.44,0,0,0,1.4-.15l.81-.13-.16,3.66a26.51,26.51,0,0,1-5,.52c-2.16,0-3.54-.33-4.32-1.06s-1-1.38-1-3v-6h-2V60.16a28.61,28.61,0,0,0,4.86-4.78h3.54v2.88h4.52Z" fill="#fff"/><path d="M236.89,72.36V72.2a3.24,3.24,0,0,1-2.11-2.5l-3.56-11.44h6.29l1.15,4.32a25.3,25.3,0,0,1,.49,4.58h.18a25.5,25.5,0,0,1,.55-4.48L241,58.26h6.47L243,71.78c-1.22,3.64-2.13,4.43-5.27,4.5H233.3L233,72.36Z" fill="#fff"/><path d="M255.26,72.82h-6.47v-18h6.47Z" fill="#fff"/><path d="M271.6,72.28a28.27,28.27,0,0,1-6.76.88c-5.46,0-7.75-2.39-7.75-8.08,0-2.89.68-4.84,2.08-6,1.22-1,2.91-1.38,5.75-1.38s4.73.42,5.95,1.38c1.4,1.12,1.95,2.78,1.95,6a15,15,0,0,1-.13,2.13h-9.26a2,2,0,0,0,.32,1.15c.39.54,1.56.88,3.14.88a22.18,22.18,0,0,0,5.51-.83ZM267.7,64c0-1.63-.57-2.15-2.29-2.15-1.53,0-2.16.62-2.21,2.15Z" fill="#fff"/><path d="M26.7,102.82H20.22v-18H26.7Z" fill="#fff"/><path d="M45.53,102.82H39.05v-2.41h-.13c-.78,2.13-1.79,2.75-4.34,2.75-2.1,0-3.59-.57-4.42-1.71-1-1.43-1.53-3.54-1.53-6.56,0-2.83.54-4.68,1.71-5.87a5.39,5.39,0,0,1,4.06-1.28c2.86,0,3.85.68,4.52,3h.13v-2.5h6.48ZM35.18,95.67c0,2,.65,2.89,2,2.89s2-.83,2-2.86c0-1.77-.54-2.47-1.9-2.47S35.18,94,35.18,95.67Z" fill="#fff"/><path d="M59.82,93.23H55.3v4.5c0,1.38.36,1.71,1.87,1.71a5.44,5.44,0,0,0,1.4-.15l.81-.13-.16,3.66a26.35,26.35,0,0,1-5,.52c-2.16,0-3.54-.33-4.32-1.06s-1-1.38-1-3v-6h-2V90.16a28.24,28.24,0,0,0,4.86-4.78H55.3v2.88h4.52Z" fill="#fff"/><path d="M73.72,93.23H69.2v4.5c0,1.38.36,1.71,1.87,1.71a5.44,5.44,0,0,0,1.4-.15l.81-.13-.16,3.66a26.35,26.35,0,0,1-5,.52c-2.16,0-3.54-.33-4.32-1.06s-1-1.38-1-3v-6h-2V90.16a28.24,28.24,0,0,0,4.86-4.78H69.2v2.88h4.52Z" fill="#fff"/><path d="M89.41,102.28a28.27,28.27,0,0,1-6.76.88c-5.46,0-7.75-2.39-7.75-8.08,0-2.89.67-4.84,2.08-6,1.22-1,2.91-1.38,5.75-1.38s4.73.42,6,1.38c1.4,1.12,1.95,2.78,1.95,6a15,15,0,0,1-.13,2.13H81.24a2,2,0,0,0,.32,1.15c.39.54,1.56.88,3.14.88a22.18,22.18,0,0,0,5.51-.83ZM85.51,94c0-1.63-.57-2.15-2.29-2.15-1.53,0-2.16.62-2.21,2.15Z" fill="#fff"/><path d="M105.5,86.37c0,1-.18,1.17-1.14,1.14H100.2c-1,0-1.17-.18-1.15-1.14v-.65c0-1,.18-1.17,1.15-1.15h4.16c1,0,1.17.18,1.14,1.15Zm-.08,16.45H99.1V87.87c.47.32.68.37,2.45.39H103c1.77,0,2-.07,2.44-.39Z" fill="#fff"/><path d="M113.71,90.84h.16c.47-2,2-2.91,4.89-2.91,2,0,3.48.49,4.39,1.45a5.12,5.12,0,0,1,.91,3.25v10.19h-6.47V95.21c0-1.28,0-1.36-.29-1.67A1.54,1.54,0,0,0,116,93a1.72,1.72,0,0,0-1.88,1.89v7.93h-6.34V88.26h5.95Z" fill="#fff"/><path d="M139.35,100.93c0,2.78-.34,3.84-1.4,4.55-.89.57-2.08.8-4.24.8a20.52,20.52,0,0,1-2.37-.1v-3.49a5.28,5.28,0,0,0,.55.06,1.15,1.15,0,0,0,1-.42c.11-.18.13-.26.16-1V87.87c.47.32.65.37,2.42.39h1.45c1.85-.05,2.08-.07,2.42-.39Zm.05-14.56c0,1-.18,1.17-1.17,1.14h-4c-1,0-1.2-.16-1.17-1.14v-.65c0-1,.18-1.17,1.17-1.15h4c1,0,1.2.18,1.17,1.15Z" fill="#fff"/><path d="M157.2,97c0,2.42-.41,3.75-1.4,4.68-1.33,1.2-3.51,1.82-6.37,1.82-3.18,0-5.51-.78-6.76-2.21-.71-.8-1-2.21-1-4.29V88.26h6.47v9.42c0,1.4.34,1.89,1.33,1.89s1.3-.49,1.3-1.89V88.26h6.47Z" fill="#fff"/><path d="M172.63,92.89a35.93,35.93,0,0,0-4.31-.28c-2.55,0-2.81.07-2.81.83s.34.88,1.43.88a21.79,21.79,0,0,1,3.72.18c1.84.32,2.65,1.46,2.65,3.8,0,2-.62,3.43-1.87,4.16a10.62,10.62,0,0,1-5.05.88,35.08,35.08,0,0,1-6.81-.7V99a52.34,52.34,0,0,0,5.72.31c1.12,0,1.46-.18,1.46-.83,0-.81-.24-.88-2.47-.88a8.59,8.59,0,0,1-3.15-.34c-1.51-.5-2.18-1.82-2.18-4.24,0-3.8,1.71-5,6.91-5a46.06,46.06,0,0,1,6.76.57Z" fill="#fff"/><path d="M186.91,93.23h-4.52v4.5c0,1.38.36,1.71,1.87,1.71a5.56,5.56,0,0,0,1.41-.15l.8-.13-.15,3.66a26.53,26.53,0,0,1-5,.52c-2.16,0-3.53-.33-4.31-1.06s-1-1.38-1-3v-6h-2V90.16a28.24,28.24,0,0,0,4.86-4.78h3.54v2.88h4.52Z" fill="#fff"/><path d="M34.13,119.28c1.51,1.19,2.13,2.91,2.13,5.8,0,5.8-2.41,8.27-8.08,8.27-6,0-8.48-2.42-8.48-8.25A9.06,9.06,0,0,1,21,120.21c1.24-1.71,3.4-2.47,7.07-2.47C31,117.74,32.73,118.19,34.13,119.28Zm-8.27,6.14a6.74,6.74,0,0,0,.34,2.41,2,2,0,0,0,1.82,1c1.41,0,2.08-1,2.08-3,0-2.19-.54-2.94-2.05-2.94S25.86,123.59,25.86,125.42Z" fill="#fff"/><path d="M44.05,120.84h.16c.47-2,2-2.91,4.89-2.91,2,0,3.48.49,4.39,1.45a5.12,5.12,0,0,1,.91,3.25v10.2H47.93v-7.62c0-1.28,0-1.36-.29-1.67a1.56,1.56,0,0,0-1.33-.54,1.72,1.72,0,0,0-1.87,1.9v7.93H38.1V118.26h5.95Z" fill="#fff"/><path d="M70.7,132.28a27.71,27.71,0,0,1-6.76.88c-5.46,0-7.74-2.39-7.74-8.08,0-2.89.67-4.84,2.08-6,1.22-1,2.91-1.38,5.74-1.38s4.73.42,6,1.38c1.4,1.12,2,2.78,2,6a15.18,15.18,0,0,1-.13,2.14H62.54a2,2,0,0,0,.31,1.14c.39.54,1.56.88,3.15.88a22.18,22.18,0,0,0,5.51-.83ZM66.8,124c0-1.63-.57-2.15-2.28-2.15-1.54,0-2.16.62-2.21,2.15Z" fill="#fff"/><path d="M93.4,122.89a36.07,36.07,0,0,0-4.31-.28c-2.55,0-2.81.07-2.81.83s.34.88,1.43.88a21.79,21.79,0,0,1,3.72.18c1.84.32,2.65,1.46,2.65,3.8,0,2-.63,3.43-1.87,4.16a10.59,10.59,0,0,1-5,.89,35.12,35.12,0,0,1-6.81-.71V129a50,50,0,0,0,5.72.31c1.12,0,1.46-.18,1.46-.83,0-.81-.24-.88-2.47-.88a8.38,8.38,0,0,1-3.15-.34c-1.51-.5-2.18-1.82-2.18-4.24,0-3.8,1.71-5,6.91-5a46.16,46.16,0,0,1,6.76.57Z" fill="#fff"/><path d="M107.68,123.23h-4.52v4.5c0,1.38.36,1.72,1.87,1.72a5.47,5.47,0,0,0,1.4-.16l.81-.13-.16,3.67a27.35,27.35,0,0,1-5,.52c-2.16,0-3.54-.34-4.32-1.07s-1-1.38-1-3v-6h-2v-3.07a28.61,28.61,0,0,0,4.86-4.78h3.54v2.88h4.52Z" fill="#fff"/><path d="M123.37,132.28a27.82,27.82,0,0,1-6.76.88c-5.46,0-7.75-2.39-7.75-8.08,0-2.89.67-4.84,2.08-6,1.22-1,2.91-1.38,5.74-1.38s4.74.42,6,1.38c1.4,1.12,2,2.78,2,6a15.18,15.18,0,0,1-.13,2.14H115.2a2.09,2.09,0,0,0,.31,1.14c.39.54,1.56.88,3.15.88a22.18,22.18,0,0,0,5.51-.83Zm-3.9-8.3c0-1.63-.58-2.15-2.29-2.15-1.54,0-2.16.62-2.21,2.15Z" fill="#fff"/><path d="M133,120.81h.18c.37-2.18,1.64-3.07,4.37-3.07,4.21,0,5.83,2,5.83,7.31,0,3-.42,4.81-1.38,6.19a5.48,5.48,0,0,1-4.6,1.92c-2.47,0-3.67-.78-4.22-2.75H133v5.87h-6.47v-18H133Zm-.13,5c0,2,.57,2.78,1.93,2.78s2-.91,2-3.09c0-1.54-.65-2.29-2-2.29S132.82,124,132.82,125.83Z" fill="#fff"/></g></g></svg>