<svg xmlns="http://www.w3.org/2000/svg" viewBox="0 0 728 90"><g id="Layer_2" data-name="Layer 2"><g id="rect"><rect width="728" height="90" fill="none"/></g><g id="The_power_to_make_a_rich_flavorful_latte_at_home" data-name="The power to make a rich, flavorful latte at home"><path d="M35.12,26.66H29.9V39.82H22.1V26.66H17V19.82H35.12Z" fill="#fff"/><path d="M44.16,24.62c0,.3,0,.51-.12,1.5h.21c.54-2.43,2.22-3.48,5.55-3.48,3.93,0,5.79,1.71,5.79,5.31V39.82H48.12V31a3,3,0,0,0-.21-1.56,1.7,1.7,0,0,0-1.62-.87,2.1,2.1,0,0,0-2.13,2.31v9H36.78V19h7.38Z" fill="#fff"/><path d="M74.36,39.19a32.28,32.28,0,0,1-7.8,1c-6.3,0-8.94-2.76-8.94-9.32,0-3.33.78-5.58,2.4-6.87,1.41-1.11,3.36-1.59,6.63-1.59s5.46.48,6.87,1.59c1.62,1.29,2.25,3.21,2.25,6.9a16.67,16.67,0,0,1-.15,2.46H64.94a2.29,2.29,0,0,0,.36,1.31c.45.63,1.8,1,3.63,1a25.1,25.1,0,0,0,6.36-1Zm-4.5-9.57c0-1.88-.66-2.48-2.64-2.48-1.77,0-2.49.71-2.55,2.48Z" fill="#fff"/><path d="M92.93,26h.21c.42-2.52,1.89-3.54,5-3.54,4.86,0,6.72,2.34,6.72,8.42,0,3.45-.48,5.55-1.59,7.14-1,1.41-2.91,2.22-5.31,2.22-2.85,0-4.23-.9-4.86-3.18h-.21v6.78H85.46V23h7.47Zm-.15,5.78C92.78,34,93.44,35,95,35s2.34-1,2.34-3.56c0-1.78-.75-2.64-2.31-2.64S92.78,29.66,92.78,31.75Z" fill="#fff"/><path d="M123.07,24.2c1.74,1.38,2.46,3.36,2.46,6.69,0,6.68-2.79,9.53-9.33,9.53-6.93,0-9.78-2.79-9.78-9.5a10.49,10.49,0,0,1,1.47-5.64c1.44-2,3.93-2.85,8.16-2.85C119.47,22.43,121.45,22.94,123.07,24.2Zm-9.54,7.07a7.85,7.85,0,0,0,.39,2.79,2.3,2.3,0,0,0,2.1,1.15c1.62,0,2.4-1.12,2.4-3.42,0-2.52-.63-3.39-2.37-3.39S113.53,29.18,113.53,31.27Z" fill="#fff"/><path d="M150.19,39.82h-7.92l-1.38-5.46a36.49,36.49,0,0,1-.66-4h-.12a29.16,29.16,0,0,1-.54,4l-1.35,5.46h-8.1L126.1,23h7.56l1.41,7.32a20.94,20.94,0,0,1,.36,3h.15l.18-1.59c.06-.67.15-1.29.18-1.44L137.35,23H143l1.44,7.32a19.51,19.51,0,0,1,.33,3h.18c.09-.78.18-1.53.21-1.78a7.39,7.39,0,0,1,.15-1.25L146.74,23h7.41Z" fill="#fff"/><path d="M171.51,39.19a32.28,32.28,0,0,1-7.8,1c-6.3,0-8.94-2.76-8.94-9.32,0-3.33.78-5.58,2.4-6.87,1.41-1.11,3.36-1.59,6.63-1.59s5.46.48,6.87,1.59c1.62,1.29,2.25,3.21,2.25,6.9a16.67,16.67,0,0,1-.15,2.46H162.09a2.29,2.29,0,0,0,.36,1.31c.45.63,1.8,1,3.63,1a25.1,25.1,0,0,0,6.36-1ZM167,29.62c0-1.88-.66-2.48-2.64-2.48-1.77,0-2.49.71-2.55,2.48Z" fill="#fff"/><path d="M181.82,26.84H182c.36-2.91,1.53-4.05,4.14-4.05a7.76,7.76,0,0,1,1.62.15v7.77a8.59,8.59,0,0,0-1.65-.15A3.78,3.78,0,0,0,183,31.73a2.59,2.59,0,0,0-.45,1.52c-.09.73-.15,1.27-.15,1.56v5h-7.35V23h6.75Z" fill="#fff"/><path d="M210.5,28.76h-5.22v5.18c0,1.59.42,2,2.16,2a6.34,6.34,0,0,0,1.62-.17l.93-.16-.18,4.23a31.13,31.13,0,0,1-5.82.6c-2.49,0-4.08-.39-5-1.23s-1.14-1.59-1.14-3.5V28.76h-2.28V25.22a32.63,32.63,0,0,0,5.61-5.52h4.08V23h5.22Z" fill="#fff"/><path d="M228.46,24.2c1.74,1.38,2.46,3.36,2.46,6.69,0,6.68-2.79,9.53-9.33,9.53-6.93,0-9.78-2.79-9.78-9.5a10.49,10.49,0,0,1,1.47-5.64c1.44-2,3.93-2.85,8.16-2.85C224.86,22.43,226.84,22.94,228.46,24.2Zm-9.54,7.07a7.85,7.85,0,0,0,.39,2.79,2.3,2.3,0,0,0,2.1,1.15c1.62,0,2.4-1.12,2.4-3.42,0-2.52-.63-3.39-2.37-3.39S218.92,29.18,218.92,31.27Z" fill="#fff"/><path d="M247.57,25.85h.15c.6-2.43,2.22-3.42,5.52-3.42,3.48,0,4.83,1,5.13,3.84h.18a4,4,0,0,1,1.38-2.73A6.55,6.55,0,0,1,264,22.43c2.43,0,4.05.63,4.83,1.89a9.08,9.08,0,0,1,.75,3.48v12h-7.47V30.71c0-1.59-.48-2.25-1.59-2.25s-1.65.62-1.65,1.92v9.44h-7.47V30.58c0-1.5-.45-2.09-1.56-2.09s-1.74.66-1.74,1.89v9.44h-7.47V23h6.93Z" fill="#fff"/><path d="M291.31,39.82h-7.47V37h-.15c-.9,2.46-2.07,3.18-5,3.18-2.43,0-4.14-.66-5.1-2-1.2-1.65-1.77-4.08-1.77-7.55,0-3.27.63-5.4,2-6.78,1-1,2.49-1.47,4.68-1.47,3.3,0,4.44.78,5.22,3.48h.15V23h7.47Zm-11.94-8.24c0,2.25.75,3.32,2.28,3.32s2.28-1,2.28-3.3c0-2-.63-2.84-2.19-2.84S279.37,29.66,279.37,31.58Z" fill="#fff"/><path d="M301.27,28.43c0,.11,0,.45,0,.92,0,.13,0,.55-.05,1h.23c.27-.73.39-1,.57-1.41L304.75,23h8.13L308,31.46l4.29,8.36h-7.53L302,34.46c-.24-.67-.42-1.06-.6-1.59h-.23c.05.86.08,1.43.08,1.7v5.25H294V19h7.28Z" fill="#fff"/><path d="M329.69,39.19a32.28,32.28,0,0,1-7.8,1c-6.3,0-8.94-2.76-8.94-9.32,0-3.33.78-5.58,2.4-6.87,1.41-1.11,3.36-1.59,6.63-1.59s5.46.48,6.87,1.59c1.62,1.29,2.25,3.21,2.25,6.9a16.67,16.67,0,0,1-.15,2.46H320.27a2.29,2.29,0,0,0,.36,1.31c.45.63,1.8,1,3.63,1a25.1,25.1,0,0,0,6.36-1Zm-4.5-9.57c0-1.88-.66-2.48-2.64-2.48-1.77,0-2.49.71-2.55,2.48Z" fill="#fff"/><path d="M359.78,39.82h-7.47V37h-.15c-.9,2.46-2.07,3.18-5,3.18-2.43,0-4.14-.66-5.1-2-1.2-1.65-1.77-4.08-1.77-7.55,0-3.27.63-5.4,2-6.78,1-1,2.49-1.47,4.68-1.47,3.3,0,4.44.78,5.22,3.48h.15V23h7.47Zm-11.94-8.24c0,2.25.75,3.32,2.28,3.32s2.28-1,2.28-3.3c0-2-.63-2.84-2.19-2.84S347.84,29.66,347.84,31.58Z" fill="#fff"/><path d="M376.85,26.84H377c.36-2.91,1.53-4.05,4.14-4.05a7.76,7.76,0,0,1,1.62.15v7.77a8.59,8.59,0,0,0-1.65-.15,3.78,3.78,0,0,0-3.09,1.17,2.59,2.59,0,0,0-.45,1.52c-.09.73-.15,1.27-.15,1.56v5H370.1V23h6.75Z" fill="#fff"/><path d="M391.62,20.84c0,1.11-.21,1.35-1.32,1.32h-4.8c-1.11,0-1.35-.21-1.32-1.32v-.75c0-1.14.21-1.35,1.32-1.32h4.8c1.11,0,1.35.21,1.32,1.32Zm-.09,19h-7.29V22.58c.54.36.78.42,2.82.45h1.65c2,0,2.28-.09,2.82-.45Z" fill="#fff"/><path d="M409.06,39a16.26,16.26,0,0,1-6.9,1.2c-3.09,0-5-.6-6.36-2s-2.28-4.07-2.28-7.31c0-5.85,2.79-8.52,8.85-8.52a18.71,18.71,0,0,1,6.69,1.26v6.12a16.42,16.42,0,0,0-4.74-.69c-2.25,0-3.24.81-3.24,2.69,0,2.07,1,2.86,3.57,2.86a14.52,14.52,0,0,0,4.41-.75Z" fill="#fff"/><path d="M418.9,24.62c0,.3,0,.51-.12,1.5H419c.54-2.43,2.22-3.48,5.55-3.48,3.93,0,5.79,1.71,5.79,5.31V39.82h-7.47V31a3,3,0,0,0-.21-1.56,1.7,1.7,0,0,0-1.62-.87,2.1,2.1,0,0,0-2.13,2.31v9h-7.38V19h7.38Z" fill="#fff"/><path d="M436.37,44.11H432l1.86-8.63h6.24Z" fill="#fff"/><path d="M30.56,61.28h-4.8v7.89H18.29V61.28H16.61v-5.1l1.68.12V53.06a4.27,4.27,0,0,1,1.38-3.45c1-.87,2.64-1.23,5.49-1.23,1.5,0,3,.09,5.4.27v4.62a12.81,12.81,0,0,0-2.25-.21c-1.83,0-2.55.54-2.55,1.83V56.3l4.8-.12Z" fill="#fff"/><path d="M39.83,69.17H32.36V48.38h7.47Z" fill="#fff"/><path d="M61.53,69.17H54.06V66.38h-.15c-.9,2.46-2.07,3.18-5,3.18-2.43,0-4.14-.66-5.1-2C42.6,65.93,42,63.5,42,60c0-3.27.63-5.4,2-6.78,1-1,2.49-1.47,4.68-1.47,3.3,0,4.44.78,5.22,3.48h.15V52.37h7.47ZM49.59,60.92c0,2.25.75,3.33,2.28,3.33s2.28-1,2.28-3.3c0-2-.63-2.85-2.19-2.85S49.59,59,49.59,60.92Z" fill="#fff"/><path d="M77.57,69.17H68l-5-16.8h7.5l1.5,5.34a29.7,29.7,0,0,1,.69,4.92h.18a24.5,24.5,0,0,1,.63-4.92L75,52.37H82.4Z" fill="#fff"/><path d="M99.48,53.54c1.74,1.38,2.46,3.36,2.46,6.69,0,6.69-2.79,9.54-9.33,9.54-6.93,0-9.78-2.79-9.78-9.51a10.49,10.49,0,0,1,1.47-5.64c1.44-2,3.93-2.85,8.16-2.85C95.88,51.77,97.86,52.28,99.48,53.54Zm-9.54,7.08a7.89,7.89,0,0,0,.39,2.79,2.29,2.29,0,0,0,2.1,1.14c1.62,0,2.4-1.11,2.4-3.42,0-2.52-.63-3.39-2.37-3.39S89.94,58.52,89.94,60.62Z" fill="#fff"/><path d="M110.78,56.18H111c.36-2.91,1.53-4,4.14-4a7.76,7.76,0,0,1,1.62.15v7.77a9.49,9.49,0,0,0-1.65-.15A3.78,3.78,0,0,0,112,61.07a2.6,2.6,0,0,0-.45,1.53c-.09.72-.15,1.26-.15,1.56v5H104V52.37h6.75Z" fill="#fff"/><path d="M131.53,61.28h-4.8v7.89h-7.47V61.28h-1.68v-5.1l1.68.12V53.06a4.27,4.27,0,0,1,1.38-3.45c1-.87,2.64-1.23,5.49-1.23,1.5,0,3,.09,5.4.27v4.62a12.81,12.81,0,0,0-2.25-.21c-1.83,0-2.55.54-2.55,1.83V56.3l4.8-.12Z" fill="#fff"/><path d="M151.16,62.42c0,2.79-.48,4.32-1.62,5.4-1.53,1.38-4,2.1-7.35,2.1-3.66,0-6.36-.9-7.8-2.55-.81-.93-1.2-2.55-1.2-5V52.37h7.47V63.23c0,1.62.39,2.19,1.53,2.19s1.5-.57,1.5-2.19V52.37h7.47Z" fill="#fff"/><path d="M161.28,69.17h-7.47V48.38h7.47Z" fill="#fff"/><path d="M179.07,69.17H171.6V48.38h7.47Z" fill="#fff"/><path d="M200.77,69.17H193.3V66.38h-.15c-.9,2.46-2.07,3.18-5,3.18-2.43,0-4.14-.66-5.1-2-1.2-1.65-1.77-4.08-1.77-7.56,0-3.27.63-5.4,2-6.78,1-1,2.49-1.47,4.68-1.47,3.3,0,4.44.78,5.22,3.48h.15V52.37h7.47Zm-11.94-8.25c0,2.25.75,3.33,2.28,3.33s2.28-1,2.28-3.3c0-2-.63-2.85-2.19-2.85S188.83,59,188.83,60.92Z" fill="#fff"/><path d="M217.23,58.1H212v5.19c0,1.59.42,2,2.16,2a6.38,6.38,0,0,0,1.62-.18l.93-.15-.18,4.23a31.13,31.13,0,0,1-5.82.6c-2.49,0-4.08-.39-5-1.23S204.6,67,204.6,65V58.1h-2.28V54.56A32.63,32.63,0,0,0,207.93,49H212v3.33h5.22Z" fill="#fff"/><path d="M233.24,58.1H228v5.19c0,1.59.42,2,2.16,2a6.38,6.38,0,0,0,1.62-.18l.93-.15-.18,4.23a31.13,31.13,0,0,1-5.82.6c-2.49,0-4.08-.39-5-1.23S220.61,67,220.61,65V58.1h-2.28V54.56A32.63,32.63,0,0,0,223.94,49H228v3.33h5.22Z" fill="#fff"/><path d="M251.31,68.54a32.28,32.28,0,0,1-7.8,1c-6.3,0-8.94-2.76-8.94-9.33,0-3.33.78-5.58,2.4-6.87,1.41-1.11,3.36-1.59,6.63-1.59,3.42,0,5.46.48,6.87,1.59,1.62,1.29,2.25,3.21,2.25,6.9a16.67,16.67,0,0,1-.15,2.46H241.89a2.3,2.3,0,0,0,.36,1.32c.45.63,1.8,1,3.63,1a25.56,25.56,0,0,0,6.36-1ZM246.81,59c0-1.89-.66-2.49-2.64-2.49-1.77,0-2.49.72-2.55,2.49Z" fill="#fff"/><path d="M281.4,69.17h-7.47V66.38h-.15c-.9,2.46-2.07,3.18-5,3.18-2.43,0-4.14-.66-5.1-2-1.2-1.65-1.77-4.08-1.77-7.56,0-3.27.63-5.4,2-6.78,1-1,2.49-1.47,4.68-1.47,3.3,0,4.44.78,5.22,3.48h.15V52.37h7.47Zm-11.94-8.25c0,2.25.75,3.33,2.28,3.33s2.28-1,2.28-3.3c0-2-.63-2.85-2.19-2.85S269.46,59,269.46,60.92Z" fill="#fff"/><path d="M297.87,58.1h-5.22v5.19c0,1.59.42,2,2.16,2a6.38,6.38,0,0,0,1.62-.18l.93-.15-.18,4.23a31.13,31.13,0,0,1-5.82.6c-2.49,0-4.08-.39-5-1.23S285.24,67,285.24,65V58.1H283V54.56A32.63,32.63,0,0,0,288.57,49h4.08v3.33h5.22Z" fill="#fff"/><path d="M314.79,54c0,.3,0,.51-.12,1.5h.21C315.42,53,317.1,52,320.43,52c3.93,0,5.79,1.71,5.79,5.31V69.17h-7.47V60.29a3,3,0,0,0-.21-1.56,1.7,1.7,0,0,0-1.62-.87,2.1,2.1,0,0,0-2.13,2.31v9h-7.38V48.38h7.38Z" fill="#fff"/><path d="M344.89,53.54c1.74,1.38,2.46,3.36,2.46,6.69,0,6.69-2.79,9.54-9.33,9.54-6.93,0-9.78-2.79-9.78-9.51a10.49,10.49,0,0,1,1.47-5.64c1.44-2,3.93-2.85,8.16-2.85C341.29,51.77,343.27,52.28,344.89,53.54Zm-9.54,7.08a7.89,7.89,0,0,0,.39,2.79,2.29,2.29,0,0,0,2.1,1.14c1.62,0,2.4-1.11,2.4-3.42,0-2.52-.63-3.39-2.37-3.39S335.35,58.52,335.35,60.62Z" fill="#fff"/><path d="M356.37,55.19h.15c.6-2.43,2.22-3.42,5.52-3.42,3.48,0,4.83,1,5.13,3.84h.17a4.05,4.05,0,0,1,1.38-2.73,6.57,6.57,0,0,1,4.08-1.11c2.43,0,4.05.63,4.83,1.89a8.9,8.9,0,0,1,.75,3.48v12h-7.46V60.05c0-1.59-.49-2.25-1.59-2.25s-1.66.63-1.66,1.92v9.45h-7.46V59.93c0-1.5-.45-2.1-1.56-2.1s-1.74.66-1.74,1.89v9.45h-7.47V52.37h6.93Z" fill="#fff"/><path d="M397.21,68.54a32.28,32.28,0,0,1-7.8,1c-6.3,0-8.94-2.76-8.94-9.33,0-3.33.78-5.58,2.4-6.87,1.41-1.11,3.36-1.59,6.63-1.59,3.42,0,5.46.48,6.87,1.59,1.62,1.29,2.25,3.21,2.25,6.9a16.67,16.67,0,0,1-.15,2.46H387.79a2.3,2.3,0,0,0,.36,1.32c.45.63,1.8,1,3.63,1a25.56,25.56,0,0,0,6.36-1ZM392.71,59c0-1.89-.66-2.49-2.64-2.49-1.77,0-2.49.72-2.55,2.49Z" fill="#fff"/></g></g></svg>